<svg width="120" height="120" viewBox="0 0 120 120" fill="#2C60EA" xmlns="http://www.w3.org/2000/svg">
<g clip-path="url(#clip0_125_630)">
<path fill-rule="evenodd" clip-rule="evenodd" d="M76.6671 35.0559C71.7336 31.7595 65.9334 30 60 30V0C71.8668 0 83.4672 3.51894 93.3342 10.1118C103.201 16.7047 110.891 26.0754 115.433 37.0389C119.974 48.0024 121.162 60.0666 118.847 71.7054C116.532 83.3442 110.818 94.0353 102.426 102.426C94.0353 110.818 83.3442 116.532 71.7054 118.847C60.0666 121.162 48.0024 119.974 37.0389 115.433C26.0754 110.891 16.7047 103.201 10.1118 93.3342C3.51894 83.4672 0 71.8668 0 60H30C30 65.9334 31.7595 71.7336 35.0559 76.6671C38.3523 81.6006 43.0377 85.4457 48.5196 87.7164C54.0012 89.9871 60.0333 90.5811 65.8527 89.4234C71.6721 88.266 77.0175 85.4088 81.2133 81.2133C85.4088 77.0175 88.266 71.6721 89.4234 65.8527C90.5811 60.0333 89.9871 54.0012 87.7164 48.5196C85.4457 43.0377 81.6006 38.3523 76.6671 35.0559Z" fill="#2C60EA"/>
<path fill-rule="evenodd" clip-rule="evenodd" d="M30 1.29938e-05C30 3.93967 29.224 7.84075 27.7164 11.4805C26.2087 15.1203 23.999 18.4275 21.2132 21.2132C18.4275 23.999 15.1203 26.2088 11.4805 27.7164C7.84072 29.224 3.93965 30 1.31133e-06 30L0 60C7.8793 60 15.6815 58.4481 22.961 55.4328C30.2406 52.4175 36.855 47.9979 42.4263 42.4263C47.9979 36.855 52.4175 30.2406 55.4328 22.961C58.4481 15.6815 60 7.8793 60 0L30 1.29938e-05Z" fill="#2C60EA"/>
</g>
<defs>
<clipPath id="clip0_125_630">
<rect width="120" height="120" fill="#2C60EA"/>
</clipPath>
</defs>
</svg>
