<svg width="343" height="334" viewBox="0 0 343 334" fill="none" xmlns="http://www.w3.org/2000/svg">
<path d="M313.525 19.5078C313.465 18.9496 313.214 18.5149 312.77 18.2038C312.331 17.8928 311.76 17.7372 311.057 17.7372C310.563 17.7372 310.139 17.8118 309.785 17.9609C309.432 18.1101 309.161 18.3125 308.974 18.5682C308.786 18.8239 308.69 19.1158 308.686 19.4439C308.686 19.7166 308.748 19.9531 308.871 20.1534C308.999 20.3537 309.172 20.5241 309.389 20.6648C309.606 20.8011 309.847 20.9162 310.111 21.0099C310.376 21.1037 310.642 21.1825 310.91 21.2464L312.138 21.5533C312.632 21.6683 313.107 21.8239 313.563 22.0199C314.023 22.2159 314.434 22.4631 314.797 22.7614C315.163 23.0597 315.453 23.4197 315.666 23.8416C315.879 24.2635 315.986 24.7578 315.986 25.3246C315.986 26.0916 315.79 26.767 315.398 27.3509C315.006 27.9304 314.439 28.3842 313.697 28.7124C312.96 29.0362 312.067 29.1982 311.019 29.1982C310.001 29.1982 309.116 29.0405 308.366 28.7251C307.621 28.4098 307.037 27.9496 306.615 27.3445C306.197 26.7393 305.971 26.0021 305.937 25.1328H308.27C308.305 25.5888 308.445 25.968 308.692 26.2706C308.939 26.5732 309.261 26.799 309.657 26.9482C310.058 27.0973 310.506 27.1719 311 27.1719C311.515 27.1719 311.967 27.0952 312.355 26.9418C312.747 26.7841 313.054 26.5668 313.275 26.2898C313.497 26.0085 313.61 25.6804 313.614 25.3054C313.61 24.9645 313.51 24.6832 313.314 24.4616C313.118 24.2358 312.843 24.0483 312.489 23.8991C312.14 23.7457 311.731 23.6094 311.262 23.4901L309.773 23.1065C308.694 22.8295 307.842 22.4098 307.216 21.8473C306.594 21.2805 306.282 20.5284 306.282 19.5909C306.282 18.8196 306.491 18.1442 306.909 17.5646C307.331 16.9851 307.904 16.5355 308.628 16.2159C309.353 15.892 310.173 15.7301 311.089 15.7301C312.018 15.7301 312.832 15.892 313.531 16.2159C314.234 16.5355 314.786 16.9808 315.187 17.5518C315.587 18.1186 315.794 18.7706 315.807 19.5078H313.525ZM320.107 25.919L320.1 23.1257H320.471L324 19.1818H326.703L322.363 24.0142H321.884L320.107 25.919ZM317.998 29V15.9091H320.311V29H317.998ZM324.159 29L320.963 24.532L322.523 22.902L326.927 29H324.159ZM328.246 29V19.1818H330.559V29H328.246ZM329.409 17.7884C329.042 17.7884 328.727 17.6669 328.463 17.424C328.199 17.1768 328.067 16.8807 328.067 16.5355C328.067 16.1861 328.199 15.8899 328.463 15.647C328.727 15.3999 329.042 15.2763 329.409 15.2763C329.78 15.2763 330.095 15.3999 330.355 15.647C330.619 15.8899 330.751 16.1861 330.751 16.5355C330.751 16.8807 330.619 17.1768 330.355 17.424C330.095 17.6669 329.78 17.7884 329.409 17.7884ZM332.939 32.6818V19.1818H335.214V20.8054H335.349C335.468 20.5668 335.636 20.3132 335.854 20.0447C336.071 19.772 336.365 19.5398 336.736 19.348C337.107 19.152 337.58 19.054 338.155 19.054C338.913 19.054 339.597 19.2479 340.207 19.6357C340.82 20.0192 341.306 20.5881 341.664 21.3423C342.026 22.0923 342.207 23.0128 342.207 24.1037C342.207 25.1818 342.031 26.098 341.677 26.8523C341.323 27.6065 340.842 28.1818 340.232 28.5781C339.623 28.9744 338.933 29.1726 338.161 29.1726C337.599 29.1726 337.132 29.0788 336.761 28.8913C336.391 28.7038 336.092 28.478 335.866 28.2138C335.645 27.9453 335.472 27.6918 335.349 27.4531H335.253V32.6818H332.939ZM335.208 24.0909C335.208 24.7259 335.298 25.282 335.477 25.7592C335.66 26.2365 335.922 26.6094 336.263 26.8778C336.608 27.142 337.026 27.2741 337.516 27.2741C338.027 27.2741 338.455 27.1378 338.8 26.8651C339.146 26.5881 339.406 26.2109 339.58 25.7337C339.759 25.2521 339.849 24.7045 339.849 24.0909C339.849 23.4815 339.761 22.9403 339.587 22.4673C339.412 21.9943 339.152 21.6236 338.807 21.3551C338.462 21.0866 338.031 20.9524 337.516 20.9524C337.021 20.9524 336.602 21.0824 336.256 21.3423C335.911 21.6023 335.649 21.9666 335.47 22.4354C335.295 22.9041 335.208 23.456 335.208 24.0909Z" fill="black"/>
<path d="M343 301.614H0V301.793H343V301.614Z" fill="#E0E0E0"/>
<path d="M54.7634 312.858H35.9875V313.037H54.7634V312.858Z" fill="#E0E0E0"/>
<path d="M65.2455 312.858H59.2842V313.037H65.2455V312.858Z" fill="#E0E0E0"/>
<path d="M171.5 310.385H158.219V310.563H171.5V310.385Z" fill="#E0E0E0"/>
<path d="M286.721 310.291H257.092V310.47H286.721V310.291Z" fill="#E0E0E0"/>
<path d="M297.175 310.291H292.833V310.47H297.175V310.291Z" fill="#E0E0E0"/>
<path d="M233.7 306.046H169.435V306.225H233.7V306.046Z" fill="#E0E0E0"/>
<path d="M162.582 269.63H30.1221C29.0844 269.628 28.0899 269.196 27.3568 268.428C26.6237 267.66 26.2119 266.62 26.2119 265.535V70.8822C26.2209 69.8037 26.6367 68.7724 27.3688 68.0124C28.1009 67.2524 29.0903 66.8251 30.1221 66.8232H162.582C163.621 66.8232 164.617 67.2547 165.352 68.0226C166.086 68.7905 166.499 69.8321 166.499 70.9181V265.535C166.499 266.621 166.086 267.663 165.352 268.43C164.617 269.198 163.621 269.63 162.582 269.63ZM30.1221 66.9667C29.1299 66.9686 28.179 67.3819 27.478 68.116C26.7771 68.8502 26.3834 69.845 26.3834 70.8822V265.535C26.3834 266.572 26.7771 267.567 27.478 268.301C28.179 269.035 29.1299 269.449 30.1221 269.45H162.582C163.575 269.449 164.526 269.035 165.228 268.302C165.93 267.568 166.326 266.573 166.327 265.535V70.8822C166.326 69.8443 165.93 68.8495 165.228 68.1156C164.526 67.3817 163.575 66.9686 162.582 66.9667H30.1221Z" fill="#E0E0E0"/>
<path d="M310.971 269.63H178.504C177.466 269.628 176.47 269.196 175.736 268.428C175.002 267.661 174.589 266.62 174.587 265.535V70.8822C174.598 69.803 175.015 68.7718 175.748 68.012C176.481 67.2522 177.472 66.8251 178.504 66.8232H310.971C312.001 66.827 312.989 67.2551 313.719 68.0149C314.45 68.7747 314.865 69.8049 314.874 70.8822V265.535C314.874 266.618 314.463 267.658 313.731 268.425C313 269.193 312.007 269.626 310.971 269.63ZM178.504 66.9667C177.511 66.9686 176.559 67.3817 175.857 68.1156C175.155 68.8495 174.76 69.8443 174.758 70.8822V265.535C174.76 266.573 175.155 267.568 175.857 268.302C176.559 269.035 177.511 269.449 178.504 269.45H310.971C311.963 269.449 312.915 269.035 313.617 268.302C314.319 267.568 314.714 266.573 314.716 265.535V70.8822C314.714 69.8443 314.319 68.8495 313.617 68.1156C312.915 67.3817 311.963 66.9686 310.971 66.9667H178.504Z" fill="#E0E0E0"/>
<path d="M214.183 63.9546C214.185 63.1716 214.483 62.4212 215.013 61.8675C215.542 61.3138 216.26 61.0019 217.009 61H305.044C305.793 61.0019 306.51 61.3138 307.04 61.8675C307.57 62.4212 307.868 63.1716 307.87 63.9546V73.4423H214.183V63.9546Z" fill="#E0E0E0"/>
<path d="M234.893 67.2108C234.892 67.6536 235.016 68.0869 235.251 68.4558C235.485 68.8247 235.819 69.1126 236.21 69.283C236.601 69.4535 237.031 69.4988 237.447 69.4133C237.863 69.3278 238.245 69.1152 238.545 68.8026C238.845 68.49 239.049 68.0913 239.132 67.6571C239.215 67.2229 239.173 66.7726 239.012 66.3634C238.85 65.9541 238.576 65.6042 238.223 65.3581C237.871 65.1119 237.457 64.9805 237.034 64.9805C236.467 64.9805 235.924 65.2152 235.523 65.6333C235.121 66.0513 234.895 66.6186 234.893 67.2108Z" fill="white"/>
<path d="M227.32 67.2108C227.318 67.6536 227.443 68.0869 227.677 68.4558C227.912 68.8247 228.245 69.1126 228.636 69.283C229.027 69.4535 229.458 69.4988 229.873 69.4133C230.289 69.3278 230.671 69.1152 230.971 68.8026C231.271 68.49 231.476 68.0913 231.559 67.6571C231.642 67.2229 231.6 66.7726 231.438 66.3634C231.276 65.9541 231.002 65.6042 230.65 65.3581C230.298 65.1119 229.884 64.9805 229.46 64.9805C228.894 64.9805 228.35 65.2152 227.949 65.6333C227.548 66.0513 227.322 66.6186 227.32 67.2108Z" fill="white"/>
<path d="M219.746 67.2108C219.745 67.6536 219.869 68.0869 220.104 68.4558C220.338 68.8247 220.672 69.1126 221.063 69.283C221.454 69.4535 221.884 69.4988 222.3 69.4133C222.716 69.3278 223.098 69.1152 223.398 68.8026C223.698 68.49 223.902 68.0913 223.985 67.6571C224.069 67.2229 224.027 66.7726 223.865 66.3634C223.703 65.9541 223.429 65.6042 223.076 65.3581C222.724 65.1119 222.31 64.9805 221.887 64.9805C221.32 64.9805 220.777 65.2152 220.376 65.6333C219.974 66.0513 219.748 66.6186 219.746 67.2108Z" fill="white"/>
<path d="M305.044 137.497H217.009C216.26 137.495 215.543 137.183 215.013 136.63C214.483 136.076 214.185 135.326 214.183 134.543V73.4424H307.87V134.543C307.868 135.326 307.57 136.076 307.04 136.63C306.511 137.183 305.793 137.495 305.044 137.497Z" fill="#F0F0F0"/>
<path d="M207.858 73.8228C207.86 73.0397 208.158 72.2893 208.688 71.7356C209.217 71.182 209.935 70.8701 210.684 70.8682H298.739C299.488 70.8701 300.206 71.182 300.736 71.7356C301.265 72.2893 301.564 73.0397 301.566 73.8228V83.3177H207.858V73.8228Z" fill="#F0F0F0"/>
<path d="M228.589 77.0995C228.588 77.5426 228.712 77.9762 228.947 78.3452C229.181 78.7143 229.516 79.0022 229.907 79.1724C230.298 79.3426 230.729 79.3875 231.145 79.3014C231.561 79.2153 231.943 79.0021 232.243 78.6887C232.542 78.3754 232.746 77.9761 232.829 77.5414C232.911 77.1067 232.868 76.6562 232.705 76.2471C232.542 75.8379 232.267 75.4886 231.914 75.2432C231.561 74.9979 231.146 74.8677 230.722 74.8692C230.157 74.871 229.615 75.1066 229.216 75.5245C228.816 75.9423 228.591 76.5085 228.589 77.0995Z" fill="#E0E0E0"/>
<path d="M221.016 77.0994C221.014 77.5423 221.139 77.9756 221.373 78.3445C221.607 78.7133 221.941 79.0012 222.332 79.1717C222.723 79.3421 223.154 79.3875 223.569 79.302C223.985 79.2164 224.367 79.0039 224.667 78.6913C224.967 78.3786 225.171 77.98 225.255 77.5458C225.338 77.1115 225.296 76.6613 225.134 76.252C224.972 75.8428 224.698 75.4929 224.346 75.2467C223.994 75.0006 223.58 74.8691 223.156 74.8691C222.589 74.8691 222.046 75.1039 221.645 75.5219C221.244 75.94 221.017 76.5073 221.016 77.0994Z" fill="#E0E0E0"/>
<path d="M213.442 77.0994C213.441 77.5423 213.565 77.9756 213.799 78.3445C214.034 78.7133 214.367 79.0012 214.758 79.1717C215.149 79.3421 215.58 79.3875 215.996 79.302C216.411 79.2164 216.793 79.0039 217.093 78.6913C217.393 78.3786 217.598 77.98 217.681 77.5458C217.764 77.1115 217.722 76.6613 217.56 76.252C217.398 75.8428 217.124 75.4929 216.772 75.2467C216.42 75.0006 216.006 74.8691 215.582 74.8691C215.016 74.8691 214.472 75.1039 214.071 75.5219C213.67 75.94 213.444 76.5073 213.442 77.0994Z" fill="#E0E0E0"/>
<path d="M298.739 147.386H210.698C209.949 147.385 209.231 147.073 208.702 146.519C208.172 145.965 207.874 145.215 207.872 144.432V83.3174H301.566V144.418C301.567 144.806 301.494 145.192 301.353 145.551C301.211 145.911 301.003 146.238 300.741 146.514C300.478 146.79 300.166 147.009 299.823 147.158C299.48 147.308 299.111 147.386 298.739 147.386Z" fill="#FAFAFA"/>
<path d="M201.567 83.7116C201.568 83.3208 201.643 82.9341 201.788 82.5737C201.932 82.2133 202.143 81.8864 202.409 81.6117C202.675 81.3371 202.99 81.1202 203.337 80.9735C203.683 80.8268 204.054 80.7532 204.428 80.757H292.435C293.184 80.7589 293.902 81.0708 294.431 81.6244C294.961 82.1781 295.259 82.9286 295.261 83.7116V93.2208H201.567V83.7116Z" fill="#FAFAFA"/>
<path d="M222.264 86.9895C222.264 87.4314 222.389 87.8634 222.624 88.231C222.858 88.5987 223.192 88.8855 223.582 89.0552C223.972 89.225 224.402 89.2701 224.817 89.1849C225.232 89.0998 225.613 88.8881 225.913 88.5766C226.213 88.2651 226.418 87.8678 226.502 87.4347C226.586 87.0016 226.545 86.5522 226.386 86.1431C226.226 85.734 225.953 85.3836 225.603 85.136C225.253 84.8885 224.841 84.7548 224.418 84.752C224.136 84.7501 223.856 84.8066 223.595 84.9182C223.333 85.0298 223.096 85.1943 222.896 85.4022C222.695 85.6102 222.537 85.8575 222.428 86.1299C222.32 86.4023 222.264 86.6944 222.264 86.9895Z" fill="#F0F0F0"/>
<path d="M214.718 86.9895C214.718 87.4326 214.844 87.8658 215.08 88.234C215.315 88.6023 215.651 88.889 216.042 89.058C216.434 89.2269 216.865 89.2703 217.281 89.1828C217.697 89.0953 218.078 88.8808 218.377 88.5665C218.675 88.2521 218.878 87.8521 218.959 87.4171C219.04 86.9822 218.996 86.5318 218.832 86.1232C218.668 85.7147 218.391 85.3662 218.037 85.1221C217.684 84.878 217.269 84.7492 216.845 84.752C216.279 84.7558 215.738 84.9932 215.34 85.4124C214.942 85.8316 214.718 86.3985 214.718 86.9895Z" fill="#F0F0F0"/>
<path d="M209.271 89.2269C210.453 89.2269 211.411 88.2251 211.411 86.9894C211.411 85.7537 210.453 84.752 209.271 84.752C208.089 84.752 207.131 85.7537 207.131 86.9894C207.131 88.2251 208.089 89.2269 209.271 89.2269Z" fill="#F0F0F0"/>
<path d="M292.435 157.275H204.428C203.679 157.274 202.961 156.962 202.431 156.408C201.902 155.854 201.603 155.104 201.602 154.321V93.2207H295.261V154.314C295.261 155.098 294.964 155.85 294.434 156.405C293.904 156.961 293.185 157.274 292.435 157.275Z" fill="#E0E0E0"/>
<path d="M54.2832 119.088C54.2886 118.353 54.5698 117.65 55.0663 117.129C55.5628 116.609 56.235 116.313 56.938 116.306H189.631C190.34 116.308 191.019 116.603 191.521 117.127C192.022 117.651 192.305 118.361 192.306 119.103V128.124H54.2832V119.088Z" fill="#E0E0E0"/>
<path d="M75.9609 124.502C75.5253 124.502 75.0996 124.367 74.7374 124.115C74.3753 123.862 74.0931 123.502 73.9264 123.081C73.7597 122.661 73.7161 122.198 73.8011 121.751C73.8861 121.305 74.0958 120.895 74.4038 120.573C74.7117 120.251 75.1041 120.031 75.5312 119.943C75.9584 119.854 76.4012 119.899 76.8035 120.074C77.2059 120.248 77.5498 120.543 77.7918 120.922C78.0338 121.3 78.1629 121.745 78.1629 122.2C78.1629 122.811 77.9309 123.397 77.5179 123.828C77.105 124.26 76.5449 124.502 75.9609 124.502ZM75.9609 120.264C75.5942 120.263 75.2355 120.375 74.93 120.587C74.6245 120.799 74.386 121.101 74.2448 121.454C74.1035 121.808 74.0659 122.198 74.1365 122.574C74.2072 122.95 74.3831 123.296 74.6419 123.567C74.9006 123.839 75.2306 124.024 75.5901 124.099C75.9496 124.174 76.3224 124.136 76.6612 123.99C77 123.844 77.2897 123.595 77.4936 123.277C77.6974 122.958 77.8062 122.584 77.8062 122.2C77.8062 121.688 77.612 121.197 77.2661 120.834C76.9202 120.471 76.4509 120.266 75.9609 120.264Z" fill="white"/>
<path d="M68.7782 124.502C68.3427 124.502 67.917 124.367 67.5548 124.115C67.1927 123.862 66.9105 123.502 66.7438 123.081C66.5771 122.661 66.5335 122.198 66.6185 121.751C66.7035 121.305 66.9132 120.895 67.2211 120.573C67.5291 120.251 67.9215 120.031 68.3486 119.943C68.7758 119.854 69.2185 119.899 69.6209 120.074C70.0233 120.248 70.3672 120.543 70.6092 120.922C70.8511 121.3 70.9803 121.745 70.9803 122.2C70.9803 122.811 70.7483 123.397 70.3353 123.828C69.9224 124.26 69.3623 124.502 68.7782 124.502ZM68.7782 120.264C68.4119 120.264 68.0538 120.378 67.7492 120.59C67.4446 120.803 67.2072 121.106 67.067 121.459C66.9268 121.813 66.8902 122.203 66.9616 122.578C67.0331 122.954 67.2095 123.299 67.4685 123.57C67.7276 123.84 68.0576 124.025 68.4169 124.1C68.7762 124.174 69.1486 124.136 69.487 123.989C69.8255 123.843 70.1148 123.595 70.3183 123.276C70.5218 122.958 70.6304 122.583 70.6304 122.2C70.6304 121.687 70.4353 121.194 70.0879 120.831C69.7406 120.468 69.2695 120.264 68.7782 120.264Z" fill="white"/>
<path d="M61.5959 124.502C61.1603 124.502 60.7346 124.367 60.3725 124.115C60.0103 123.862 59.7281 123.502 59.5614 123.081C59.3948 122.661 59.3511 122.198 59.4361 121.751C59.5211 121.305 59.7308 120.895 60.0388 120.573C60.3467 120.251 60.7391 120.031 61.1663 119.943C61.5934 119.854 62.0362 119.899 62.4386 120.074C62.8409 120.248 63.1848 120.543 63.4268 120.922C63.6688 121.3 63.7979 121.745 63.7979 122.2C63.7979 122.811 63.5659 123.397 63.153 123.828C62.74 124.26 62.1799 124.502 61.5959 124.502ZM61.5959 120.264C61.2295 120.264 60.8714 120.378 60.5668 120.59C60.2622 120.803 60.0248 121.106 59.8847 121.459C59.7445 121.813 59.7078 122.203 59.7792 122.578C59.8507 122.954 60.0271 123.299 60.2862 123.57C60.5452 123.84 60.8752 124.025 61.2345 124.1C61.5938 124.174 61.9662 124.136 62.3047 123.989C62.6431 123.843 62.9324 123.595 63.1359 123.276C63.3394 122.958 63.4481 122.583 63.4481 122.2C63.4481 121.946 63.4002 121.694 63.3071 121.459C63.214 121.225 63.0776 121.011 62.9056 120.831C62.7336 120.651 62.5294 120.509 62.3047 120.412C62.0799 120.314 61.8391 120.264 61.5959 120.264Z" fill="white"/>
<path d="M189.631 203.079H56.9381C56.2273 203.077 55.5461 202.781 55.0435 202.256C54.5408 201.73 54.2577 201.018 54.2559 200.275V128.109H192.279V200.296C192.274 201.03 191.993 201.733 191.498 202.253C191.003 202.773 190.333 203.07 189.631 203.079Z" fill="#F0F0F0"/>
<path d="M48.3013 138.114C48.3031 137.37 48.5863 136.658 49.0889 136.133C49.5915 135.607 50.2727 135.311 50.9835 135.31H183.649C184.359 135.311 185.04 135.608 185.541 136.133C186.043 136.659 186.324 137.371 186.324 138.114V147.142H48.3013V138.114Z" fill="#FAFAFA"/>
<path d="M69.9721 143.557C69.5366 143.557 69.1108 143.422 68.7487 143.169C68.3866 142.916 68.1043 142.557 67.9376 142.136C67.771 141.715 67.7274 141.253 67.8123 140.806C67.8973 140.359 68.107 139.949 68.415 139.627C68.723 139.305 69.1153 139.086 69.5425 138.997C69.9696 138.909 70.4124 138.954 70.8148 139.128C71.2171 139.303 71.5611 139.598 71.803 139.976C72.045 140.355 72.1741 140.8 72.1741 141.255C72.1741 141.866 71.9421 142.451 71.5292 142.883C71.1162 143.315 70.5561 143.557 69.9721 143.557ZM69.9721 139.319C69.6058 139.319 69.2476 139.432 68.9431 139.645C68.6385 139.858 68.4011 140.16 68.2609 140.514C68.1207 140.868 68.084 141.257 68.1555 141.633C68.2269 142.008 68.4033 142.353 68.6624 142.624C68.9214 142.895 69.2514 143.079 69.6107 143.154C69.97 143.229 70.3424 143.191 70.6809 143.044C71.0193 142.897 71.3086 142.649 71.5121 142.331C71.7156 142.012 71.8243 141.638 71.8243 141.255C71.8326 140.995 71.7908 140.737 71.7014 140.494C71.6121 140.252 71.4769 140.031 71.3041 139.844C71.1313 139.657 70.9243 139.509 70.6954 139.408C70.4666 139.306 70.2206 139.254 69.9721 139.254V139.319Z" fill="#E0E0E0"/>
<path d="M62.7965 143.557C62.361 143.557 61.9353 143.422 61.5731 143.169C61.211 142.916 60.9288 142.557 60.7621 142.136C60.5954 141.715 60.5518 141.253 60.6368 140.806C60.7218 140.359 60.9315 139.949 61.2395 139.627C61.5474 139.305 61.9398 139.086 62.3669 138.997C62.7941 138.909 63.2369 138.954 63.6392 139.128C64.0416 139.303 64.3855 139.598 64.6275 139.976C64.8695 140.355 64.9986 140.8 64.9986 141.255C64.9986 141.866 64.7666 142.451 64.3536 142.883C63.9407 143.315 63.3806 143.557 62.7965 143.557ZM62.7965 139.319C62.4302 139.319 62.0721 139.432 61.7675 139.645C61.4629 139.858 61.2255 140.16 61.0853 140.514C60.9451 140.868 60.9085 141.257 60.9799 141.633C61.0514 142.008 61.2278 142.353 61.4868 142.624C61.7459 142.895 62.0759 143.079 62.4352 143.154C62.7945 143.229 63.1669 143.191 63.5053 143.044C63.8438 142.897 64.1331 142.649 64.3366 142.331C64.5401 142.012 64.6487 141.638 64.6487 141.255C64.657 140.995 64.6152 140.737 64.5259 140.494C64.4365 140.252 64.3014 140.031 64.1286 139.844C63.9557 139.657 63.7487 139.509 63.5199 139.408C63.2911 139.306 63.0451 139.254 62.7965 139.254V139.319Z" fill="#E0E0E0"/>
<path d="M55.6139 143.557C55.1784 143.557 54.7527 143.422 54.3905 143.169C54.0284 142.916 53.7462 142.557 53.5795 142.136C53.4128 141.715 53.3692 141.253 53.4542 140.806C53.5391 140.359 53.7489 139.949 54.0568 139.627C54.3648 139.305 54.7572 139.086 55.1843 138.997C55.6115 138.909 56.0542 138.954 56.4566 139.128C56.859 139.303 57.2029 139.598 57.4449 139.976C57.6868 140.355 57.816 140.8 57.816 141.255C57.816 141.866 57.584 142.451 57.171 142.883C56.7581 143.315 56.1979 143.557 55.6139 143.557ZM55.6139 139.319C55.2476 139.319 54.8895 139.432 54.5849 139.645C54.2803 139.858 54.0429 140.16 53.9027 140.514C53.7625 140.868 53.7259 141.257 53.7973 141.633C53.8688 142.008 54.0452 142.353 54.3042 142.624C54.5633 142.895 54.8933 143.079 55.2526 143.154C55.6119 143.229 55.9843 143.191 56.3227 143.044C56.6612 142.897 56.9505 142.649 57.154 142.331C57.3575 142.012 57.4661 141.638 57.4661 141.255C57.4744 140.995 57.4326 140.737 57.3433 140.494C57.2539 140.252 57.1188 140.031 56.946 139.844C56.7731 139.657 56.5661 139.509 56.3373 139.408C56.1085 139.306 55.8624 139.254 55.6139 139.254V139.319Z" fill="#E0E0E0"/>
<path d="M183.649 236.355H50.9835C50.2727 236.353 49.5915 236.057 49.0889 235.531C48.5863 235.006 48.3031 234.294 48.3013 233.551V147.143H186.324V233.551C186.324 234.293 186.043 235.005 185.541 235.531C185.04 236.056 184.359 236.353 183.649 236.355Z" fill="#F0F0F0"/>
<path d="M93.6115 70.2942H45.2759C44.536 70.2923 43.8269 69.9842 43.3037 69.4372C42.7804 68.8903 42.4857 68.149 42.4839 67.3754C42.4875 66.6032 42.783 65.8637 43.3061 65.3183C43.8291 64.7729 44.5372 64.4658 45.2759 64.4639H93.6252C94.3627 64.4676 95.0691 64.7756 95.5906 65.3208C96.1121 65.866 96.4067 66.6044 96.4103 67.3754C96.4085 68.1502 96.1128 68.8926 95.5881 69.4398C95.0635 69.9869 94.3526 70.2942 93.6115 70.2942Z" fill="#E0E0E0"/>
<path d="M113.691 82.5137L45.4132 82.2268C44.6804 82.2118 43.9825 81.8969 43.4695 81.3498C42.9564 80.8027 42.669 80.0671 42.6692 79.3009C42.6728 78.528 42.9695 77.7882 43.4942 77.2438C44.0189 76.6993 44.7288 76.3946 45.4681 76.3965L113.739 76.6833C114.478 76.689 115.184 76.9998 115.705 77.5479C116.225 78.096 116.517 78.837 116.517 79.6093C116.515 79.9944 116.441 80.3753 116.297 80.7302C116.154 81.085 115.945 81.4066 115.682 81.6766C115.42 81.9466 115.108 82.1596 114.767 82.3032C114.425 82.4469 114.059 82.5184 113.691 82.5137Z" fill="#F0F0F0"/>
<path d="M77.3464 96.0178H45.2759C44.536 96.0159 43.8269 95.7078 43.3037 95.1609C42.7804 94.6139 42.4857 93.8726 42.4839 93.0991C42.4875 92.3268 42.783 91.5873 43.3061 91.0419C43.8291 90.4965 44.5372 90.1894 45.2759 90.1875H77.3601C78.0989 90.1894 78.807 90.4965 79.33 91.0419C79.853 91.5873 80.1485 92.3268 80.1521 93.0991C80.1512 93.4833 80.078 93.8636 79.9365 94.2182C79.795 94.5729 79.5881 94.8949 79.3275 95.1659C79.067 95.437 78.7579 95.6517 78.418 95.7979C78.0781 95.944 77.714 96.0188 77.3464 96.0178Z" fill="#E6E6E6"/>
<path d="M298.986 178.539H284.093C283.531 178.537 282.992 178.303 282.594 177.888C282.196 177.473 281.97 176.911 281.967 176.323C281.97 175.734 282.195 175.171 282.593 174.755C282.991 174.339 283.53 174.103 284.093 174.1H298.986C299.548 174.103 300.087 174.339 300.484 174.755C300.88 175.172 301.104 175.735 301.106 176.323C301.104 176.91 300.88 177.472 300.483 177.888C300.086 178.303 299.548 178.537 298.986 178.539Z" fill="#E0E0E0"/>
<path d="M306.059 183.58H284.086C282.916 183.58 281.967 184.572 281.967 185.796V185.803C281.967 187.027 282.916 188.019 284.086 188.019H306.059C307.23 188.019 308.179 187.027 308.179 185.803V185.796C308.179 184.572 307.23 183.58 306.059 183.58Z" fill="#F0F0F0"/>
<path d="M293.21 198.124H284.093C283.813 198.126 283.535 198.07 283.276 197.959C283.016 197.849 282.78 197.686 282.581 197.481C282.381 197.275 282.223 197.03 282.114 196.76C282.005 196.49 281.948 196.201 281.946 195.908C281.95 195.319 282.175 194.756 282.573 194.34C282.971 193.924 283.51 193.688 284.073 193.685H293.19C293.753 193.686 294.293 193.921 294.691 194.338C295.09 194.754 295.314 195.319 295.316 195.908C295.314 196.492 295.092 197.053 294.698 197.468C294.304 197.882 293.769 198.118 293.21 198.124Z" fill="#E6E6E6"/>
<path d="M299.48 207.597H284.093C283.531 207.595 282.992 207.362 282.594 206.947C282.196 206.532 281.97 205.969 281.967 205.381C281.97 204.793 282.195 204.23 282.593 203.813C282.991 203.397 283.53 203.162 284.093 203.158H299.48C300.042 203.162 300.581 203.398 300.977 203.814C301.374 204.23 301.598 204.794 301.6 205.381C301.598 205.968 301.374 206.531 300.977 206.946C300.58 207.361 300.042 207.595 299.48 207.597Z" fill="#F0F0F0"/>
<path d="M297.038 217.709H284.093C283.531 217.707 282.992 217.473 282.594 217.058C282.196 216.643 281.97 216.08 281.967 215.493C281.97 214.904 282.195 214.341 282.593 213.925C282.991 213.509 283.53 213.273 284.093 213.27H297.038C297.601 213.273 298.14 213.509 298.538 213.925C298.936 214.341 299.161 214.904 299.165 215.493C299.161 216.08 298.936 216.643 298.537 217.058C298.139 217.473 297.6 217.707 297.038 217.709Z" fill="#E6E6E6"/>
<path d="M247.955 190.235H203.687C203.124 190.233 202.585 189.998 202.188 189.581C201.791 189.165 201.567 188.6 201.567 188.012C201.569 187.425 201.793 186.862 202.19 186.447C202.587 186.032 203.126 185.798 203.687 185.796H247.955C248.516 185.798 249.054 186.032 249.452 186.447C249.849 186.862 250.073 187.425 250.074 188.012C250.074 188.6 249.851 189.165 249.454 189.581C249.057 189.998 248.518 190.233 247.955 190.235Z" fill="#E0E0E0"/>
<path d="M265.873 199.709H203.687C203.126 199.707 202.587 199.473 202.19 199.057C201.793 198.642 201.569 198.08 201.567 197.493C201.567 196.904 201.791 196.34 202.188 195.923C202.585 195.506 203.124 195.271 203.687 195.27H265.873C266.436 195.271 266.976 195.506 267.375 195.923C267.773 196.339 267.998 196.904 268 197.493C267.996 198.08 267.771 198.643 267.372 199.058C266.974 199.473 266.435 199.707 265.873 199.709Z" fill="#F0F0F0"/>
<path d="M233.322 209.82H203.687C203.124 209.818 202.585 209.583 202.188 209.166C201.791 208.75 201.567 208.185 201.567 207.597C201.569 207.01 201.793 206.447 202.19 206.032C202.587 205.617 203.126 205.383 203.687 205.381H233.322C233.885 205.383 234.423 205.617 234.822 206.032C235.22 206.446 235.445 207.009 235.449 207.597C235.447 208.186 235.222 208.75 234.824 209.167C234.426 209.583 233.886 209.818 233.322 209.82Z" fill="#E6E6E6"/>
<path d="M249.203 219.294H203.687C203.124 219.292 202.585 219.057 202.188 218.64C201.791 218.223 201.567 217.659 201.567 217.07C201.569 216.483 201.793 215.921 202.19 215.506C202.587 215.09 203.126 214.856 203.687 214.854H249.203C249.766 214.854 250.306 215.088 250.705 215.503C251.103 215.918 251.328 216.482 251.33 217.07C251.33 217.362 251.275 217.651 251.168 217.921C251.061 218.191 250.904 218.436 250.707 218.642C250.509 218.849 250.275 219.013 250.017 219.124C249.759 219.236 249.482 219.294 249.203 219.294Z" fill="#F0F0F0"/>
<path d="M242.933 229.406H203.687C203.124 229.404 202.585 229.169 202.188 228.752C201.791 228.335 201.567 227.771 201.567 227.183C201.569 226.596 201.793 226.033 202.19 225.618C202.587 225.203 203.126 224.969 203.687 224.967H242.933C243.495 224.969 244.033 225.203 244.43 225.618C244.827 226.033 245.051 226.596 245.053 227.183C245.053 227.771 244.83 228.335 244.432 228.752C244.035 229.169 243.496 229.404 242.933 229.406Z" fill="#E6E6E6"/>
<path d="M171.5 334C244.959 334 304.509 330.365 304.509 325.882C304.509 321.398 244.959 317.764 171.5 317.764C98.0414 317.764 38.4915 321.398 38.4915 325.882C38.4915 330.365 98.0414 334 171.5 334Z" fill="#F5F5F5"/>
<path opacity="0.7" d="M240.354 276.787H155.811C153.004 276.804 150.223 276.218 147.64 275.065C145.058 273.913 142.73 272.218 140.801 270.086C138.871 267.953 137.381 265.429 136.423 262.67C135.465 259.911 135.059 256.976 135.231 254.046L142.462 109.787C143.059 97.2801 153.355 87.0465 165.326 87.0465H249.869C252.679 87.0243 255.464 87.6065 258.05 88.7571C260.637 89.9076 262.969 91.6019 264.902 93.7346C266.836 95.8673 268.329 98.3929 269.289 101.154C270.249 103.916 270.655 106.854 270.483 109.787L263.246 254.046C262.622 266.553 252.318 276.787 240.354 276.787Z" fill="#407BFF"/>
<path d="M190.427 78.7344H185.165V79.4515H190.427V78.7344Z" fill="#407BFF"/>
<path d="M180.672 78.7344H162.376V79.4515H180.672V78.7344Z" fill="#407BFF"/>
<path d="M133.323 127.925L133.048 133.36L133.733 133.398L134.008 127.963L133.323 127.925Z" fill="#407BFF"/>
<path opacity="0.6" d="M235.49 271.709H150.92C148.113 271.726 145.332 271.14 142.751 269.988C140.169 268.836 137.841 267.141 135.912 265.01C133.982 262.878 132.492 260.355 131.534 257.597C130.575 254.839 130.169 251.905 130.34 248.975L137.577 104.709C138.202 92.2019 148.505 81.9684 160.469 81.9684H245.005C247.816 81.9461 250.6 82.5284 253.187 83.679C255.773 84.8295 258.105 86.5238 260.038 88.6565C261.972 90.7892 263.465 93.3148 264.425 96.0763C265.385 98.8377 265.792 101.776 265.619 104.709L258.389 248.975C257.758 261.475 247.454 271.709 235.49 271.709Z" fill="#407BFF"/>
<mask id="mask0_24_1314" style="mask-type:luminance" maskUnits="userSpaceOnUse" x="130" y="81" width="136" height="191">
<path d="M235.49 271.709H150.92C148.113 271.726 145.332 271.14 142.751 269.988C140.169 268.836 137.841 267.141 135.912 265.01C133.982 262.878 132.492 260.355 131.534 257.597C130.575 254.839 130.169 251.905 130.34 248.975L137.577 104.709C138.202 92.2019 148.505 81.9684 160.469 81.9684H245.005C247.816 81.9461 250.6 82.5284 253.187 83.679C255.773 84.8295 258.105 86.5238 260.038 88.6565C261.972 90.7892 263.465 93.3148 264.425 96.0763C265.385 98.8377 265.792 101.776 265.619 104.709L258.389 248.975C257.758 261.475 247.454 271.709 235.49 271.709Z" fill="white"/>
</mask>
<g mask="url(#mask0_24_1314)">
<path d="M166.76 251.292C146.66 251.292 128.166 243.11 114.679 228.258C101.192 213.406 94.3047 193.577 95.3611 172.522C96.097 158.549 100.242 145.005 107.4 133.18C114.41 121.589 123.981 111.928 135.307 105.011C135.349 104.993 135.396 104.993 135.437 105.011C135.483 105.024 135.522 105.055 135.547 105.097L142.469 118.901C142.716 118.758 142.963 118.615 143.217 118.478L143.484 118.321C143.526 118.306 143.572 118.306 143.614 118.321C143.637 118.328 143.658 118.339 143.675 118.356C143.693 118.372 143.707 118.392 143.717 118.414L145.611 122.179C145.63 122.22 145.634 122.267 145.622 122.311C145.609 122.356 145.58 122.393 145.542 122.415C127.932 132.706 116.346 151.918 115.317 172.565C114.535 188.041 119.577 202.591 129.51 213.528C134.439 218.943 140.381 223.241 146.966 226.154C153.551 229.067 160.639 230.532 167.789 230.459C167.812 230.459 167.836 230.464 167.857 230.474C167.878 230.484 167.897 230.498 167.912 230.517C167.929 230.533 167.942 230.553 167.951 230.576C167.959 230.598 167.962 230.622 167.961 230.646L166.932 251.156C166.923 251.196 166.902 251.232 166.87 251.258C166.839 251.283 166.799 251.295 166.76 251.292ZM135.321 105.419C112.25 119.547 97.0693 145.249 95.6973 172.536C94.6477 193.498 101.48 213.198 114.905 228.007C128.33 242.816 146.633 250.891 166.582 250.955L167.59 230.811C160.424 230.857 153.325 229.369 146.73 226.439C140.135 223.508 134.184 219.197 129.243 213.772C119.248 202.756 114.151 188.112 114.953 172.543C115.989 151.832 127.576 132.549 145.206 122.179L143.477 118.729L143.354 118.801C143.059 118.966 142.757 119.131 142.469 119.31C142.425 119.329 142.376 119.329 142.332 119.31C142.288 119.296 142.251 119.266 142.229 119.224L135.321 105.419Z" fill="#407BFF"/>
<path d="M171.644 258.772C171.595 258.772 171.548 258.751 171.514 258.715C171.499 258.696 171.488 258.674 171.48 258.651C171.473 258.628 171.471 258.603 171.473 258.579L172.57 236.641C172.574 236.596 172.593 236.554 172.625 236.524C172.657 236.493 172.699 236.476 172.742 236.476C205.43 236.476 233.419 208.673 235.134 174.494C235.137 174.449 235.157 174.407 235.188 174.377C235.22 174.346 235.262 174.329 235.305 174.329H240.299C240.321 174.328 240.344 174.332 240.364 174.34C240.385 174.348 240.404 174.361 240.42 174.377C240.436 174.393 240.449 174.412 240.458 174.434C240.466 174.455 240.471 174.478 240.471 174.501C240.512 176.28 240.471 178.087 240.409 179.844H255.837C255.86 179.843 255.884 179.848 255.905 179.858C255.926 179.868 255.945 179.883 255.961 179.901C255.992 179.942 256.009 179.993 256.009 180.045C253.576 200.691 244.331 219.804 229.865 234.088C214.067 249.772 192.849 258.772 171.644 258.772ZM172.907 236.835L171.823 258.414C192.883 258.363 213.943 249.406 229.625 233.823C243.988 219.648 253.187 200.691 255.645 180.203H240.231C240.205 180.203 240.18 180.196 240.157 180.184C240.134 180.171 240.115 180.153 240.1 180.131C240.083 180.115 240.07 180.095 240.061 180.072C240.053 180.05 240.05 180.026 240.052 180.002C240.141 178.238 240.162 176.416 240.128 174.673H235.463C233.666 208.91 205.649 236.742 172.907 236.835Z" fill="#407BFF"/>
<path d="M240.299 174.688C240.254 174.686 240.212 174.667 240.18 174.633C240.148 174.6 240.129 174.556 240.128 174.509C239.256 138.272 211.316 109.887 176.487 109.887C165.019 109.916 153.736 112.917 143.649 118.622C143.629 118.635 143.607 118.643 143.585 118.646C143.562 118.649 143.539 118.647 143.517 118.64C143.495 118.633 143.475 118.622 143.457 118.606C143.44 118.591 143.425 118.572 143.415 118.55C143.395 118.508 143.391 118.46 143.404 118.414C143.416 118.369 143.445 118.331 143.484 118.307C153.622 112.573 164.961 109.557 176.487 109.529C193.199 109.327 209.309 116.047 221.297 128.221C233.285 140.394 240.178 157.033 240.471 174.501C240.472 174.525 240.468 174.549 240.46 174.571C240.452 174.593 240.441 174.613 240.425 174.63C240.41 174.648 240.392 174.662 240.371 174.672C240.351 174.681 240.328 174.687 240.306 174.688H240.299Z" fill="#407BFF"/>
<path d="M263.973 180.202H255.837C255.792 180.202 255.748 180.184 255.716 180.15C255.684 180.116 255.666 180.071 255.666 180.023C255.666 179.976 255.684 179.93 255.716 179.896C255.748 179.863 255.792 179.844 255.837 179.844H263.808C264.649 163.45 261.269 147.12 254.019 132.556C243.393 111.422 225.262 95.9817 202.96 89.0685C179.238 81.7107 153.987 84.7657 131.836 97.6742L135.547 105.061C135.567 105.104 135.57 105.153 135.556 105.198C135.542 105.244 135.512 105.282 135.472 105.305C135.451 105.316 135.429 105.322 135.406 105.324C135.384 105.326 135.361 105.324 135.339 105.316C135.317 105.309 135.297 105.297 135.28 105.282C135.263 105.266 135.249 105.247 135.238 105.226L131.458 97.6885C131.448 97.6684 131.441 97.6462 131.439 97.6232C131.436 97.6003 131.438 97.5771 131.445 97.555C131.451 97.5329 131.462 97.5124 131.476 97.4947C131.49 97.477 131.507 97.4624 131.527 97.4519C142.578 90.9458 154.776 86.8497 167.384 85.4111C179.367 84.0148 191.496 85.1413 203.056 88.7243C225.447 95.6662 243.654 111.171 254.321 132.391C261.626 147.061 265.02 163.517 264.145 180.03C264.143 180.077 264.124 180.12 264.092 180.152C264.06 180.185 264.017 180.202 263.973 180.202Z" fill="#407BFF"/>
<path d="M142.4 119.31H142.352C142.308 119.296 142.272 119.265 142.249 119.224L135.238 105.254C135.217 105.211 135.214 105.161 135.228 105.116C135.242 105.07 135.273 105.032 135.314 105.01C135.355 104.988 135.402 104.984 135.446 104.999C135.49 105.014 135.526 105.046 135.547 105.089L142.469 118.894C142.716 118.75 142.963 118.607 143.216 118.471L143.484 118.313C143.504 118.302 143.526 118.295 143.549 118.293C143.572 118.291 143.595 118.294 143.616 118.301C143.638 118.309 143.658 118.32 143.676 118.336C143.693 118.351 143.707 118.371 143.717 118.392C143.728 118.412 143.735 118.434 143.737 118.457C143.739 118.48 143.737 118.503 143.731 118.525C143.724 118.547 143.714 118.568 143.7 118.586C143.686 118.603 143.668 118.618 143.649 118.629L143.374 118.786C143.079 118.951 142.777 119.116 142.489 119.295C142.461 119.308 142.43 119.313 142.4 119.31Z" fill="#407BFF"/>
<g opacity="0.3">
<path d="M166.76 251.292C146.66 251.292 128.166 243.11 114.679 228.258C101.192 213.406 94.3047 193.577 95.3611 172.522C96.097 158.549 100.242 145.005 107.4 133.18C114.41 121.589 123.981 111.928 135.307 105.011C135.349 104.993 135.396 104.993 135.437 105.011C135.483 105.024 135.522 105.055 135.547 105.097L142.469 118.901C142.716 118.758 142.963 118.615 143.217 118.478L143.484 118.321C143.526 118.306 143.572 118.306 143.614 118.321C143.637 118.328 143.658 118.339 143.675 118.356C143.693 118.372 143.707 118.392 143.717 118.414L145.611 122.179C145.63 122.22 145.634 122.267 145.622 122.311C145.609 122.356 145.58 122.393 145.542 122.415C127.932 132.706 116.346 151.918 115.317 172.565C114.535 188.041 119.577 202.591 129.51 213.528C134.439 218.943 140.381 223.241 146.966 226.154C153.551 229.067 160.639 230.532 167.789 230.459C167.812 230.459 167.836 230.464 167.857 230.474C167.878 230.484 167.897 230.498 167.912 230.517C167.929 230.533 167.942 230.553 167.951 230.576C167.959 230.598 167.962 230.622 167.961 230.646L166.932 251.156C166.923 251.196 166.902 251.232 166.87 251.258C166.839 251.283 166.799 251.295 166.76 251.292ZM135.321 105.419C112.25 119.547 97.0693 145.249 95.6973 172.536C94.6477 193.498 101.48 213.198 114.905 228.007C128.33 242.816 146.633 250.891 166.582 250.955L167.59 230.811C160.424 230.857 153.325 229.369 146.73 226.439C140.135 223.508 134.184 219.197 129.243 213.772C119.248 202.756 114.151 188.112 114.953 172.543C115.989 151.832 127.576 132.549 145.206 122.179L143.477 118.729L143.354 118.801C143.059 118.966 142.757 119.131 142.469 119.31C142.425 119.329 142.376 119.329 142.332 119.31C142.288 119.296 142.251 119.266 142.229 119.224L135.321 105.419Z" fill="white"/>
<path d="M171.644 258.772C171.595 258.772 171.548 258.751 171.514 258.715C171.499 258.696 171.488 258.674 171.48 258.651C171.473 258.628 171.471 258.603 171.473 258.579L172.57 236.641C172.574 236.596 172.593 236.554 172.625 236.524C172.657 236.493 172.699 236.476 172.742 236.476C205.43 236.476 233.419 208.673 235.134 174.494C235.137 174.449 235.157 174.407 235.188 174.377C235.22 174.346 235.262 174.329 235.305 174.329H240.299C240.321 174.328 240.344 174.332 240.364 174.34C240.385 174.348 240.404 174.361 240.42 174.377C240.436 174.393 240.449 174.412 240.458 174.434C240.466 174.455 240.471 174.478 240.471 174.501C240.512 176.28 240.471 178.087 240.409 179.844H255.837C255.86 179.843 255.884 179.848 255.905 179.858C255.926 179.868 255.945 179.883 255.961 179.901C255.992 179.942 256.009 179.993 256.009 180.045C253.576 200.691 244.331 219.804 229.865 234.088C214.067 249.772 192.849 258.772 171.644 258.772ZM172.907 236.835L171.823 258.414C192.883 258.363 213.943 249.406 229.625 233.823C243.988 219.648 253.187 200.691 255.645 180.203H240.231C240.205 180.203 240.18 180.196 240.157 180.184C240.134 180.171 240.115 180.153 240.1 180.131C240.083 180.115 240.07 180.095 240.061 180.072C240.053 180.05 240.05 180.026 240.052 180.002C240.141 178.238 240.162 176.416 240.128 174.673H235.463C233.666 208.91 205.649 236.742 172.907 236.835Z" fill="white"/>
<path d="M240.299 174.688C240.254 174.686 240.212 174.667 240.18 174.633C240.148 174.6 240.129 174.556 240.128 174.509C239.256 138.272 211.316 109.887 176.487 109.887C165.019 109.916 153.736 112.917 143.649 118.622C143.629 118.635 143.607 118.643 143.585 118.646C143.562 118.649 143.539 118.647 143.517 118.64C143.495 118.633 143.475 118.622 143.457 118.606C143.44 118.591 143.425 118.572 143.415 118.55C143.395 118.508 143.391 118.46 143.404 118.414C143.416 118.369 143.445 118.331 143.484 118.307C153.622 112.573 164.961 109.557 176.487 109.529C193.199 109.327 209.309 116.047 221.297 128.221C233.285 140.394 240.178 157.033 240.471 174.501C240.472 174.525 240.468 174.549 240.46 174.571C240.452 174.593 240.441 174.613 240.425 174.63C240.41 174.648 240.392 174.662 240.371 174.672C240.351 174.681 240.328 174.687 240.306 174.688H240.299Z" fill="white"/>
<path d="M263.973 180.202H255.837C255.792 180.202 255.748 180.184 255.716 180.15C255.684 180.116 255.666 180.071 255.666 180.023C255.666 179.976 255.684 179.93 255.716 179.896C255.748 179.863 255.792 179.844 255.837 179.844H263.808C264.649 163.45 261.269 147.12 254.019 132.556C243.393 111.422 225.262 95.9817 202.96 89.0685C179.238 81.7107 153.987 84.7657 131.836 97.6742L135.547 105.061C135.567 105.104 135.57 105.153 135.556 105.198C135.542 105.244 135.512 105.282 135.472 105.305C135.451 105.316 135.429 105.322 135.406 105.324C135.384 105.326 135.361 105.324 135.339 105.316C135.317 105.309 135.297 105.297 135.28 105.282C135.263 105.266 135.249 105.247 135.238 105.226L131.458 97.6885C131.448 97.6684 131.441 97.6462 131.439 97.6232C131.436 97.6003 131.438 97.5771 131.445 97.555C131.451 97.5329 131.462 97.5124 131.476 97.4947C131.49 97.477 131.507 97.4624 131.527 97.4519C142.578 90.9458 154.776 86.8497 167.384 85.4111C179.367 84.0148 191.496 85.1413 203.056 88.7243C225.447 95.6662 243.654 111.171 254.321 132.391C261.626 147.061 265.02 163.517 264.145 180.03C264.143 180.077 264.124 180.12 264.092 180.152C264.06 180.185 264.017 180.202 263.973 180.202Z" fill="white"/>
<path d="M142.4 119.31H142.352C142.308 119.296 142.272 119.265 142.249 119.224L135.238 105.254C135.217 105.211 135.214 105.161 135.228 105.116C135.242 105.07 135.273 105.032 135.314 105.01C135.355 104.988 135.402 104.984 135.446 104.999C135.49 105.014 135.526 105.046 135.547 105.089L142.469 118.894C142.716 118.75 142.963 118.607 143.216 118.471L143.484 118.313C143.504 118.302 143.526 118.295 143.549 118.293C143.572 118.291 143.595 118.294 143.616 118.301C143.638 118.309 143.658 118.32 143.676 118.336C143.693 118.351 143.707 118.371 143.717 118.392C143.728 118.412 143.735 118.434 143.737 118.457C143.739 118.48 143.737 118.503 143.731 118.525C143.724 118.547 143.714 118.568 143.7 118.586C143.686 118.603 143.668 118.618 143.649 118.629L143.374 118.786C143.079 118.951 142.777 119.116 142.489 119.295C142.461 119.308 142.43 119.313 142.4 119.31Z" fill="white"/>
</g>
</g>
<path d="M172.069 221.502L171.383 234.676C144.705 234.676 124.2 212.057 125.6 184.175C126.54 165.486 137.077 149.157 151.956 140.43L157.691 151.839C152.104 155.079 147.389 159.74 143.983 165.391C140.577 171.042 138.591 177.501 138.208 184.168C137.2 204.786 152.354 221.502 172.069 221.502Z" fill="#407BFF"/>
<path opacity="0.6" d="M172.069 221.502L171.383 234.676C144.705 234.676 124.2 212.057 125.6 184.175C126.54 165.486 137.077 149.157 151.956 140.43L157.691 151.839C152.104 155.079 147.389 159.74 143.983 165.391C140.577 171.042 138.591 177.501 138.208 184.168C137.2 204.786 152.354 221.502 172.069 221.502Z" fill="black"/>
<path d="M228.946 185.444C228.082 199.968 221.993 213.612 211.902 223.636C201.811 233.66 188.465 239.32 174.546 239.481L175.232 225.382C196.326 225.382 214.334 207.496 215.438 185.444H228.946Z" fill="#407BFF"/>
<path opacity="0.3" d="M228.946 185.444C228.082 199.968 221.993 213.612 211.902 223.636C201.811 233.66 188.465 239.32 174.546 239.481L175.232 225.382C196.326 225.382 214.334 207.496 215.438 185.444H228.946Z" fill="black"/>
<path d="M233.878 188.995H218.621C219.87 164.017 201.526 143.815 177.66 143.815C169.97 143.812 162.411 145.895 155.722 149.861L148.787 136.041C177.413 119.275 212.955 129.386 227.553 158.43C232.248 167.84 234.432 178.398 233.878 188.995Z" fill="#FAFAFA"/>
<path d="M232.211 228.781H218.162L216.646 259.03H230.695L232.211 228.781Z" fill="#FAFAFA"/>
<path d="M252.263 218.784H238.214L236.197 259.03H250.246L252.263 218.784Z" fill="#407BFF"/>
<path opacity="0.6" d="M252.263 218.784H238.214L236.197 259.03H250.246L252.263 218.784Z" fill="black"/>
<path d="M271.306 228.781H257.257L255.741 259.03H269.79L271.306 228.781Z" fill="#407BFF"/>
<path opacity="0.3" d="M271.306 228.781H257.257L255.741 259.03H269.79L271.306 228.781Z" fill="black"/>
<path d="M269.66 261.604H216.515L216.55 260.916H269.694L269.66 261.604Z" fill="#263238"/>
<path opacity="0.8" d="M276.842 133.624H215.583L217.394 97.4443H278.66L276.842 133.624Z" fill="#FAFAFA"/>
<path d="M216.687 111.544L215.583 133.624H276.842L278.214 106.208C268.048 106.208 262.018 118.306 249.443 118.306C236.869 118.306 233.419 111.544 216.687 111.544Z" fill="#407BFF"/>
<path opacity="0.1" d="M216.687 111.544L215.583 133.624H276.842L278.214 106.208C268.048 106.208 262.018 118.306 249.443 118.306C236.869 118.306 233.419 111.544 216.687 111.544Z" fill="black"/>
<path d="M216.159 122.099C229.927 122.099 234.873 114.211 242.604 114.211C250.335 114.211 253.717 122.508 263.349 122.508C273.392 122.508 277.755 115.982 277.755 115.982L276.87 133.638H215.61L216.159 122.099Z" fill="#407BFF"/>
<path opacity="0.5" d="M216.159 122.099C229.927 122.099 234.873 114.211 242.604 114.211C250.335 114.211 253.717 122.508 263.349 122.508C273.392 122.508 277.755 115.982 277.755 115.982L276.87 133.638H215.61L216.159 122.099Z" fill="black"/>
<path d="M95.0043 149.868C94.0987 151.137 93.0903 152.55 92.1779 153.934C91.2656 155.318 90.3463 156.731 89.482 158.151C87.7528 160.914 86.2387 163.819 84.9544 166.835L84.728 167.38L84.6182 167.653C84.5691 167.766 84.5434 167.888 84.5428 168.012C84.5252 168.596 84.5875 169.181 84.728 169.747C85.0941 171.257 85.5924 172.729 86.2166 174.143C87.5755 177.241 89.082 180.267 90.7305 183.208L87.7601 185.66C85.2538 183.045 83.0188 180.161 81.0922 177.055C80.0555 175.383 79.1952 173.599 78.5265 171.733C78.1301 170.615 77.8832 169.444 77.7925 168.255C77.7417 167.496 77.7925 166.734 77.9434 165.989C77.9846 165.781 78.0463 165.559 78.1081 165.351L78.2178 165L78.4374 164.282C78.7186 163.343 79.0616 162.461 79.3909 161.564C79.7202 160.668 80.0769 159.807 80.5091 158.968C81.2637 157.254 82.1349 155.627 83.0198 154.02C83.9048 152.414 84.8652 150.865 85.8667 149.352C86.3675 148.591 86.882 147.846 87.4034 147.1C87.9247 146.354 88.4461 145.665 89.0635 144.862L95.0043 149.868Z" fill="#E58A7B"/>
<path d="M89.6535 182.082L93.3373 182.742L90.0651 188.536C90.0651 188.536 87.4994 187.245 87.033 184.743L89.6535 182.082Z" fill="#E58A7B"/>
<path d="M97.316 184.814L94.4005 189.475L90.0649 188.536L93.3372 182.741L97.316 184.814Z" fill="#E58A7B"/>
<path d="M114 121.756C114 122.179 114.212 122.523 114.48 122.523C114.747 122.523 114.96 122.179 114.96 121.756C114.96 121.333 114.747 120.988 114.48 120.988C114.212 120.988 114 121.325 114 121.756Z" fill="#263238"/>
<path d="M114.178 122.523C114.664 123.822 115.317 125.046 116.119 126.159C115.842 126.367 115.524 126.508 115.189 126.574C114.854 126.64 114.509 126.628 114.178 126.539V122.523Z" fill="#DF5753"/>
<path d="M112.559 119.404C112.521 119.405 112.483 119.396 112.449 119.377C112.416 119.358 112.387 119.33 112.367 119.296C112.348 119.27 112.334 119.241 112.326 119.209C112.318 119.177 112.317 119.144 112.322 119.111C112.327 119.079 112.339 119.048 112.356 119.021C112.373 118.993 112.396 118.97 112.422 118.952C112.723 118.711 113.076 118.549 113.45 118.482C113.824 118.415 114.208 118.443 114.569 118.565C114.627 118.59 114.673 118.638 114.697 118.698C114.721 118.759 114.722 118.827 114.699 118.887C114.689 118.918 114.674 118.947 114.653 118.971C114.632 118.995 114.607 119.014 114.578 119.028C114.55 119.041 114.519 119.049 114.488 119.049C114.457 119.05 114.426 119.043 114.397 119.031C114.11 118.939 113.805 118.92 113.509 118.976C113.213 119.033 112.935 119.162 112.696 119.354C112.658 119.387 112.609 119.404 112.559 119.404Z" fill="#263238"/>
<path d="M100.877 126.654C101.604 130.512 102.324 137.569 99.7446 140.144C99.7446 140.144 100.753 144.052 107.606 144.052C115.152 144.052 111.201 140.144 111.201 140.144C107.085 139.118 107.195 135.927 107.915 132.936L100.877 126.654Z" fill="#E58A7B"/>
<path d="M98.784 141.484C98.2421 140.251 97.6521 138.831 98.8801 138.386C100.252 137.899 107.64 137.404 110.192 138.314C110.529 138.412 110.844 138.578 111.118 138.804C111.393 139.03 111.622 139.31 111.793 139.629C111.963 139.948 112.071 140.298 112.111 140.661C112.15 141.024 112.121 141.392 112.024 141.742L98.784 141.484Z" fill="#407BFF"/>
<path d="M82.8896 321.407C82.4468 321.404 82.0054 321.354 81.5725 321.256C81.5503 321.252 81.5298 321.241 81.5138 321.224C81.4978 321.208 81.4872 321.186 81.4833 321.163C81.4788 321.139 81.4809 321.114 81.4894 321.091C81.4979 321.068 81.5124 321.048 81.5313 321.034C81.5931 320.991 82.9856 320.001 83.7197 320.173C83.7984 320.191 83.8725 320.226 83.9366 320.277C84.0007 320.328 84.0531 320.393 84.0901 320.467C84.1489 320.555 84.1804 320.658 84.1804 320.765C84.1804 320.872 84.1489 320.976 84.0901 321.063C83.9218 321.2 83.729 321.302 83.5229 321.361C83.3168 321.42 83.1015 321.436 82.8896 321.407ZM81.9086 321.077C82.6632 321.206 83.6922 321.206 83.9049 320.905C83.9049 320.905 83.9941 320.79 83.9049 320.589C83.8827 320.546 83.8515 320.507 83.8135 320.478C83.7756 320.448 83.7318 320.427 83.6854 320.417C83.0422 320.452 82.4236 320.687 81.9086 321.091V321.077Z" fill="#407BFF"/>
<path d="M81.6341 321.279C81.6141 321.286 81.5924 321.286 81.5724 321.279C81.5534 321.267 81.538 321.25 81.5282 321.23C81.5184 321.21 81.5147 321.186 81.5175 321.164C81.5175 321.099 81.641 319.579 82.2035 319.077C82.2739 319.017 82.355 318.972 82.4422 318.945C82.5293 318.918 82.6208 318.909 82.7112 318.919C82.8019 318.919 82.8898 318.952 82.9598 319.012C83.0299 319.072 83.0778 319.156 83.0953 319.249C83.1982 319.837 82.1898 320.985 81.6684 321.286L81.6341 321.279ZM82.6494 319.127C82.5489 319.129 82.452 319.167 82.375 319.235C82.0242 319.711 81.8165 320.285 81.7782 320.884C82.2996 320.475 82.9444 319.608 82.8827 319.256C82.8827 319.256 82.8827 319.149 82.7043 319.127H82.6494Z" fill="#407BFF"/>
<path d="M113.149 321.407C112.631 321.407 112.114 321.357 111.605 321.256C111.581 321.253 111.558 321.242 111.541 321.224C111.523 321.205 111.512 321.182 111.509 321.156C111.506 321.131 111.509 321.106 111.518 321.083C111.528 321.06 111.544 321.04 111.564 321.027C111.64 320.984 113.403 319.937 114.24 320.173C114.319 320.192 114.393 320.228 114.458 320.278C114.523 320.329 114.577 320.393 114.617 320.467C114.672 320.547 114.701 320.642 114.701 320.74C114.701 320.838 114.672 320.933 114.617 321.013C114.418 321.328 113.794 321.407 113.149 321.407ZM111.99 321.077C112.936 321.213 114.205 321.192 114.439 320.862C114.439 320.819 114.494 320.747 114.439 320.589C114.414 320.545 114.38 320.507 114.34 320.477C114.299 320.448 114.254 320.427 114.205 320.417C113.629 320.274 112.504 320.805 111.99 321.091V321.077Z" fill="#407BFF"/>
<path d="M111.626 321.278C111.604 321.286 111.58 321.286 111.557 321.278C111.54 321.266 111.527 321.248 111.518 321.228C111.51 321.208 111.507 321.186 111.509 321.164C111.554 320.417 111.828 319.705 112.291 319.134C112.383 319.048 112.493 318.983 112.611 318.946C112.73 318.909 112.855 318.9 112.977 318.919C113.307 318.955 113.403 319.127 113.423 319.27C113.512 319.866 112.312 321.006 111.701 321.286L111.626 321.278ZM112.854 319.127C112.701 319.125 112.554 319.184 112.442 319.292C112.056 319.743 111.815 320.31 111.756 320.913C112.374 320.525 113.197 319.629 113.128 319.27C113.128 319.27 113.128 319.156 112.895 319.127H112.854Z" fill="#407BFF"/>
<path d="M106.083 321.149H111.125L111.626 308.95H106.584L106.083 321.149Z" fill="#E58A7B"/>
<path d="M75.8237 321.149H80.8658L83.3972 308.95H78.3619L75.8237 321.149Z" fill="#E58A7B"/>
<path d="M81.2226 320.539H75.5631C75.462 320.54 75.3643 320.576 75.2857 320.643C75.2072 320.709 75.1526 320.802 75.1309 320.905L74.1362 325.588C74.1135 325.702 74.1156 325.82 74.1425 325.933C74.1694 326.046 74.2204 326.151 74.2916 326.241C74.3628 326.33 74.4524 326.402 74.5538 326.45C74.6552 326.499 74.7657 326.522 74.8771 326.52C76.8527 326.484 77.8131 326.362 80.3033 326.362C81.8331 326.362 84.9887 326.534 87.1084 326.534C89.2282 326.534 89.4957 324.383 88.6314 324.146C84.7486 323.257 83.2874 322.031 82.0389 320.869C81.8165 320.655 81.5248 320.537 81.2226 320.539Z" fill="#263238"/>
<path d="M111.091 320.539H105.603C105.502 320.54 105.404 320.576 105.326 320.643C105.247 320.709 105.193 320.802 105.171 320.905L104.176 325.588C104.152 325.701 104.153 325.818 104.179 325.93C104.205 326.043 104.254 326.148 104.324 326.238C104.394 326.327 104.482 326.399 104.583 326.448C104.683 326.497 104.793 326.522 104.903 326.52C106.886 326.484 109.753 326.362 112.25 326.362C115.166 326.362 117.69 326.534 121.107 326.534C123.165 326.534 123.755 324.383 122.89 324.146C118.946 323.243 115.728 323.149 112.319 320.955C111.956 320.697 111.53 320.553 111.091 320.539Z" fill="#263238"/>
<path d="M117.752 143.148C120.702 144.669 123.768 146.225 126.793 147.681C129.819 149.137 132.878 150.549 135.917 151.761L137.049 152.184L137.337 152.292H137.406C137.406 152.292 137.406 152.292 137.44 152.328C137.851 152.372 138.265 152.321 138.654 152.177C140.019 151.701 141.323 151.054 142.537 150.248C145.31 148.428 147.974 146.433 150.515 144.274L153.294 146.956C151.177 150.018 148.715 152.801 145.96 155.247C144.449 156.611 142.758 157.741 140.939 158.603C139.747 159.167 138.454 159.46 137.145 159.463C136.731 159.455 136.317 159.41 135.91 159.327L135.581 159.248L135.355 159.184L135.025 159.09L133.708 158.71C130.313 157.648 126.978 156.383 123.72 154.924C120.482 153.49 117.368 151.955 114.219 150.212L117.752 143.148Z" fill="#E58A7B"/>
<path d="M90.7236 141.334C85.997 142.467 80.5776 155.928 80.5776 155.928L90.065 162.726C92.4267 159.189 94.523 155.465 96.3351 151.589C99.1339 145.429 95.553 140.18 90.7236 141.334Z" fill="#263238"/>
<path d="M94.1056 149.918L89.6191 162.403L90.065 162.726C90.065 162.726 92.0064 159.857 94.1056 156.035V149.918Z" fill="#407BFF"/>
<path opacity="0.8" d="M94.1056 149.918L89.6191 162.403L90.065 162.726C90.065 162.726 92.0064 159.857 94.1056 156.035V149.918Z" fill="black"/>
<path d="M118.953 141.607C118.953 141.607 124.317 147.939 119.254 187.145H92.2946C92.1093 182.842 94.7093 161.715 90.7236 141.334C93.7029 140.735 96.7162 140.337 99.7445 140.144C103.56 139.914 107.385 139.914 111.201 140.144C113.817 140.42 116.409 140.909 118.953 141.607Z" fill="#263238"/>
<path d="M121.312 153.669L114.83 152.234C114.926 152.356 118.946 157.627 121.408 160.905C121.456 158.108 121.422 155.748 121.312 153.669Z" fill="#407BFF"/>
<path opacity="0.8" d="M121.312 153.669L114.83 152.234C114.926 152.356 118.946 157.627 121.408 160.905C121.456 158.108 121.422 155.748 121.312 153.669Z" fill="black"/>
<path d="M110.501 148.62C111.983 153.41 126.965 158.66 126.965 158.66L131.424 147.608C127.664 145.225 123.672 143.268 119.515 141.771C113.437 139.749 108.868 143.363 110.501 148.62Z" fill="#263238"/>
<path d="M150.09 144.991L151.565 139.648L157.43 142.424C157.43 142.424 156.134 146.569 152.587 147.558L150.09 144.991Z" fill="#E58A7B"/>
<path d="M155.077 135.195L159.063 139.305L157.43 142.395L151.565 139.62L155.077 135.195Z" fill="#E58A7B"/>
<path d="M111.626 308.958L111.365 315.24H106.323L106.584 308.958H111.626Z" fill="#CF6F64"/>
<path d="M78.3552 308.958H83.3973L82.0939 315.24H77.0518L78.3552 308.958Z" fill="#CF6F64"/>
<path d="M100.444 120.853C100.746 126.074 100.671 129.143 103.188 131.825C106.982 135.855 113.142 133.46 114.336 128.239C115.406 123.549 114.727 115.804 109.836 113.724C108.76 113.262 107.589 113.095 106.434 113.24C105.279 113.384 104.179 113.835 103.238 114.55C102.296 115.264 101.546 116.218 101.057 117.321C100.568 118.425 100.357 119.64 100.444 120.853Z" fill="#E58A7B"/>
<path d="M110.144 117.382C113.91 118.543 117.066 112.957 116.483 116.908C115.9 120.86 120.009 120.429 120.009 120.429C120.009 120.429 116.785 119.153 120.619 115.825C125.305 111.759 118.651 109.264 115.735 111.472C111.811 114.456 111.043 109.192 105.987 107.779C102.557 106.832 98.3381 109.084 98.2627 111.673C98.1666 114.836 95.5667 112.29 95.3746 116.994C95.2443 120.064 98.7429 130.182 102.516 130.527C108.196 131.05 110.103 123.52 110.144 117.382Z" fill="#263238"/>
<path d="M107.181 122.373C107.45 123.647 108.116 124.792 109.074 125.628C110.343 126.704 111.358 125.743 111.331 124.194C111.297 122.796 110.604 120.551 109.177 120.078C107.75 119.604 106.858 120.845 107.181 122.373Z" fill="#E58A7B"/>
<path d="M99.3603 114.614C98.745 113.638 98.372 112.517 98.275 111.353C98.178 110.188 98.36 109.017 98.8046 107.944C98.8046 107.944 93.4401 112.168 99.3603 114.614Z" fill="#263238"/>
<path d="M95.0659 114.097C95.5977 113.862 96.1776 113.771 96.752 113.832C97.3264 113.893 97.8767 114.105 98.3519 114.448C98.3519 114.448 96.8289 111.2 95.0659 114.097Z" fill="#263238"/>
<path d="M109.692 187.145C109.692 187.145 103.97 227.405 100.842 242.522C97.4121 259.016 84.4536 314.064 84.4536 314.064H75.2063C75.2063 314.064 83.7539 260.336 85.7501 243.957C87.8767 226.207 92.3289 187.116 92.3289 187.116L109.692 187.145Z" fill="#407BFF"/>
<path d="M85.9148 310.471C85.9559 310.471 84.9612 314.178 84.9612 314.178H74.5752L74.7673 310.872L85.9148 310.471Z" fill="#407BFF"/>
<path opacity="0.2" d="M85.9148 310.471C85.9559 310.471 84.9612 314.178 84.9612 314.178H74.5752L74.7673 310.872L85.9148 310.471Z" fill="black"/>
<path d="M106.076 201.488C99.4634 202.843 100.163 228.624 100.959 241.884C102.9 232.482 105.644 214.475 107.565 201.646C107.1 201.417 106.575 201.362 106.076 201.488Z" fill="#407BFF"/>
<path opacity="0.2" d="M106.076 201.488C99.4634 202.843 100.163 228.624 100.959 241.884C102.9 232.482 105.644 214.475 107.565 201.646C107.1 201.417 106.575 201.362 106.076 201.488Z" fill="black"/>
<path d="M119.254 187.145C119.254 187.145 119.94 226.53 119.399 242.601C118.829 259.31 113.225 314.028 113.225 314.028H104.711C104.711 314.028 104.396 260.285 104.025 243.877C103.614 225.985 101.549 187.145 101.549 187.145H119.254Z" fill="#407BFF"/>
<path d="M111.468 307.617C111.445 307.613 111.424 307.601 111.409 307.583C111.394 307.564 111.386 307.541 111.386 307.516C112.895 292.37 116.442 255.732 116.874 242.594C117.334 229.133 116.915 199.071 116.778 190.171C116.778 190.16 116.78 190.149 116.784 190.138C116.788 190.128 116.794 190.118 116.802 190.11C116.81 190.102 116.819 190.096 116.829 190.092C116.839 190.087 116.849 190.085 116.86 190.085C116.883 190.085 116.904 190.094 116.921 190.11C116.938 190.126 116.948 190.148 116.949 190.171C117.087 199.064 117.505 229.133 117.045 242.601C116.6 255.746 113.053 292.392 111.557 307.538C111.557 307.549 111.554 307.56 111.549 307.57C111.544 307.58 111.537 307.589 111.529 307.597C111.52 307.604 111.511 307.609 111.5 307.613C111.49 307.616 111.479 307.618 111.468 307.617Z" fill="#407BFF"/>
<path opacity="0.2" d="M111.468 307.617C111.445 307.613 111.424 307.601 111.409 307.583C111.394 307.564 111.386 307.541 111.386 307.516C112.895 292.37 116.442 255.732 116.874 242.594C117.334 229.133 116.915 199.071 116.778 190.171C116.778 190.16 116.78 190.149 116.784 190.138C116.788 190.128 116.794 190.118 116.802 190.11C116.81 190.102 116.819 190.096 116.829 190.092C116.839 190.087 116.849 190.085 116.86 190.085C116.883 190.085 116.904 190.094 116.921 190.11C116.938 190.126 116.948 190.148 116.949 190.171C117.087 199.064 117.505 229.133 117.045 242.601C116.6 255.746 113.053 292.392 111.557 307.538C111.557 307.549 111.554 307.56 111.549 307.57C111.544 307.58 111.537 307.589 111.529 307.597C111.52 307.604 111.511 307.609 111.5 307.613C111.49 307.616 111.479 307.618 111.468 307.617Z" fill="black"/>
<path d="M114.885 310.471C114.926 310.471 114.404 314.178 114.404 314.178H104.018L103.737 310.872L114.885 310.471Z" fill="#407BFF"/>
<path opacity="0.2" d="M114.885 310.471C114.926 310.471 114.404 314.178 114.404 314.178H104.018L103.737 310.872L114.885 310.471Z" fill="black"/>
</svg>
