<svg width="343" height="273" viewBox="0 0 343 273" fill="none" xmlns="http://www.w3.org/2000/svg">
<path d="M343 240.614H0V240.793H343V240.614Z" fill="#E0E0E0"/>
<path d="M54.7634 251.858H35.9875V252.037H54.7634V251.858Z" fill="#E0E0E0"/>
<path d="M65.2455 251.858H59.2842V252.037H65.2455V251.858Z" fill="#E0E0E0"/>
<path d="M171.5 249.385H158.219V249.563H171.5V249.385Z" fill="#E0E0E0"/>
<path d="M286.721 249.291H257.092V249.47H286.721V249.291Z" fill="#E0E0E0"/>
<path d="M297.175 249.291H292.833V249.47H297.175V249.291Z" fill="#E0E0E0"/>
<path d="M233.7 245.046H169.435V245.225H233.7V245.046Z" fill="#E0E0E0"/>
<path d="M162.582 208.63H30.1221C29.0844 208.628 28.0899 208.196 27.3568 207.428C26.6237 206.66 26.2119 205.62 26.2119 204.535V9.88224C26.2209 8.80368 26.6367 7.77241 27.3688 7.01241C28.1009 6.25242 29.0903 5.82509 30.1221 5.82324H162.582C163.621 5.82324 164.617 6.25466 165.352 7.0226C166.086 7.79053 166.499 8.83207 166.499 9.9181V204.535C166.499 205.621 166.086 206.663 165.352 207.43C164.617 208.198 163.621 208.63 162.582 208.63ZM30.1221 5.96667C29.1299 5.96857 28.179 6.38194 27.478 7.11605C26.7771 7.85015 26.3834 8.84501 26.3834 9.88224V204.535C26.3834 205.572 26.7771 206.567 27.478 207.301C28.179 208.035 29.1299 208.449 30.1221 208.45H162.582C163.575 208.449 164.526 208.035 165.228 207.302C165.93 206.568 166.326 205.573 166.327 204.535V9.88224C166.326 8.84435 165.93 7.84951 165.228 7.11561C164.526 6.38171 163.575 5.96857 162.582 5.96667H30.1221Z" fill="#E0E0E0"/>
<path d="M310.971 208.63H178.504C177.466 208.628 176.47 208.196 175.736 207.428C175.002 206.661 174.589 205.62 174.587 204.535V9.88224C174.598 8.80303 175.015 7.77176 175.748 7.01196C176.481 6.25217 177.472 5.82507 178.504 5.82324H310.971C312.001 5.82697 312.989 6.25514 313.719 7.01493C314.45 7.77472 314.865 8.80492 314.874 9.88224V204.535C314.874 205.618 314.463 206.658 313.731 207.425C313 208.193 312.007 208.626 310.971 208.63ZM178.504 5.96667C177.511 5.96857 176.559 6.38171 175.857 7.11561C175.155 7.84951 174.76 8.84435 174.758 9.88224V204.535C174.76 205.573 175.155 206.568 175.857 207.302C176.559 208.035 177.511 208.449 178.504 208.45H310.971C311.963 208.449 312.915 208.035 313.617 207.302C314.319 206.568 314.714 205.573 314.716 204.535V9.88224C314.714 8.84435 314.319 7.84951 313.617 7.11561C312.915 6.38171 311.963 5.96857 310.971 5.96667H178.504Z" fill="#E0E0E0"/>
<path d="M214.183 2.95461C214.185 2.17158 214.483 1.42116 215.013 0.867476C215.542 0.31379 216.26 0.00189367 217.009 0H305.044C305.793 0.00189367 306.51 0.31379 307.04 0.867476C307.57 1.42116 307.868 2.17158 307.87 2.95461V12.4423H214.183V2.95461Z" fill="#E0E0E0"/>
<path d="M234.893 6.21077C234.892 6.6536 235.016 7.08689 235.251 7.45579C235.485 7.82468 235.819 8.11258 236.21 8.28302C236.601 8.45347 237.031 8.49881 237.447 8.41329C237.863 8.32776 238.245 8.11523 238.545 7.80261C238.845 7.48998 239.049 7.09131 239.132 6.65709C239.215 6.22287 239.173 5.77262 239.012 5.36336C238.85 4.9541 238.576 4.60423 238.223 4.35805C237.871 4.11188 237.457 3.98047 237.034 3.98047C236.467 3.98047 235.924 4.21521 235.523 4.63327C235.121 5.05133 234.895 5.6186 234.893 6.21077Z" fill="white"/>
<path d="M227.32 6.21077C227.318 6.6536 227.443 7.08689 227.677 7.45579C227.912 7.82468 228.245 8.11258 228.636 8.28302C229.027 8.45347 229.458 8.49881 229.873 8.41329C230.289 8.32776 230.671 8.11523 230.971 7.80261C231.271 7.48998 231.476 7.09131 231.559 6.65709C231.642 6.22287 231.6 5.77262 231.438 5.36336C231.276 4.9541 231.002 4.60423 230.65 4.35805C230.298 4.11188 229.884 3.98047 229.46 3.98047C228.894 3.98047 228.35 4.21521 227.949 4.63327C227.548 5.05133 227.322 5.6186 227.32 6.21077Z" fill="white"/>
<path d="M219.746 6.21077C219.745 6.6536 219.869 7.08689 220.104 7.45579C220.338 7.82468 220.672 8.11258 221.063 8.28302C221.454 8.45347 221.884 8.49881 222.3 8.41329C222.716 8.32776 223.098 8.11523 223.398 7.80261C223.698 7.48998 223.902 7.09131 223.985 6.65709C224.069 6.22287 224.027 5.77262 223.865 5.36336C223.703 4.9541 223.429 4.60423 223.076 4.35805C222.724 4.11188 222.31 3.98047 221.887 3.98047C221.32 3.98047 220.777 4.21521 220.376 4.63327C219.974 5.05133 219.748 5.6186 219.746 6.21077Z" fill="white"/>
<path d="M305.044 76.4971H217.009C216.26 76.4952 215.543 76.1833 215.013 75.6297C214.483 75.076 214.185 74.3255 214.183 73.5425V12.4424H307.87V73.5425C307.868 74.3255 307.57 75.076 307.04 75.6297C306.511 76.1833 305.793 76.4952 305.044 76.4971Z" fill="#F0F0F0"/>
<path d="M207.858 12.8228C207.86 12.0397 208.158 11.2893 208.688 10.7356C209.217 10.182 209.935 9.87006 210.684 9.86816H298.739C299.488 9.87006 300.206 10.182 300.736 10.7356C301.265 11.2893 301.564 12.0397 301.566 12.8228V22.3177H207.858V12.8228Z" fill="#F0F0F0"/>
<path d="M228.589 16.0995C228.588 16.5426 228.712 16.9762 228.947 17.3452C229.181 17.7143 229.516 18.0022 229.907 18.1724C230.298 18.3426 230.729 18.3875 231.145 18.3014C231.561 18.2153 231.943 18.0021 232.243 17.6887C232.542 17.3754 232.746 16.9761 232.829 16.5414C232.911 16.1067 232.868 15.6562 232.705 15.2471C232.542 14.8379 232.267 14.4886 231.914 14.2432C231.561 13.9979 231.146 13.8677 230.722 13.8692C230.157 13.871 229.615 14.1066 229.216 14.5245C228.816 14.9423 228.591 15.5085 228.589 16.0995Z" fill="#E0E0E0"/>
<path d="M221.016 16.0994C221.014 16.5423 221.139 16.9756 221.373 17.3445C221.607 17.7133 221.941 18.0012 222.332 18.1717C222.723 18.3421 223.154 18.3875 223.569 18.302C223.985 18.2164 224.367 18.0039 224.667 17.6913C224.967 17.3786 225.171 16.98 225.255 16.5458C225.338 16.1115 225.296 15.6613 225.134 15.252C224.972 14.8428 224.698 14.4929 224.346 14.2467C223.994 14.0006 223.58 13.8691 223.156 13.8691C222.589 13.8691 222.046 14.1039 221.645 14.5219C221.244 14.94 221.017 15.5073 221.016 16.0994Z" fill="#E0E0E0"/>
<path d="M213.442 16.0994C213.441 16.5423 213.565 16.9756 213.799 17.3445C214.034 17.7133 214.367 18.0012 214.758 18.1717C215.149 18.3421 215.58 18.3875 215.996 18.302C216.411 18.2164 216.793 18.0039 217.093 17.6913C217.393 17.3786 217.598 16.98 217.681 16.5458C217.764 16.1115 217.722 15.6613 217.56 15.252C217.398 14.8428 217.124 14.4929 216.772 14.2467C216.42 14.0006 216.006 13.8691 215.582 13.8691C215.016 13.8691 214.472 14.1039 214.071 14.5219C213.67 14.94 213.444 15.5073 213.442 16.0994Z" fill="#E0E0E0"/>
<path d="M298.739 86.3865H210.698C209.949 86.3846 209.231 86.0727 208.702 85.519C208.172 84.9653 207.874 84.2149 207.872 83.4319V22.3174H301.566V83.4175C301.567 83.8065 301.494 84.1918 301.353 84.5515C301.211 84.9112 301.003 85.2382 300.741 85.5139C300.478 85.7896 300.166 86.0086 299.823 86.1583C299.48 86.308 299.111 86.3855 298.739 86.3865Z" fill="#FAFAFA"/>
<path d="M201.567 22.7116C201.568 22.3208 201.643 21.9341 201.788 21.5737C201.932 21.2133 202.143 20.8864 202.409 20.6117C202.675 20.3371 202.99 20.1202 203.337 19.9735C203.683 19.8268 204.054 19.7532 204.428 19.757H292.435C293.184 19.7589 293.902 20.0708 294.431 20.6244C294.961 21.1781 295.259 21.9286 295.261 22.7116V32.2208H201.567V22.7116Z" fill="#FAFAFA"/>
<path d="M222.264 25.9895C222.264 26.4314 222.389 26.8634 222.624 27.231C222.858 27.5987 223.192 27.8855 223.582 28.0552C223.972 28.225 224.402 28.2701 224.817 28.1849C225.232 28.0998 225.613 27.8881 225.913 27.5766C226.213 27.2651 226.418 26.8678 226.502 26.4347C226.586 26.0016 226.545 25.5522 226.386 25.1431C226.226 24.734 225.953 24.3836 225.603 24.136C225.253 23.8885 224.841 23.7548 224.418 23.752C224.136 23.7501 223.856 23.8066 223.595 23.9182C223.333 24.0298 223.096 24.1943 222.896 24.4022C222.695 24.6102 222.537 24.8575 222.428 25.1299C222.32 25.4023 222.264 25.6944 222.264 25.9895Z" fill="#F0F0F0"/>
<path d="M214.718 25.9895C214.718 26.4326 214.844 26.8658 215.08 27.234C215.315 27.6023 215.651 27.889 216.042 28.058C216.434 28.2269 216.865 28.2703 217.281 28.1828C217.697 28.0953 218.078 27.8808 218.377 27.5665C218.675 27.2521 218.878 26.8521 218.959 26.4171C219.04 25.9822 218.996 25.5318 218.832 25.1232C218.668 24.7147 218.391 24.3662 218.037 24.1221C217.684 23.878 217.269 23.7492 216.845 23.752C216.279 23.7558 215.738 23.9932 215.34 24.4124C214.942 24.8316 214.718 25.3985 214.718 25.9895Z" fill="#F0F0F0"/>
<path d="M209.271 28.2269C210.453 28.2269 211.411 27.2251 211.411 25.9894C211.411 24.7537 210.453 23.752 209.271 23.752C208.089 23.752 207.131 24.7537 207.131 25.9894C207.131 27.2251 208.089 28.2269 209.271 28.2269Z" fill="#F0F0F0"/>
<path d="M292.435 96.2755H204.428C203.679 96.2736 202.961 95.9617 202.431 95.408C201.902 94.8543 201.603 94.1039 201.602 93.3208V32.2207H295.261V93.3137C295.261 94.0979 294.964 94.8502 294.434 95.4054C293.904 95.9607 293.185 96.2736 292.435 96.2755Z" fill="#E0E0E0"/>
<path d="M54.2832 58.0882C54.2886 57.3532 54.5698 56.6498 55.0663 56.1294C55.5628 55.609 56.235 55.3132 56.938 55.3057H189.631C190.34 55.3076 191.019 55.6028 191.521 56.1269C192.022 56.651 192.305 57.3613 192.306 58.1025V67.1241H54.2832V58.0882Z" fill="#E0E0E0"/>
<path d="M75.9609 63.5025C75.5253 63.5025 75.0996 63.3675 74.7374 63.1145C74.3753 62.8616 74.0931 62.502 73.9264 62.0814C73.7597 61.6607 73.7161 61.1979 73.8011 60.7514C73.8861 60.3048 74.0958 59.8946 74.4038 59.5727C74.7117 59.2507 75.1041 59.0315 75.5312 58.9427C75.9584 58.8538 76.4012 58.8994 76.8035 59.0737C77.2059 59.2479 77.5498 59.543 77.7918 59.9215C78.0338 60.3001 78.1629 60.7452 78.1629 61.2004C78.1629 61.811 77.9309 62.3965 77.5179 62.8282C77.105 63.2599 76.5449 63.5025 75.9609 63.5025ZM75.9609 59.2642C75.5942 59.2628 75.2355 59.3751 74.93 59.587C74.6245 59.7989 74.386 60.1008 74.2448 60.4545C74.1035 60.8082 74.0659 61.1977 74.1365 61.5738C74.2072 61.9498 74.3831 62.2955 74.6419 62.567C74.9006 62.8386 75.2306 63.0237 75.5901 63.099C75.9496 63.1743 76.3224 63.1363 76.6612 62.99C77 62.8437 77.2897 62.5955 77.4936 62.2769C77.6974 61.9583 77.8062 61.5837 77.8062 61.2004C77.8062 60.6882 77.612 60.1967 77.2661 59.8338C76.9202 59.4709 76.4509 59.2661 75.9609 59.2642Z" fill="white"/>
<path d="M68.7782 63.5025C68.3427 63.5025 67.917 63.3675 67.5548 63.1145C67.1927 62.8616 66.9105 62.502 66.7438 62.0814C66.5771 61.6607 66.5335 61.1979 66.6185 60.7514C66.7035 60.3048 66.9132 59.8946 67.2211 59.5727C67.5291 59.2507 67.9215 59.0315 68.3486 58.9427C68.7758 58.8538 69.2185 58.8994 69.6209 59.0737C70.0233 59.2479 70.3672 59.543 70.6092 59.9215C70.8511 60.3001 70.9803 60.7452 70.9803 61.2004C70.9803 61.811 70.7483 62.3965 70.3353 62.8282C69.9224 63.2599 69.3623 63.5025 68.7782 63.5025ZM68.7782 59.2642C68.4119 59.2642 68.0538 59.3777 67.7492 59.5905C67.4446 59.8033 67.2072 60.1057 67.067 60.4595C66.9268 60.8133 66.8902 61.2026 66.9616 61.5782C67.0331 61.9538 67.2095 62.2988 67.4685 62.5696C67.7276 62.8404 68.0576 63.0248 68.4169 63.0995C68.7762 63.1742 69.1486 63.1359 69.487 62.9893C69.8255 62.8428 70.1148 62.5946 70.3183 62.2762C70.5218 61.9578 70.6304 61.5834 70.6304 61.2004C70.6304 60.6869 70.4353 60.1944 70.0879 59.8313C69.7406 59.4682 69.2695 59.2642 68.7782 59.2642Z" fill="white"/>
<path d="M61.5959 63.5025C61.1603 63.5025 60.7346 63.3675 60.3725 63.1145C60.0103 62.8616 59.7281 62.502 59.5614 62.0814C59.3948 61.6607 59.3511 61.1979 59.4361 60.7514C59.5211 60.3048 59.7308 59.8946 60.0388 59.5727C60.3467 59.2507 60.7391 59.0315 61.1663 58.9427C61.5934 58.8538 62.0362 58.8994 62.4386 59.0737C62.8409 59.2479 63.1848 59.543 63.4268 59.9215C63.6688 60.3001 63.7979 60.7452 63.7979 61.2004C63.7979 61.811 63.5659 62.3965 63.153 62.8282C62.74 63.2599 62.1799 63.5025 61.5959 63.5025ZM61.5959 59.2642C61.2295 59.2642 60.8714 59.3777 60.5668 59.5905C60.2622 59.8033 60.0248 60.1057 59.8847 60.4595C59.7445 60.8133 59.7078 61.2026 59.7792 61.5782C59.8507 61.9538 60.0271 62.2988 60.2862 62.5696C60.5452 62.8404 60.8752 63.0248 61.2345 63.0995C61.5938 63.1742 61.9662 63.1359 62.3047 62.9893C62.6431 62.8428 62.9324 62.5946 63.1359 62.2762C63.3394 61.9578 63.4481 61.5834 63.4481 61.2004C63.4481 60.9462 63.4002 60.6944 63.3071 60.4595C63.214 60.2245 63.0776 60.0111 62.9056 59.8313C62.7336 59.6515 62.5294 59.5089 62.3047 59.4116C62.0799 59.3143 61.8391 59.2642 61.5959 59.2642Z" fill="white"/>
<path d="M189.631 142.079H56.9381C56.2273 142.077 55.5461 141.781 55.0435 141.256C54.5408 140.73 54.2577 140.018 54.2559 139.275V67.1094H192.279V139.296C192.274 140.03 191.993 140.733 191.498 141.253C191.003 141.773 190.333 142.07 189.631 142.079Z" fill="#F0F0F0"/>
<path d="M48.3013 77.1136C48.3031 76.3705 48.5863 75.6584 49.0889 75.1329C49.5915 74.6075 50.2727 74.3115 50.9835 74.3096H183.649C184.359 74.3115 185.04 74.6077 185.541 75.1334C186.043 75.659 186.324 76.3712 186.324 77.1136V86.1423H48.3013V77.1136Z" fill="#FAFAFA"/>
<path d="M69.9721 82.5572C69.5366 82.5572 69.1108 82.4221 68.7487 82.1692C68.3866 81.9162 68.1043 81.5567 67.9376 81.1361C67.771 80.7154 67.7274 80.2526 67.8123 79.806C67.8973 79.3595 68.107 78.9493 68.415 78.6274C68.723 78.3054 69.1153 78.0862 69.5425 77.9974C69.9696 77.9085 70.4124 77.9541 70.8148 78.1284C71.2171 78.3026 71.5611 78.5976 71.803 78.9762C72.045 79.3548 72.1741 79.7998 72.1741 80.2551C72.1741 80.8657 71.9421 81.4512 71.5292 81.8829C71.1162 82.3146 70.5561 82.5572 69.9721 82.5572ZM69.9721 78.3189C69.6058 78.3189 69.2476 78.4324 68.9431 78.6452C68.6385 78.8579 68.4011 79.1604 68.2609 79.5142C68.1207 79.868 68.084 80.2573 68.1555 80.6329C68.2269 81.0085 68.4033 81.3535 68.6624 81.6243C68.9214 81.8951 69.2514 82.0795 69.6107 82.1542C69.97 82.2289 70.3424 82.1906 70.6809 82.044C71.0193 81.8975 71.3086 81.6493 71.5121 81.3309C71.7156 81.0125 71.8243 80.6381 71.8243 80.2551C71.8326 79.9955 71.7908 79.7367 71.7014 79.4943C71.6121 79.2519 71.4769 79.0308 71.3041 78.8441C71.1313 78.6574 70.9243 78.509 70.6954 78.4076C70.4666 78.3063 70.2206 78.2542 69.9721 78.2543V78.3189Z" fill="#E0E0E0"/>
<path d="M62.7965 82.5572C62.361 82.5572 61.9353 82.4221 61.5731 82.1692C61.211 81.9162 60.9288 81.5567 60.7621 81.1361C60.5954 80.7154 60.5518 80.2526 60.6368 79.806C60.7218 79.3595 60.9315 78.9493 61.2395 78.6274C61.5474 78.3054 61.9398 78.0862 62.3669 77.9974C62.7941 77.9085 63.2369 77.9541 63.6392 78.1284C64.0416 78.3026 64.3855 78.5976 64.6275 78.9762C64.8695 79.3548 64.9986 79.7998 64.9986 80.2551C64.9986 80.8657 64.7666 81.4512 64.3536 81.8829C63.9407 82.3146 63.3806 82.5572 62.7965 82.5572ZM62.7965 78.3189C62.4302 78.3189 62.0721 78.4324 61.7675 78.6452C61.4629 78.8579 61.2255 79.1604 61.0853 79.5142C60.9451 79.868 60.9085 80.2573 60.9799 80.6329C61.0514 81.0085 61.2278 81.3535 61.4868 81.6243C61.7459 81.8951 62.0759 82.0795 62.4352 82.1542C62.7945 82.2289 63.1669 82.1906 63.5053 82.044C63.8438 81.8975 64.1331 81.6493 64.3366 81.3309C64.5401 81.0125 64.6487 80.6381 64.6487 80.2551C64.657 79.9955 64.6152 79.7367 64.5259 79.4943C64.4365 79.2519 64.3014 79.0308 64.1286 78.8441C63.9557 78.6574 63.7487 78.509 63.5199 78.4076C63.2911 78.3063 63.0451 78.2542 62.7965 78.2543V78.3189Z" fill="#E0E0E0"/>
<path d="M55.6139 82.5572C55.1784 82.5572 54.7527 82.4221 54.3905 82.1692C54.0284 81.9162 53.7462 81.5567 53.5795 81.1361C53.4128 80.7154 53.3692 80.2526 53.4542 79.806C53.5391 79.3595 53.7489 78.9493 54.0568 78.6274C54.3648 78.3054 54.7572 78.0862 55.1843 77.9974C55.6115 77.9085 56.0542 77.9541 56.4566 78.1284C56.859 78.3026 57.2029 78.5976 57.4449 78.9762C57.6868 79.3548 57.816 79.7998 57.816 80.2551C57.816 80.8657 57.584 81.4512 57.171 81.8829C56.7581 82.3146 56.1979 82.5572 55.6139 82.5572ZM55.6139 78.3189C55.2476 78.3189 54.8895 78.4324 54.5849 78.6452C54.2803 78.8579 54.0429 79.1604 53.9027 79.5142C53.7625 79.868 53.7259 80.2573 53.7973 80.6329C53.8688 81.0085 54.0452 81.3535 54.3042 81.6243C54.5633 81.8951 54.8933 82.0795 55.2526 82.1542C55.6119 82.2289 55.9843 82.1906 56.3227 82.044C56.6612 81.8975 56.9505 81.6493 57.154 81.3309C57.3575 81.0125 57.4661 80.6381 57.4661 80.2551C57.4744 79.9955 57.4326 79.7367 57.3433 79.4943C57.2539 79.2519 57.1188 79.0308 56.946 78.8441C56.7731 78.6574 56.5661 78.509 56.3373 78.4076C56.1085 78.3063 55.8624 78.2542 55.6139 78.2543V78.3189Z" fill="#E0E0E0"/>
<path d="M183.649 175.355H50.9835C50.2727 175.353 49.5915 175.057 49.0889 174.531C48.5863 174.006 48.3031 173.294 48.3013 172.551V86.1426H186.324V172.551C186.324 173.293 186.043 174.005 185.541 174.531C185.04 175.056 184.359 175.353 183.649 175.355Z" fill="#F0F0F0"/>
<path d="M93.6115 9.2942H45.2759C44.536 9.2923 43.8269 8.98419 43.3037 8.43722C42.7804 7.89026 42.4857 7.14897 42.4839 6.37545C42.4875 5.60317 42.783 4.86371 43.3061 4.3183C43.8291 3.77288 44.5372 3.46575 45.2759 3.46387H93.6252C94.3627 3.46764 95.0691 3.7756 95.5906 4.32082C96.1121 4.86603 96.4067 5.60441 96.4103 6.37545C96.4085 7.15021 96.1128 7.89258 95.5881 8.43975C95.0635 8.98692 94.3526 9.2942 93.6115 9.2942Z" fill="#E0E0E0"/>
<path d="M113.691 21.5137L45.4132 21.2268C44.6804 21.2118 43.9825 20.8969 43.4695 20.3498C42.9564 19.8027 42.669 19.0671 42.6692 18.3009C42.6728 17.528 42.9695 16.7882 43.4942 16.2438C44.0189 15.6993 44.7288 15.3946 45.4681 15.3965L113.739 15.6833C114.478 15.689 115.184 15.9998 115.705 16.5479C116.225 17.096 116.517 17.837 116.517 18.6093C116.515 18.9944 116.441 19.3753 116.297 19.7302C116.154 20.085 115.945 20.4066 115.682 20.6766C115.42 20.9466 115.108 21.1596 114.767 21.3032C114.425 21.4469 114.059 21.5184 113.691 21.5137Z" fill="#F0F0F0"/>
<path d="M77.3464 35.0178H45.2759C44.536 35.0159 43.8269 34.7078 43.3037 34.1609C42.7804 33.6139 42.4857 32.8726 42.4839 32.0991C42.4875 31.3268 42.783 30.5873 43.3061 30.0419C43.8291 29.4965 44.5372 29.1894 45.2759 29.1875H77.3601C78.0989 29.1894 78.807 29.4965 79.33 30.0419C79.853 30.5873 80.1485 31.3268 80.1521 32.0991C80.1512 32.4833 80.078 32.8636 79.9365 33.2182C79.795 33.5729 79.5881 33.8949 79.3275 34.1659C79.067 34.437 78.7579 34.6517 78.418 34.7979C78.0781 34.944 77.714 35.0188 77.3464 35.0178Z" fill="#E6E6E6"/>
<path d="M298.986 117.539H284.093C283.531 117.537 282.992 117.303 282.594 116.888C282.196 116.473 281.97 115.911 281.967 115.323C281.97 114.734 282.195 114.171 282.593 113.755C282.991 113.339 283.53 113.103 284.093 113.1H298.986C299.548 113.103 300.087 113.339 300.484 113.755C300.88 114.172 301.104 114.735 301.106 115.323C301.104 115.91 300.88 116.472 300.483 116.888C300.086 117.303 299.548 117.537 298.986 117.539Z" fill="#E0E0E0"/>
<path d="M306.059 122.58H284.086C282.916 122.58 281.967 123.572 281.967 124.796V124.803C281.967 126.027 282.916 127.019 284.086 127.019H306.059C307.23 127.019 308.179 126.027 308.179 124.803V124.796C308.179 123.572 307.23 122.58 306.059 122.58Z" fill="#F0F0F0"/>
<path d="M293.21 137.124H284.093C283.813 137.126 283.535 137.07 283.276 136.959C283.016 136.849 282.78 136.686 282.581 136.481C282.381 136.275 282.223 136.03 282.114 135.76C282.005 135.49 281.948 135.201 281.946 134.908C281.95 134.319 282.175 133.756 282.573 133.34C282.971 132.924 283.51 132.688 284.073 132.685H293.19C293.753 132.686 294.293 132.921 294.691 133.338C295.09 133.754 295.314 134.319 295.316 134.908C295.314 135.492 295.092 136.053 294.698 136.468C294.304 136.882 293.769 137.118 293.21 137.124Z" fill="#E6E6E6"/>
<path d="M299.48 146.597H284.093C283.531 146.595 282.992 146.362 282.594 145.947C282.196 145.532 281.97 144.969 281.967 144.381C281.97 143.793 282.195 143.23 282.593 142.813C282.991 142.397 283.53 142.162 284.093 142.158H299.48C300.042 142.162 300.581 142.398 300.977 142.814C301.374 143.23 301.598 143.794 301.6 144.381C301.598 144.968 301.374 145.531 300.977 145.946C300.58 146.361 300.042 146.595 299.48 146.597Z" fill="#F0F0F0"/>
<path d="M297.038 156.709H284.093C283.531 156.707 282.992 156.473 282.594 156.058C282.196 155.643 281.97 155.08 281.967 154.493C281.97 153.904 282.195 153.341 282.593 152.925C282.991 152.509 283.53 152.273 284.093 152.27H297.038C297.601 152.273 298.14 152.509 298.538 152.925C298.936 153.341 299.161 153.904 299.165 154.493C299.161 155.08 298.936 155.643 298.537 156.058C298.139 156.473 297.6 156.707 297.038 156.709Z" fill="#E6E6E6"/>
<path d="M247.955 129.235H203.687C203.124 129.233 202.585 128.998 202.188 128.581C201.791 128.165 201.567 127.6 201.567 127.012C201.569 126.425 201.793 125.862 202.19 125.447C202.587 125.032 203.126 124.798 203.687 124.796H247.955C248.516 124.798 249.054 125.032 249.452 125.447C249.849 125.862 250.073 126.425 250.074 127.012C250.074 127.6 249.851 128.165 249.454 128.581C249.057 128.998 248.518 129.233 247.955 129.235Z" fill="#E0E0E0"/>
<path d="M265.873 138.709H203.687C203.126 138.707 202.587 138.473 202.19 138.057C201.793 137.642 201.569 137.08 201.567 136.493C201.567 135.904 201.791 135.34 202.188 134.923C202.585 134.506 203.124 134.271 203.687 134.27H265.873C266.436 134.271 266.976 134.506 267.375 134.923C267.773 135.339 267.998 135.904 268 136.493C267.996 137.08 267.771 137.643 267.372 138.058C266.974 138.473 266.435 138.707 265.873 138.709Z" fill="#F0F0F0"/>
<path d="M233.322 148.82H203.687C203.124 148.818 202.585 148.583 202.188 148.166C201.791 147.75 201.567 147.185 201.567 146.597C201.569 146.01 201.793 145.447 202.19 145.032C202.587 144.617 203.126 144.383 203.687 144.381H233.322C233.885 144.383 234.423 144.617 234.822 145.032C235.22 145.446 235.445 146.009 235.449 146.597C235.447 147.186 235.222 147.75 234.824 148.167C234.426 148.583 233.886 148.818 233.322 148.82Z" fill="#E6E6E6"/>
<path d="M249.203 158.294H203.687C203.124 158.292 202.585 158.057 202.188 157.64C201.791 157.223 201.567 156.659 201.567 156.07C201.569 155.483 201.793 154.921 202.19 154.506C202.587 154.09 203.126 153.856 203.687 153.854H249.203C249.766 153.854 250.306 154.088 250.705 154.503C251.103 154.918 251.328 155.482 251.33 156.07C251.33 156.362 251.275 156.651 251.168 156.921C251.061 157.191 250.904 157.436 250.707 157.642C250.509 157.849 250.275 158.013 250.017 158.124C249.759 158.236 249.482 158.294 249.203 158.294Z" fill="#F0F0F0"/>
<path d="M242.933 168.406H203.687C203.124 168.404 202.585 168.169 202.188 167.752C201.791 167.335 201.567 166.771 201.567 166.183C201.569 165.596 201.793 165.033 202.19 164.618C202.587 164.203 203.126 163.969 203.687 163.967H242.933C243.495 163.969 244.033 164.203 244.43 164.618C244.827 165.033 245.051 165.596 245.053 166.183C245.053 166.771 244.83 167.335 244.432 167.752C244.035 168.169 243.496 168.404 242.933 168.406Z" fill="#E6E6E6"/>
<path d="M171.5 273C244.959 273 304.509 269.365 304.509 264.882C304.509 260.398 244.959 256.764 171.5 256.764C98.0414 256.764 38.4915 260.398 38.4915 264.882C38.4915 269.365 98.0414 273 171.5 273Z" fill="#F5F5F5"/>
<path opacity="0.7" d="M240.354 215.787H155.811C153.004 215.804 150.223 215.218 147.64 214.065C145.058 212.913 142.73 211.218 140.801 209.086C138.871 206.953 137.381 204.429 136.423 201.67C135.465 198.911 135.059 195.976 135.231 193.046L142.462 48.787C143.059 36.2801 153.355 26.0465 165.326 26.0465H249.869C252.679 26.0243 255.464 26.6065 258.05 27.7571C260.637 28.9076 262.969 30.6019 264.902 32.7346C266.836 34.8673 268.329 37.3929 269.289 40.1544C270.249 42.9159 270.655 45.8543 270.483 48.787L263.246 193.046C262.622 205.553 252.318 215.787 240.354 215.787Z" fill="#407BFF"/>
<path d="M190.427 17.7344H185.165V18.4515H190.427V17.7344Z" fill="#407BFF"/>
<path d="M180.672 17.7344H162.376V18.4515H180.672V17.7344Z" fill="#407BFF"/>
<path d="M133.323 66.9249L133.048 72.3604L133.733 72.3983L134.008 66.9628L133.323 66.9249Z" fill="#407BFF"/>
<path opacity="0.6" d="M235.49 210.709H150.92C148.113 210.726 145.332 210.14 142.751 208.988C140.169 207.836 137.841 206.141 135.912 204.01C133.982 201.878 132.492 199.355 131.534 196.597C130.575 193.839 130.169 190.905 130.34 187.975L137.577 43.7088C138.202 31.2019 148.505 20.9684 160.469 20.9684H245.005C247.816 20.9461 250.6 21.5284 253.187 22.679C255.773 23.8295 258.105 25.5238 260.038 27.6565C261.972 29.7892 263.465 32.3148 264.425 35.0763C265.385 37.8377 265.792 40.7761 265.619 43.7088L258.389 187.975C257.758 200.475 247.454 210.709 235.49 210.709Z" fill="#407BFF"/>
<mask id="mask0_24_1309" style="mask-type:luminance" maskUnits="userSpaceOnUse" x="130" y="20" width="136" height="191">
<path d="M235.49 210.709H150.92C148.113 210.726 145.332 210.14 142.751 208.988C140.169 207.836 137.841 206.141 135.912 204.01C133.982 201.878 132.492 199.355 131.534 196.597C130.575 193.839 130.169 190.905 130.34 187.975L137.577 43.7088C138.202 31.2019 148.505 20.9684 160.469 20.9684H245.005C247.816 20.9461 250.6 21.5284 253.187 22.679C255.773 23.8295 258.105 25.5238 260.038 27.6565C261.972 29.7892 263.465 32.3148 264.425 35.0763C265.385 37.8377 265.792 40.7761 265.619 43.7088L258.389 187.975C257.758 200.475 247.454 210.709 235.49 210.709Z" fill="white"/>
</mask>
<g mask="url(#mask0_24_1309)">
<path d="M166.76 190.292C146.66 190.292 128.166 182.11 114.679 167.258C101.192 152.406 94.3047 132.577 95.3611 111.522C96.097 97.5487 100.242 84.0049 107.4 72.1797C114.41 60.5887 123.981 50.9279 135.307 44.0105C135.349 43.9926 135.396 43.9926 135.437 44.0105C135.483 44.0241 135.522 44.0547 135.547 44.0966L142.469 57.9015C142.716 57.758 142.963 57.6146 143.217 57.4784L143.484 57.3206C143.526 57.3063 143.572 57.3063 143.614 57.3206C143.637 57.3276 143.658 57.3395 143.675 57.3556C143.693 57.3716 143.707 57.3915 143.717 57.4138L145.611 61.1788C145.63 61.2199 145.634 61.2674 145.622 61.3115C145.609 61.3555 145.58 61.3928 145.542 61.4155C127.932 71.7064 116.346 90.9185 115.317 111.565C114.535 127.041 119.577 141.591 129.51 152.528C134.439 157.943 140.381 162.241 146.966 165.154C153.551 168.067 160.639 169.532 167.789 169.459C167.812 169.459 167.836 169.464 167.857 169.474C167.878 169.484 167.897 169.498 167.912 169.517C167.929 169.533 167.942 169.553 167.951 169.576C167.959 169.598 167.962 169.622 167.961 169.646L166.932 190.156C166.923 190.196 166.902 190.232 166.87 190.258C166.839 190.283 166.799 190.295 166.76 190.292ZM135.321 44.4193C112.25 58.5469 97.0693 84.2491 95.6973 111.536C94.6477 132.498 101.48 152.198 114.905 167.007C128.33 181.816 146.633 189.891 166.582 189.955L167.59 169.811C160.424 169.857 153.325 168.369 146.73 165.439C140.135 162.508 134.184 158.197 129.243 152.772C119.248 141.756 114.151 127.112 114.953 111.543C115.989 90.8324 127.576 71.5486 145.206 61.1788L143.477 57.7294L143.354 57.8011C143.059 57.966 142.757 58.131 142.469 58.3102C142.425 58.3286 142.376 58.3286 142.332 58.3102C142.288 58.2963 142.251 58.2656 142.229 58.2242L135.321 44.4193Z" fill="#407BFF"/>
<path d="M171.644 197.772C171.595 197.772 171.548 197.751 171.514 197.715C171.499 197.696 171.488 197.674 171.48 197.651C171.473 197.628 171.471 197.603 171.473 197.579L172.57 175.641C172.574 175.596 172.593 175.554 172.625 175.524C172.657 175.493 172.699 175.476 172.742 175.476C205.43 175.476 233.419 147.673 235.134 113.494C235.137 113.449 235.157 113.407 235.188 113.377C235.22 113.346 235.262 113.329 235.305 113.329H240.299C240.321 113.328 240.344 113.332 240.364 113.34C240.385 113.348 240.404 113.361 240.42 113.377C240.436 113.393 240.449 113.412 240.458 113.434C240.466 113.455 240.471 113.478 240.471 113.501C240.512 115.28 240.471 117.087 240.409 118.844H255.837C255.86 118.843 255.884 118.848 255.905 118.858C255.926 118.868 255.945 118.883 255.961 118.901C255.992 118.942 256.009 118.993 256.009 119.045C253.576 139.691 244.331 158.804 229.865 173.088C214.067 188.772 192.849 197.772 171.644 197.772ZM172.907 175.835L171.823 197.414C192.883 197.363 213.943 188.406 229.625 172.823C243.988 158.648 253.187 139.691 255.645 119.203H240.231C240.205 119.203 240.18 119.196 240.157 119.184C240.134 119.171 240.115 119.153 240.1 119.131C240.083 119.115 240.07 119.095 240.061 119.072C240.053 119.05 240.05 119.026 240.052 119.002C240.141 117.238 240.162 115.416 240.128 113.673H235.463C233.666 147.91 205.649 175.742 172.907 175.835Z" fill="#407BFF"/>
<path d="M240.299 113.688C240.254 113.686 240.212 113.667 240.18 113.633C240.148 113.6 240.129 113.556 240.128 113.509C239.256 77.2717 211.316 48.8874 176.487 48.8874C165.019 48.9158 153.736 51.9169 143.649 57.6221C143.629 57.6345 143.607 57.6425 143.585 57.6456C143.562 57.6487 143.539 57.6468 143.517 57.64C143.495 57.6333 143.475 57.6218 143.457 57.6064C143.44 57.591 143.425 57.5719 143.415 57.5504C143.395 57.5082 143.391 57.4596 143.404 57.4144C143.416 57.3691 143.445 57.3306 143.484 57.3066C153.622 51.5731 164.961 48.5572 176.487 48.5288C193.199 48.3272 209.309 55.047 221.297 67.2207C233.285 79.3943 240.178 96.0325 240.471 113.501C240.472 113.525 240.468 113.549 240.46 113.571C240.452 113.593 240.441 113.613 240.425 113.63C240.41 113.648 240.392 113.662 240.371 113.672C240.351 113.681 240.328 113.687 240.306 113.688H240.299Z" fill="#407BFF"/>
<path d="M263.973 119.202H255.837C255.792 119.202 255.748 119.184 255.716 119.15C255.684 119.116 255.666 119.071 255.666 119.023C255.666 118.976 255.684 118.93 255.716 118.896C255.748 118.863 255.792 118.844 255.837 118.844H263.808C264.649 102.45 261.269 86.1197 254.019 71.5558C243.393 50.4217 225.262 34.9817 202.96 28.0685C179.238 20.7107 153.987 23.7657 131.836 36.6742L135.547 44.0607C135.567 44.1037 135.57 44.153 135.556 44.1983C135.542 44.2437 135.512 44.2817 135.472 44.3045C135.451 44.3156 135.429 44.3224 135.406 44.3244C135.384 44.3265 135.361 44.3237 135.339 44.3164C135.317 44.309 135.297 44.2972 135.28 44.2816C135.263 44.2661 135.249 44.247 135.238 44.2257L131.458 36.6885C131.448 36.6684 131.441 36.6462 131.439 36.6232C131.436 36.6003 131.438 36.5771 131.445 36.555C131.451 36.5329 131.462 36.5124 131.476 36.4947C131.49 36.477 131.507 36.4624 131.527 36.4519C142.578 29.9458 154.776 25.8497 167.384 24.4111C179.367 23.0148 191.496 24.1413 203.056 27.7243C225.447 34.6662 243.654 50.1707 254.321 71.3908C261.626 86.0611 265.02 102.517 264.145 119.03C264.143 119.077 264.124 119.12 264.092 119.152C264.06 119.185 264.017 119.202 263.973 119.202Z" fill="#407BFF"/>
<path d="M142.4 58.3098H142.352C142.308 58.2959 142.272 58.2651 142.249 58.2238L135.238 44.2539C135.217 44.2111 135.214 44.1614 135.228 44.1157C135.242 44.0699 135.273 44.032 135.314 44.0101C135.355 43.9882 135.402 43.9842 135.446 43.999C135.49 44.0138 135.526 44.0462 135.547 44.089L142.469 57.8939C142.716 57.7504 142.963 57.607 143.216 57.4708L143.484 57.313C143.504 57.3019 143.526 57.2951 143.549 57.2931C143.572 57.2911 143.595 57.2938 143.616 57.3012C143.638 57.3085 143.658 57.3203 143.676 57.3359C143.693 57.3515 143.707 57.3705 143.717 57.3919C143.728 57.412 143.735 57.4343 143.737 57.4572C143.739 57.4801 143.737 57.5033 143.731 57.5254C143.724 57.5475 143.714 57.568 143.7 57.5857C143.686 57.6034 143.668 57.618 143.649 57.6285L143.374 57.7863C143.079 57.9512 142.777 58.1162 142.489 58.2955C142.461 58.3076 142.43 58.3125 142.4 58.3098Z" fill="#407BFF"/>
<g opacity="0.3">
<path d="M166.76 190.292C146.66 190.292 128.166 182.11 114.679 167.258C101.192 152.406 94.3047 132.577 95.3611 111.522C96.097 97.5487 100.242 84.0049 107.4 72.1797C114.41 60.5887 123.981 50.9279 135.307 44.0105C135.349 43.9926 135.396 43.9926 135.437 44.0105C135.483 44.0241 135.522 44.0547 135.547 44.0966L142.469 57.9015C142.716 57.758 142.963 57.6146 143.217 57.4784L143.484 57.3206C143.526 57.3063 143.572 57.3063 143.614 57.3206C143.637 57.3276 143.658 57.3395 143.675 57.3556C143.693 57.3716 143.707 57.3915 143.717 57.4138L145.611 61.1788C145.63 61.2199 145.634 61.2674 145.622 61.3115C145.609 61.3555 145.58 61.3928 145.542 61.4155C127.932 71.7064 116.346 90.9185 115.317 111.565C114.535 127.041 119.577 141.591 129.51 152.528C134.439 157.943 140.381 162.241 146.966 165.154C153.551 168.067 160.639 169.532 167.789 169.459C167.812 169.459 167.836 169.464 167.857 169.474C167.878 169.484 167.897 169.498 167.912 169.517C167.929 169.533 167.942 169.553 167.951 169.576C167.959 169.598 167.962 169.622 167.961 169.646L166.932 190.156C166.923 190.196 166.902 190.232 166.87 190.258C166.839 190.283 166.799 190.295 166.76 190.292ZM135.321 44.4193C112.25 58.5469 97.0693 84.2491 95.6973 111.536C94.6477 132.498 101.48 152.198 114.905 167.007C128.33 181.816 146.633 189.891 166.582 189.955L167.59 169.811C160.424 169.857 153.325 168.369 146.73 165.439C140.135 162.508 134.184 158.197 129.243 152.772C119.248 141.756 114.151 127.112 114.953 111.543C115.989 90.8324 127.576 71.5486 145.206 61.1788L143.477 57.7294L143.354 57.8011C143.059 57.966 142.757 58.131 142.469 58.3102C142.425 58.3286 142.376 58.3286 142.332 58.3102C142.288 58.2963 142.251 58.2656 142.229 58.2242L135.321 44.4193Z" fill="white"/>
<path d="M171.644 197.772C171.595 197.772 171.548 197.751 171.514 197.715C171.499 197.696 171.488 197.674 171.48 197.651C171.473 197.628 171.471 197.603 171.473 197.579L172.57 175.641C172.574 175.596 172.593 175.554 172.625 175.524C172.657 175.493 172.699 175.476 172.742 175.476C205.43 175.476 233.419 147.673 235.134 113.494C235.137 113.449 235.157 113.407 235.188 113.377C235.22 113.346 235.262 113.329 235.305 113.329H240.299C240.321 113.328 240.344 113.332 240.364 113.34C240.385 113.348 240.404 113.361 240.42 113.377C240.436 113.393 240.449 113.412 240.458 113.434C240.466 113.455 240.471 113.478 240.471 113.501C240.512 115.28 240.471 117.087 240.409 118.844H255.837C255.86 118.843 255.884 118.848 255.905 118.858C255.926 118.868 255.945 118.883 255.961 118.901C255.992 118.942 256.009 118.993 256.009 119.045C253.576 139.691 244.331 158.804 229.865 173.088C214.067 188.772 192.849 197.772 171.644 197.772ZM172.907 175.835L171.823 197.414C192.883 197.363 213.943 188.406 229.625 172.823C243.988 158.648 253.187 139.691 255.645 119.203H240.231C240.205 119.203 240.18 119.196 240.157 119.184C240.134 119.171 240.115 119.153 240.1 119.131C240.083 119.115 240.07 119.095 240.061 119.072C240.053 119.05 240.05 119.026 240.052 119.002C240.141 117.238 240.162 115.416 240.128 113.673H235.463C233.666 147.91 205.649 175.742 172.907 175.835Z" fill="white"/>
<path d="M240.299 113.688C240.254 113.686 240.212 113.667 240.18 113.633C240.148 113.6 240.129 113.556 240.128 113.509C239.256 77.2717 211.316 48.8874 176.487 48.8874C165.019 48.9158 153.736 51.9169 143.649 57.6221C143.629 57.6345 143.607 57.6425 143.585 57.6456C143.562 57.6487 143.539 57.6468 143.517 57.64C143.495 57.6333 143.475 57.6218 143.457 57.6064C143.44 57.591 143.425 57.5719 143.415 57.5504C143.395 57.5082 143.391 57.4596 143.404 57.4144C143.416 57.3691 143.445 57.3306 143.484 57.3066C153.622 51.5731 164.961 48.5572 176.487 48.5288C193.199 48.3272 209.309 55.047 221.297 67.2207C233.285 79.3943 240.178 96.0325 240.471 113.501C240.472 113.525 240.468 113.549 240.46 113.571C240.452 113.593 240.441 113.613 240.425 113.63C240.41 113.648 240.392 113.662 240.371 113.672C240.351 113.681 240.328 113.687 240.306 113.688H240.299Z" fill="white"/>
<path d="M263.973 119.202H255.837C255.792 119.202 255.748 119.184 255.716 119.15C255.684 119.116 255.666 119.071 255.666 119.023C255.666 118.976 255.684 118.93 255.716 118.896C255.748 118.863 255.792 118.844 255.837 118.844H263.808C264.649 102.45 261.269 86.1197 254.019 71.5558C243.393 50.4217 225.262 34.9817 202.96 28.0685C179.238 20.7107 153.987 23.7657 131.836 36.6742L135.547 44.0607C135.567 44.1037 135.57 44.153 135.556 44.1983C135.542 44.2437 135.512 44.2817 135.472 44.3045C135.451 44.3156 135.429 44.3224 135.406 44.3244C135.384 44.3265 135.361 44.3237 135.339 44.3164C135.317 44.309 135.297 44.2972 135.28 44.2816C135.263 44.2661 135.249 44.247 135.238 44.2257L131.458 36.6885C131.448 36.6684 131.441 36.6462 131.439 36.6232C131.436 36.6003 131.438 36.5771 131.445 36.555C131.451 36.5329 131.462 36.5124 131.476 36.4947C131.49 36.477 131.507 36.4624 131.527 36.4519C142.578 29.9458 154.776 25.8497 167.384 24.4111C179.367 23.0148 191.496 24.1413 203.056 27.7243C225.447 34.6662 243.654 50.1707 254.321 71.3908C261.626 86.0611 265.02 102.517 264.145 119.03C264.143 119.077 264.124 119.12 264.092 119.152C264.06 119.185 264.017 119.202 263.973 119.202Z" fill="white"/>
<path d="M142.4 58.3098H142.352C142.308 58.2959 142.272 58.2651 142.249 58.2238L135.238 44.2539C135.217 44.2111 135.214 44.1614 135.228 44.1157C135.242 44.0699 135.273 44.032 135.314 44.0101C135.355 43.9882 135.402 43.9842 135.446 43.999C135.49 44.0138 135.526 44.0462 135.547 44.089L142.469 57.8939C142.716 57.7504 142.963 57.607 143.216 57.4708L143.484 57.313C143.504 57.3019 143.526 57.2951 143.549 57.2931C143.572 57.2911 143.595 57.2938 143.616 57.3012C143.638 57.3085 143.658 57.3203 143.676 57.3359C143.693 57.3515 143.707 57.3705 143.717 57.3919C143.728 57.412 143.735 57.4343 143.737 57.4572C143.739 57.4801 143.737 57.5033 143.731 57.5254C143.724 57.5475 143.714 57.568 143.7 57.5857C143.686 57.6034 143.668 57.618 143.649 57.6285L143.374 57.7863C143.079 57.9512 142.777 58.1162 142.489 58.2955C142.461 58.3076 142.43 58.3125 142.4 58.3098Z" fill="white"/>
</g>
</g>
<path d="M172.069 160.502L171.383 173.676C144.705 173.676 124.2 151.057 125.6 123.175C126.54 104.486 137.077 88.1573 151.956 79.4297L157.691 90.8394C152.104 94.0788 147.389 98.7401 143.983 104.391C140.577 110.042 138.591 116.501 138.208 123.168C137.2 143.786 152.354 160.502 172.069 160.502Z" fill="#407BFF"/>
<path opacity="0.6" d="M172.069 160.502L171.383 173.676C144.705 173.676 124.2 151.057 125.6 123.175C126.54 104.486 137.077 88.1573 151.956 79.4297L157.691 90.8394C152.104 94.0788 147.389 98.7401 143.983 104.391C140.577 110.042 138.591 116.501 138.208 123.168C137.2 143.786 152.354 160.502 172.069 160.502Z" fill="black"/>
<path d="M228.946 124.444C228.082 138.968 221.993 152.612 211.902 162.636C201.811 172.66 188.465 178.32 174.546 178.481L175.232 164.382C196.326 164.382 214.334 146.496 215.438 124.444H228.946Z" fill="#407BFF"/>
<path opacity="0.3" d="M228.946 124.444C228.082 138.968 221.993 152.612 211.902 162.636C201.811 172.66 188.465 178.32 174.546 178.481L175.232 164.382C196.326 164.382 214.334 146.496 215.438 124.444H228.946Z" fill="black"/>
<path d="M233.878 127.995H218.621C219.87 103.017 201.526 82.815 177.66 82.815C169.97 82.8123 162.411 84.8953 155.722 88.8605L148.787 75.0413C177.413 58.2746 212.955 68.3862 227.553 97.4303C232.248 106.84 234.432 117.398 233.878 127.995Z" fill="#FAFAFA"/>
<path d="M232.211 167.781H218.162L216.646 198.03H230.695L232.211 167.781Z" fill="#FAFAFA"/>
<path d="M252.263 157.784H238.214L236.197 198.03H250.246L252.263 157.784Z" fill="#407BFF"/>
<path opacity="0.6" d="M252.263 157.784H238.214L236.197 198.03H250.246L252.263 157.784Z" fill="black"/>
<path d="M271.306 167.781H257.257L255.741 198.03H269.79L271.306 167.781Z" fill="#407BFF"/>
<path opacity="0.3" d="M271.306 167.781H257.257L255.741 198.03H269.79L271.306 167.781Z" fill="black"/>
<path d="M269.66 200.604H216.515L216.55 199.916H269.694L269.66 200.604Z" fill="#263238"/>
<path opacity="0.8" d="M276.842 72.6239H215.583L217.394 36.4443H278.66L276.842 72.6239Z" fill="#FAFAFA"/>
<path d="M216.687 50.5435L215.583 72.6242H276.842L278.214 45.208C268.048 45.208 262.018 57.3061 249.443 57.3061C236.869 57.3061 233.419 50.5435 216.687 50.5435Z" fill="#407BFF"/>
<path opacity="0.1" d="M216.687 50.5435L215.583 72.6242H276.842L278.214 45.208C268.048 45.208 262.018 57.3061 249.443 57.3061C236.869 57.3061 233.419 50.5435 216.687 50.5435Z" fill="black"/>
<path d="M216.159 61.0995C229.927 61.0995 234.873 53.2109 242.604 53.2109C250.335 53.2109 253.717 61.5082 263.349 61.5082C273.392 61.5082 277.755 54.9823 277.755 54.9823L276.87 72.6382H215.61L216.159 61.0995Z" fill="#407BFF"/>
<path opacity="0.5" d="M216.159 61.0995C229.927 61.0995 234.873 53.2109 242.604 53.2109C250.335 53.2109 253.717 61.5082 263.349 61.5082C273.392 61.5082 277.755 54.9823 277.755 54.9823L276.87 72.6382H215.61L216.159 61.0995Z" fill="black"/>
<path d="M95.0043 88.8679C94.0987 90.1373 93.0903 91.55 92.1779 92.9341C91.2656 94.3182 90.3463 95.7309 89.482 97.1509C87.7528 99.9143 86.2387 102.819 84.9544 105.835L84.728 106.38L84.6182 106.653C84.5691 106.766 84.5434 106.888 84.5428 107.012C84.5252 107.596 84.5875 108.181 84.728 108.747C85.0941 110.257 85.5924 111.729 86.2166 113.143C87.5755 116.241 89.082 119.267 90.7305 122.208L87.7601 124.66C85.2538 122.045 83.0188 119.161 81.0922 116.055C80.0555 114.383 79.1952 112.599 78.5265 110.733C78.1301 109.615 77.8832 108.444 77.7925 107.255C77.7417 106.496 77.7925 105.734 77.9434 104.989C77.9846 104.781 78.0463 104.559 78.1081 104.351L78.2178 104L78.4374 103.282C78.7186 102.343 79.0616 101.461 79.3909 100.564C79.7202 99.668 80.0769 98.8075 80.5091 97.9684C81.2637 96.2544 82.1349 94.6265 83.0198 93.0201C83.9048 91.4138 84.8652 89.8647 85.8667 88.3516C86.3675 87.5914 86.882 86.8456 87.4034 86.0998C87.9247 85.3539 88.4461 84.6655 89.0635 83.8623L95.0043 88.8679Z" fill="#E58A7B"/>
<path d="M89.6535 121.082L93.3373 121.742L90.0651 127.536C90.0651 127.536 87.4994 126.245 87.033 123.743L89.6535 121.082Z" fill="#E58A7B"/>
<path d="M97.316 123.814L94.4005 128.475L90.0649 127.536L93.3372 121.741L97.316 123.814Z" fill="#E58A7B"/>
<path d="M114 60.7556C114 61.1787 114.212 61.523 114.48 61.523C114.747 61.523 114.96 61.1787 114.96 60.7556C114.96 60.3325 114.747 59.9883 114.48 59.9883C114.212 59.9883 114 60.3253 114 60.7556Z" fill="#263238"/>
<path d="M114.178 61.5234C114.664 62.8222 115.317 64.0455 116.119 65.1593C115.842 65.3669 115.524 65.5084 115.189 65.5741C114.854 65.6397 114.509 65.6279 114.178 65.5394V61.5234Z" fill="#DF5753"/>
<path d="M112.559 58.4038C112.521 58.4049 112.483 58.3956 112.449 58.3767C112.416 58.3578 112.387 58.3301 112.367 58.2962C112.348 58.2704 112.334 58.2406 112.326 58.2088C112.318 58.177 112.317 58.1439 112.322 58.1115C112.327 58.0791 112.339 58.0482 112.356 58.0208C112.373 57.9933 112.396 57.9699 112.422 57.952C112.723 57.7107 113.076 57.5494 113.45 57.482C113.824 57.4145 114.208 57.4429 114.569 57.5648C114.627 57.5902 114.673 57.6381 114.697 57.6984C114.721 57.7587 114.722 57.8265 114.699 57.8875C114.689 57.9183 114.674 57.9467 114.653 57.9709C114.632 57.995 114.607 58.0145 114.578 58.0279C114.55 58.0414 114.519 58.0486 114.488 58.0491C114.457 58.0496 114.426 58.0434 114.397 58.0309C114.11 57.939 113.805 57.9204 113.509 57.9765C113.213 58.0326 112.935 58.1619 112.696 58.3536C112.658 58.3867 112.609 58.4044 112.559 58.4038Z" fill="#263238"/>
<path d="M100.877 65.6543C101.604 69.5125 102.324 76.5691 99.7446 79.1437C99.7446 79.1437 100.753 83.0521 107.606 83.0521C115.152 83.0521 111.201 79.1437 111.201 79.1437C107.085 78.1182 107.195 74.9269 107.915 71.9364L100.877 65.6543Z" fill="#E58A7B"/>
<path d="M98.784 80.4842C98.2421 79.2507 97.6521 77.8308 98.8801 77.3862C100.252 76.8985 107.64 76.4037 110.192 77.3145C110.529 77.412 110.844 77.5784 111.118 77.804C111.393 78.0296 111.622 78.3099 111.793 78.6287C111.963 78.9475 112.071 79.2985 112.111 79.6613C112.15 80.0241 112.121 80.3916 112.024 80.7424L98.784 80.4842Z" fill="#407BFF"/>
<path d="M82.8896 260.407C82.4468 260.404 82.0054 260.354 81.5725 260.256C81.5503 260.252 81.5298 260.241 81.5138 260.224C81.4978 260.208 81.4872 260.186 81.4833 260.163C81.4788 260.139 81.4809 260.114 81.4894 260.091C81.4979 260.068 81.5124 260.048 81.5313 260.034C81.5931 259.991 82.9856 259.001 83.7197 259.173C83.7984 259.191 83.8725 259.226 83.9366 259.277C84.0007 259.328 84.0531 259.393 84.0901 259.467C84.1489 259.555 84.1804 259.658 84.1804 259.765C84.1804 259.872 84.1489 259.976 84.0901 260.063C83.9218 260.2 83.729 260.302 83.5229 260.361C83.3168 260.42 83.1015 260.436 82.8896 260.407ZM81.9086 260.077C82.6632 260.206 83.6922 260.206 83.9049 259.905C83.9049 259.905 83.9941 259.79 83.9049 259.589C83.8827 259.546 83.8515 259.507 83.8135 259.478C83.7756 259.448 83.7318 259.427 83.6854 259.417C83.0422 259.452 82.4236 259.687 81.9086 260.091V260.077Z" fill="#407BFF"/>
<path d="M81.6341 260.279C81.6141 260.286 81.5924 260.286 81.5724 260.279C81.5534 260.267 81.538 260.25 81.5282 260.23C81.5184 260.21 81.5147 260.186 81.5175 260.164C81.5175 260.099 81.641 258.579 82.2035 258.077C82.2739 258.017 82.355 257.972 82.4422 257.945C82.5293 257.918 82.6208 257.909 82.7112 257.919C82.8019 257.919 82.8898 257.952 82.9598 258.012C83.0299 258.072 83.0778 258.156 83.0953 258.249C83.1982 258.837 82.1898 259.985 81.6684 260.286L81.6341 260.279ZM82.6494 258.127C82.5489 258.129 82.452 258.167 82.375 258.235C82.0242 258.711 81.8165 259.285 81.7782 259.884C82.2996 259.475 82.9444 258.608 82.8827 258.256C82.8827 258.256 82.8827 258.149 82.7043 258.127H82.6494Z" fill="#407BFF"/>
<path d="M113.149 260.407C112.631 260.407 112.114 260.357 111.605 260.256C111.581 260.253 111.558 260.242 111.541 260.224C111.523 260.205 111.512 260.182 111.509 260.156C111.506 260.131 111.509 260.106 111.518 260.083C111.528 260.06 111.544 260.04 111.564 260.027C111.64 259.984 113.403 258.937 114.24 259.173C114.319 259.192 114.393 259.228 114.458 259.278C114.523 259.329 114.577 259.393 114.617 259.467C114.672 259.547 114.701 259.642 114.701 259.74C114.701 259.838 114.672 259.933 114.617 260.013C114.418 260.328 113.794 260.407 113.149 260.407ZM111.99 260.077C112.936 260.213 114.205 260.192 114.439 259.862C114.439 259.819 114.494 259.747 114.439 259.589C114.414 259.545 114.38 259.507 114.34 259.477C114.299 259.448 114.254 259.427 114.205 259.417C113.629 259.274 112.504 259.805 111.99 260.091V260.077Z" fill="#407BFF"/>
<path d="M111.626 260.278C111.604 260.286 111.58 260.286 111.557 260.278C111.54 260.266 111.527 260.248 111.518 260.228C111.51 260.208 111.507 260.186 111.509 260.164C111.554 259.417 111.828 258.705 112.291 258.134C112.383 258.048 112.493 257.983 112.611 257.946C112.73 257.909 112.855 257.9 112.977 257.919C113.307 257.955 113.403 258.127 113.423 258.27C113.512 258.866 112.312 260.006 111.701 260.286L111.626 260.278ZM112.854 258.127C112.701 258.125 112.554 258.184 112.442 258.292C112.056 258.743 111.815 259.31 111.756 259.913C112.374 259.525 113.197 258.629 113.128 258.27C113.128 258.27 113.128 258.156 112.895 258.127H112.854Z" fill="#407BFF"/>
<path d="M106.083 260.149H111.125L111.626 247.95H106.584L106.083 260.149Z" fill="#E58A7B"/>
<path d="M75.8237 260.149H80.8658L83.3972 247.95H78.3619L75.8237 260.149Z" fill="#E58A7B"/>
<path d="M81.2226 259.539H75.5631C75.462 259.54 75.3643 259.576 75.2857 259.643C75.2072 259.709 75.1526 259.802 75.1309 259.905L74.1362 264.588C74.1135 264.702 74.1156 264.82 74.1425 264.933C74.1694 265.046 74.2204 265.151 74.2916 265.241C74.3628 265.33 74.4524 265.402 74.5538 265.45C74.6552 265.499 74.7657 265.522 74.8771 265.52C76.8527 265.484 77.8131 265.362 80.3033 265.362C81.8331 265.362 84.9887 265.534 87.1084 265.534C89.2282 265.534 89.4957 263.383 88.6314 263.146C84.7486 262.257 83.2874 261.031 82.0389 259.869C81.8165 259.655 81.5248 259.537 81.2226 259.539Z" fill="#263238"/>
<path d="M111.091 259.539H105.603C105.502 259.54 105.404 259.576 105.326 259.643C105.247 259.709 105.193 259.802 105.171 259.905L104.176 264.588C104.152 264.701 104.153 264.818 104.179 264.93C104.205 265.043 104.254 265.148 104.324 265.238C104.394 265.327 104.482 265.399 104.583 265.448C104.683 265.497 104.793 265.522 104.903 265.52C106.886 265.484 109.753 265.362 112.25 265.362C115.166 265.362 117.69 265.534 121.107 265.534C123.165 265.534 123.755 263.383 122.89 263.146C118.946 262.243 115.728 262.149 112.319 259.955C111.956 259.697 111.53 259.553 111.091 259.539Z" fill="#263238"/>
<path d="M117.752 82.1484C120.702 83.6688 123.768 85.225 126.793 86.6808C129.819 88.1365 132.878 89.5493 135.917 90.7613L137.049 91.1844L137.337 91.2919H137.406C137.406 91.2919 137.406 91.2919 137.44 91.3278C137.851 91.3722 138.265 91.3208 138.654 91.1772C140.019 90.7014 141.323 90.0536 142.537 89.2481C145.31 87.4276 147.974 85.4326 150.515 83.2743L153.294 85.9564C151.177 89.018 148.715 91.8014 145.96 94.2466C144.449 95.611 142.758 96.7413 140.939 97.6028C139.747 98.167 138.454 98.4603 137.145 98.4633C136.731 98.4551 136.317 98.4096 135.91 98.3271L135.581 98.2482L135.355 98.1836L135.025 98.0904L133.708 97.7103C130.313 96.6475 126.978 95.3833 123.72 93.9238C120.482 92.4896 117.368 90.9549 114.219 89.2122L117.752 82.1484Z" fill="#E58A7B"/>
<path d="M90.7236 80.3342C85.997 81.4673 80.5776 94.928 80.5776 94.928L90.065 101.726C92.4267 98.1887 94.523 94.4652 96.3351 90.5893C99.1339 84.4291 95.553 79.1796 90.7236 80.3342Z" fill="#263238"/>
<path d="M94.1056 88.918L89.6191 101.403L90.065 101.726C90.065 101.726 92.0064 98.8575 94.1056 95.0352V88.918Z" fill="#407BFF"/>
<path opacity="0.8" d="M94.1056 88.918L89.6191 101.403L90.065 101.726C90.065 101.726 92.0064 98.8575 94.1056 95.0352V88.918Z" fill="black"/>
<path d="M118.953 80.6069C118.953 80.6069 124.317 86.9392 119.254 126.145H92.2946C92.1093 121.842 94.7093 100.715 90.7236 80.3344C93.7029 79.7346 96.7162 79.337 99.7445 79.1439C103.56 78.9143 107.385 78.9143 111.201 79.1439C113.817 79.4195 116.409 79.9086 118.953 80.6069Z" fill="#263238"/>
<path d="M121.312 92.6687L114.83 91.2344C114.926 91.3563 118.946 96.6272 121.408 99.9046C121.456 97.1077 121.422 94.7484 121.312 92.6687Z" fill="#407BFF"/>
<path opacity="0.8" d="M121.312 92.6687L114.83 91.2344C114.926 91.3563 118.946 96.6272 121.408 99.9046C121.456 97.1077 121.422 94.7484 121.312 92.6687Z" fill="black"/>
<path d="M110.501 87.6196C111.983 92.4101 126.965 97.6595 126.965 97.6595L131.424 86.6084C127.664 84.2251 123.672 82.2682 119.515 80.7709C113.437 78.7486 108.868 82.363 110.501 87.6196Z" fill="#263238"/>
<path d="M150.09 83.9911L151.565 78.6484L157.43 81.4238C157.43 81.4238 156.134 85.5688 152.587 86.5585L150.09 83.9911Z" fill="#E58A7B"/>
<path d="M155.077 74.1953L159.063 78.3045L157.43 81.3954L151.565 78.6201L155.077 74.1953Z" fill="#E58A7B"/>
<path d="M111.626 247.958L111.365 254.24H106.323L106.584 247.958H111.626Z" fill="#CF6F64"/>
<path d="M78.3552 247.958H83.3973L82.0939 254.24H77.0518L78.3552 247.958Z" fill="#CF6F64"/>
<path d="M100.444 59.8528C100.746 65.0735 100.671 68.1429 103.188 70.825C106.982 74.8553 113.142 72.4601 114.336 67.2393C115.406 62.5492 114.727 54.8041 109.836 52.7244C108.76 52.2623 107.589 52.0955 106.434 52.2399C105.279 52.3843 104.179 52.8352 103.238 53.5496C102.296 54.264 101.546 55.2181 101.057 56.3214C100.568 57.4247 100.357 58.6403 100.444 59.8528Z" fill="#E58A7B"/>
<path d="M110.144 56.3815C113.91 57.5433 117.066 51.9568 116.483 55.9082C115.9 59.8596 120.009 59.4294 120.009 59.4294C120.009 59.4294 116.785 58.1529 120.619 54.8253C125.305 50.7592 118.651 48.2635 115.735 50.4723C111.811 53.4556 111.043 48.1918 105.987 46.7791C102.557 45.8324 98.3381 48.0842 98.2627 50.6731C98.1666 53.8357 95.5667 51.2899 95.3746 55.9943C95.2443 59.0636 98.7429 69.1824 102.516 69.5267C108.196 70.0502 110.103 62.5202 110.144 56.3815Z" fill="#263238"/>
<path d="M107.181 61.3726C107.45 62.647 108.116 63.7921 109.074 64.6284C110.343 65.7041 111.358 64.7431 111.331 63.1941C111.297 61.7957 110.604 59.551 109.177 59.0777C107.75 58.6044 106.858 59.8451 107.181 61.3726Z" fill="#E58A7B"/>
<path d="M99.3603 53.6137C98.745 52.6378 98.372 51.517 98.275 50.3526C98.178 49.1881 98.36 48.0168 98.8046 46.9443C98.8046 46.9443 93.4401 51.1683 99.3603 53.6137Z" fill="#263238"/>
<path d="M95.0659 53.097C95.5977 52.8617 96.1776 52.7705 96.752 52.832C97.3264 52.8934 97.8767 53.1054 98.3519 53.4484C98.3519 53.4484 96.8289 50.1998 95.0659 53.097Z" fill="#263238"/>
<path d="M109.692 126.145C109.692 126.145 103.97 166.405 100.842 181.522C97.4121 198.016 84.4536 253.064 84.4536 253.064H75.2063C75.2063 253.064 83.7539 199.336 85.7501 182.957C87.8767 165.207 92.3289 126.116 92.3289 126.116L109.692 126.145Z" fill="#407BFF"/>
<path d="M85.9148 249.471C85.9559 249.471 84.9612 253.178 84.9612 253.178H74.5752L74.7673 249.872L85.9148 249.471Z" fill="#407BFF"/>
<path opacity="0.2" d="M85.9148 249.471C85.9559 249.471 84.9612 253.178 84.9612 253.178H74.5752L74.7673 249.872L85.9148 249.471Z" fill="black"/>
<path d="M106.076 140.488C99.4634 141.843 100.163 167.624 100.959 180.884C102.9 171.482 105.644 153.475 107.565 140.646C107.1 140.417 106.575 140.362 106.076 140.488Z" fill="#407BFF"/>
<path opacity="0.2" d="M106.076 140.488C99.4634 141.843 100.163 167.624 100.959 180.884C102.9 171.482 105.644 153.475 107.565 140.646C107.1 140.417 106.575 140.362 106.076 140.488Z" fill="black"/>
<path d="M119.254 126.145C119.254 126.145 119.94 165.53 119.399 181.601C118.829 198.31 113.225 253.028 113.225 253.028H104.711C104.711 253.028 104.396 199.285 104.025 182.877C103.614 164.985 101.549 126.145 101.549 126.145H119.254Z" fill="#407BFF"/>
<path d="M111.468 246.617C111.445 246.613 111.424 246.601 111.409 246.583C111.394 246.564 111.386 246.541 111.386 246.516C112.895 231.37 116.442 194.732 116.874 181.594C117.334 168.133 116.915 138.071 116.778 129.171C116.778 129.16 116.78 129.149 116.784 129.138C116.788 129.128 116.794 129.118 116.802 129.11C116.81 129.102 116.819 129.096 116.829 129.092C116.839 129.087 116.849 129.085 116.86 129.085C116.883 129.085 116.904 129.094 116.921 129.11C116.938 129.126 116.948 129.148 116.949 129.171C117.087 138.064 117.505 168.133 117.045 181.601C116.6 194.746 113.053 231.392 111.557 246.538C111.557 246.549 111.554 246.56 111.549 246.57C111.544 246.58 111.537 246.589 111.529 246.597C111.52 246.604 111.511 246.609 111.5 246.613C111.49 246.616 111.479 246.618 111.468 246.617Z" fill="#407BFF"/>
<path opacity="0.2" d="M111.468 246.617C111.445 246.613 111.424 246.601 111.409 246.583C111.394 246.564 111.386 246.541 111.386 246.516C112.895 231.37 116.442 194.732 116.874 181.594C117.334 168.133 116.915 138.071 116.778 129.171C116.778 129.16 116.78 129.149 116.784 129.138C116.788 129.128 116.794 129.118 116.802 129.11C116.81 129.102 116.819 129.096 116.829 129.092C116.839 129.087 116.849 129.085 116.86 129.085C116.883 129.085 116.904 129.094 116.921 129.11C116.938 129.126 116.948 129.148 116.949 129.171C117.087 138.064 117.505 168.133 117.045 181.601C116.6 194.746 113.053 231.392 111.557 246.538C111.557 246.549 111.554 246.56 111.549 246.57C111.544 246.58 111.537 246.589 111.529 246.597C111.52 246.604 111.511 246.609 111.5 246.613C111.49 246.616 111.479 246.618 111.468 246.617Z" fill="black"/>
<path d="M114.885 249.471C114.926 249.471 114.404 253.178 114.404 253.178H104.018L103.737 249.872L114.885 249.471Z" fill="#407BFF"/>
<path opacity="0.2" d="M114.885 249.471C114.926 249.471 114.404 253.178 114.404 253.178H104.018L103.737 249.872L114.885 249.471Z" fill="black"/>
</svg>
