<svg width="360" height="278" viewBox="0 0 360 278" fill="none" xmlns="http://www.w3.org/2000/svg">
<path d="M327.908 264.647H-15.9075C-15.9586 264.647 -16 264.689 -16 264.74C-16 264.791 -15.9586 264.832 -15.9075 264.832H327.908C327.959 264.832 328 264.791 328 264.74C328 264.689 327.959 264.647 327.908 264.647Z" fill="#E6E6E6"/>
<path d="M334.943 271.764H322.215C322.163 271.764 322.122 271.805 322.122 271.856C322.122 271.907 322.163 271.949 322.215 271.949H334.943C334.994 271.949 335.036 271.907 335.036 271.856C335.036 271.805 334.994 271.764 334.943 271.764Z" fill="#E6E6E6"/>
<path d="M270.435 277.298H264.641C264.59 277.298 264.549 277.339 264.549 277.39C264.549 277.441 264.59 277.483 264.641 277.483H270.435C270.486 277.483 270.528 277.441 270.528 277.39C270.528 277.339 270.486 277.298 270.435 277.298Z" fill="#E6E6E6"/>
<path d="M207.757 274.515H194.622C194.571 274.515 194.53 274.556 194.53 274.607C194.53 274.658 194.571 274.7 194.622 274.7H207.757C207.808 274.7 207.849 274.658 207.849 274.607C207.849 274.556 207.808 274.515 207.757 274.515Z" fill="#E6E6E6"/>
<path d="M74.4816 274.41H44.9519C44.9008 274.41 44.8594 274.452 44.8594 274.503C44.8594 274.554 44.9008 274.595 44.9519 274.595H74.4816C74.5327 274.595 74.5741 274.554 74.5741 274.503C74.5741 274.452 74.5327 274.41 74.4816 274.41Z" fill="#E6E6E6"/>
<path d="M37.6688 274.41H33.4987C33.4477 274.41 33.4062 274.452 33.4062 274.503C33.4062 274.554 33.4477 274.595 33.4987 274.595H37.6688C37.7199 274.595 37.7613 274.554 37.7613 274.503C37.7613 274.452 37.7199 274.41 37.6688 274.41Z" fill="#E6E6E6"/>
<path d="M190.713 269.634H126.446C126.395 269.634 126.354 269.675 126.354 269.726C126.354 269.777 126.395 269.819 126.446 269.819H190.713C190.764 269.819 190.805 269.777 190.805 269.726C190.805 269.675 190.764 269.634 190.713 269.634Z" fill="#E6E6E6"/>
<path d="M149.501 209.719H16.6555C15.6148 209.717 14.6173 209.271 13.8821 208.479C13.1468 207.687 12.7339 206.614 12.7339 205.495V4.68734C12.7429 3.57468 13.1599 2.5108 13.8942 1.72677C14.6284 0.942747 15.6207 0.501906 16.6555 0.5H149.501C150.543 0.5 151.543 0.945062 152.279 1.73728C153.016 2.52949 153.43 3.60397 153.43 4.72433V205.495C153.43 206.615 153.016 207.69 152.279 208.482C151.543 209.274 150.543 209.719 149.501 209.719ZM16.6555 0.647963C15.6604 0.649923 14.7067 1.07636 14.0037 1.83368C13.3007 2.591 12.9059 3.61731 12.9059 4.68734V205.495C12.9059 206.565 13.3007 207.591 14.0037 208.348C14.7067 209.106 15.6604 209.532 16.6555 209.534H149.501C150.497 209.532 151.452 209.106 152.156 208.349C152.86 207.592 153.256 206.566 153.258 205.495V4.68734C153.256 3.61663 152.86 2.59034 152.156 1.83323C151.452 1.07612 150.497 0.649919 149.501 0.647963H16.6555Z" fill="#E6E6E6"/>
<path d="M312.165 209.719H179.312C178.271 209.717 177.273 209.271 176.536 208.48C175.8 207.688 175.386 206.615 175.384 205.495V4.68734C175.395 3.57401 175.813 2.51013 176.548 1.72631C177.284 0.942489 178.277 0.501885 179.312 0.5H312.165C313.199 0.50385 314.189 0.945552 314.922 1.72937C315.655 2.51318 316.071 3.57596 316.08 4.68734V205.495C316.08 206.613 315.668 207.685 314.934 208.477C314.2 209.268 313.205 209.715 312.165 209.719ZM179.312 0.647963C178.317 0.649919 177.362 1.07612 176.658 1.83323C175.954 2.59034 175.558 3.61663 175.556 4.68734V205.495C175.558 206.566 175.954 207.592 176.658 208.349C177.362 209.106 178.317 209.532 179.312 209.534H312.165C313.161 209.532 314.115 209.106 314.819 208.349C315.523 207.592 315.92 206.566 315.922 205.495V4.68734C315.92 3.61663 315.523 2.59034 314.819 1.83323C314.115 1.07612 313.161 0.649919 312.165 0.647963H179.312Z" fill="#E6E6E6"/>
<path d="M152.298 15.5713H43.1499C34.8656 15.5713 28.1499 22.287 28.1499 30.5713V107.201C28.1499 115.485 34.8656 122.201 43.1499 122.201H152.298C160.582 122.201 167.298 115.485 167.298 107.201V30.5713C167.298 22.287 160.582 15.5713 152.298 15.5713Z" fill="#FAFAFA"/>
<path d="M154.983 15.5713H44.4658C36.1815 15.5713 29.4658 22.287 29.4658 30.5713V107.201C29.4658 115.485 36.1816 122.201 44.4658 122.201H154.983C163.267 122.201 169.983 115.485 169.983 107.201V30.5713C169.983 22.287 163.267 15.5713 154.983 15.5713Z" fill="#F5F5F5"/>
<path d="M179.114 103.237V35.3154C179.114 27.0312 172.398 20.3154 164.114 20.3154L60.8069 20.3154C52.5226 20.3154 45.8069 27.0312 45.8069 35.3154V103.237C45.8069 111.521 52.5226 118.237 60.8069 118.237L164.114 118.237C172.398 118.237 179.114 111.521 179.114 103.237Z" fill="#FAFAFA"/>
<path d="M76.7269 118.237C68.0909 118.237 61.6584 110.267 63.4816 101.826L78.7773 31.0055C80.1245 24.7678 85.6412 20.3154 92.0226 20.3154C100.659 20.3154 107.091 28.2856 105.268 36.7269L89.9722 107.547C88.625 113.785 83.1084 118.237 76.7269 118.237Z" fill="white"/>
<path d="M102.728 118.237C98.8282 118.237 95.9232 114.637 96.7469 110.825L115.259 25.1427C115.867 22.3259 118.358 20.3154 121.24 20.3154C125.14 20.3154 128.045 23.9151 127.222 27.7274L108.71 113.41C108.101 116.227 105.61 118.237 102.728 118.237Z" fill="white"/>
<path d="M179.114 118.007V20.5459C179.114 20.4186 179.011 20.3154 178.883 20.3154C178.756 20.3154 178.653 20.4186 178.653 20.5459V118.007C178.653 118.134 178.756 118.237 178.883 118.237C179.011 118.237 179.114 118.134 179.114 118.007Z" fill="#FAFAFA"/>
<path d="M25.1943 15.1022V49.4616C25.1943 53.8239 28.7307 57.3603 33.093 57.3603C34.718 57.3603 36.2975 56.8672 37.5316 55.8099C42.4198 51.6215 55.0886 38.9155 58.5142 17.3068C58.6177 16.6614 58.5885 15.9993 58.4285 15.3673C58.2685 14.7353 57.9817 14.1486 57.5882 13.6486C57.1947 13.1486 56.7041 12.7474 56.1509 12.4732C55.5977 12.199 54.9953 12.0585 54.3862 12.0616H28.022C27.2721 12.0616 26.5528 12.3819 26.0225 12.9522C25.4923 13.5224 25.1943 14.2958 25.1943 15.1022Z" fill="#E0E0E0"/>
<path d="M40.1943 139.363C31.9101 139.363 25.1943 132.647 25.1943 124.363V71.569C25.1943 68.0414 28.0541 65.1816 31.5817 65.1816C34.0326 65.1816 36.254 66.5608 37.2703 68.791C41.3032 77.6413 51.5652 101.308 56.5543 123.336C58.4885 131.877 51.6404 139.363 42.884 139.363H40.1943Z" fill="#E0E0E0"/>
<path d="M35.2261 61.4619H25.5115C24.9378 61.4619 24.4727 61.9621 24.4727 62.579V63.7553C24.4727 64.3723 24.9378 64.8725 25.5115 64.8725H35.2261C35.7999 64.8725 36.265 64.3723 36.265 63.7553V62.579C36.265 61.9621 35.7999 61.4619 35.2261 61.4619Z" fill="#F5F5F5"/>
<path d="M183.181 15.1022V49.4436C183.181 53.8159 179.637 57.3603 175.264 57.3603C173.638 57.3603 172.056 56.8672 170.82 55.8095C165.925 51.6207 153.244 38.9148 149.841 17.3068C149.738 16.6615 149.768 16 149.929 15.3685C150.089 14.7371 150.376 14.1509 150.77 13.6513C151.163 13.1516 151.653 12.7504 152.206 12.4758C152.758 12.2012 153.36 12.0598 153.969 12.0615H180.36C181.109 12.0654 181.825 12.3873 182.353 12.9569C182.882 13.5265 183.179 14.2976 183.181 15.1022Z" fill="#E0E0E0"/>
<path d="M168.129 139.363C176.413 139.363 183.129 132.647 183.129 124.363V71.5814C183.129 68.0469 180.263 65.1816 176.729 65.1816C174.273 65.1816 172.047 66.5639 171.029 68.7988C166.995 77.6548 156.741 101.312 151.751 123.333C149.816 131.874 156.664 139.363 165.422 139.363H168.129Z" fill="#E0E0E0"/>
<path d="M176.234 65.1738H185.948C186.522 65.1738 186.987 64.6737 186.987 64.0567V62.8804C186.987 62.2634 186.522 61.7633 185.948 61.7633H176.234C175.66 61.7633 175.195 62.2634 175.195 62.8804V64.0567C175.195 64.6737 175.66 65.1738 176.234 65.1738Z" fill="#F5F5F5"/>
<path d="M180.725 244.592V172.21C180.725 165.897 175.607 160.779 169.293 160.779C162.98 160.779 157.862 165.897 157.862 172.21V244.592C157.862 250.905 162.98 256.023 169.293 256.023C175.607 256.023 180.725 250.905 180.725 244.592Z" fill="#FAFAFA"/>
<path d="M174.466 261.725C175.159 262.918 176.435 263.651 177.814 263.651C179.954 263.651 181.688 261.917 181.688 259.777V257.215C181.688 254.694 179.645 252.65 177.123 252.65C173.603 252.65 171.407 256.467 173.177 259.51L174.466 261.725Z" fill="#F4F8FF"/>
<path d="M61.1718 244.592V172.21C61.1718 165.897 56.0539 160.779 49.7407 160.779C43.4275 160.779 38.3096 165.897 38.3096 172.21V244.592C38.3096 250.905 43.4275 256.023 49.7407 256.023C56.0539 256.023 61.1718 250.905 61.1718 244.592Z" fill="#E0E0E0"/>
<path d="M157.181 160.779H72.478C64.1938 160.779 57.478 167.495 57.478 175.779V237.235C57.478 245.519 64.1938 252.235 72.478 252.235H157.181C165.466 252.235 172.181 245.519 172.181 237.235V175.779C172.181 167.495 165.466 160.779 157.181 160.779Z" fill="#FAFAFA"/>
<path d="M110.145 143.143C101.861 143.143 95.2276 151.046 101.96 155.873C104.963 158.026 108.738 159.315 112.827 159.315H121.606C125.693 159.315 129.468 158.028 132.471 155.875C139.204 151.048 132.565 143.143 124.281 143.143H110.145Z" fill="#EBEBEB"/>
<path d="M91.6811 128.923C90.8492 124.979 93.6738 120.98 97.7045 120.98C101.736 120.98 104.561 124.981 103.729 128.925C103.359 130.682 103.093 132.452 103.093 133.912C103.093 138.706 115.656 157.475 97.7058 157.475C79.7558 157.475 92.3187 138.699 92.3187 133.912C92.3187 132.453 92.052 130.681 91.6811 128.923Z" fill="#E0E0E0"/>
<path d="M156.358 166.854H74.1818C67.814 166.854 62.6519 172.017 62.6519 178.384C62.6519 184.752 67.814 189.914 74.1818 189.914H156.358C162.726 189.914 167.888 184.752 167.888 178.384C167.888 172.017 162.726 166.854 156.358 166.854Z" fill="#EBEBEB"/>
<path d="M64.7015 261.726C64.0075 262.918 62.7322 263.651 61.3529 263.651C59.2129 263.651 57.478 261.917 57.478 259.777V257.216C57.478 254.695 59.5223 252.65 62.0439 252.65C65.5662 252.65 67.762 256.47 65.9897 259.514L64.7015 261.726Z" fill="#FAFAFA"/>
<path d="M116.63 179.11C116.63 179.798 116.82 180.47 117.175 181.042C117.53 181.614 118.035 182.059 118.626 182.322C119.217 182.586 119.867 182.654 120.494 182.52C121.122 182.386 121.698 182.055 122.15 181.569C122.602 181.082 122.91 180.463 123.035 179.788C123.16 179.114 123.096 178.415 122.851 177.779C122.606 177.144 122.192 176.601 121.66 176.219C121.128 175.837 120.503 175.633 119.863 175.633C119.006 175.633 118.183 175.999 117.577 176.651C116.971 177.303 116.63 178.188 116.63 179.11Z" fill="#FAFAFA"/>
<path d="M156.358 198.078H74.1818C67.814 198.078 62.6519 203.24 62.6519 209.608C62.6519 215.976 67.814 221.138 74.1818 221.138H156.358C162.726 221.138 167.888 215.976 167.888 209.608C167.888 203.24 162.726 198.078 156.358 198.078Z" fill="#EBEBEB"/>
<path d="M116.63 210.334C116.63 211.021 116.82 211.694 117.175 212.265C117.53 212.837 118.035 213.283 118.626 213.546C119.217 213.809 119.867 213.878 120.494 213.744C121.122 213.61 121.698 213.279 122.15 212.792C122.602 212.306 122.91 211.686 123.035 211.012C123.16 210.337 123.096 209.638 122.851 209.003C122.606 208.368 122.192 207.825 121.66 207.442C121.128 207.06 120.503 206.856 119.863 206.856C119.006 206.856 118.183 207.223 117.577 207.875C116.971 208.527 116.63 209.411 116.63 210.334Z" fill="#FAFAFA"/>
<path d="M156.358 229.293H74.1818C67.814 229.293 62.6519 234.455 62.6519 240.823C62.6519 247.191 67.814 252.353 74.1818 252.353H156.358C162.726 252.353 167.888 247.191 167.888 240.823C167.888 234.455 162.726 229.293 156.358 229.293Z" fill="#EBEBEB"/>
<path d="M119.863 245.033C121.649 245.033 123.097 243.477 123.097 241.556C123.097 239.636 121.649 238.079 119.863 238.079C118.078 238.079 116.63 239.636 116.63 241.556C116.63 243.477 118.078 245.033 119.863 245.033Z" fill="#FAFAFA"/>
<path d="M242.399 14.167H221.329C213.044 14.167 206.329 20.8827 206.329 29.167V38.2587C206.329 46.543 213.044 53.2587 221.329 53.2587H242.399C250.683 53.2587 257.399 46.543 257.399 38.2587V29.167C257.399 20.8827 250.683 14.167 242.399 14.167Z" fill="#E0E0E0"/>
<path d="M246.839 14.167H224.502C216.218 14.167 209.502 20.8827 209.502 29.167V38.2587C209.502 46.543 216.218 53.2587 224.502 53.2587H246.839C255.123 53.2587 261.839 46.543 261.839 38.2587V29.167C261.839 20.8827 255.123 14.167 246.839 14.167Z" fill="#F5F5F5"/>
<path d="M263.06 34.9956V33.0801C263.06 24.7958 256.344 18.0801 248.06 18.0801L232.397 18.0801C224.113 18.0801 217.397 24.7958 217.397 33.0801V34.9956C217.397 43.2799 224.113 49.9956 232.397 49.9956H248.06C256.344 49.9956 263.06 43.2799 263.06 34.9956Z" fill="white"/>
<path d="M231.348 41.5379H247.614C251.294 41.5379 254.276 38.5552 254.276 34.8759C254.276 31.1966 251.294 28.2139 247.614 28.2139H231.348C227.668 28.2139 224.685 31.1966 224.685 34.8759C224.685 38.5552 227.668 41.5379 231.348 41.5379Z" fill="#F5F5F5"/>
<path d="M289.544 35.4834H288.46C280.176 35.4834 273.46 42.1991 273.46 50.4834V55.5357C273.46 63.82 280.176 70.5357 288.46 70.5357H289.544C297.828 70.5357 304.544 63.82 304.544 55.5358V50.4834C304.544 42.1991 297.828 35.4834 289.544 35.4834Z" fill="#E0E0E0"/>
<path d="M293.997 35.4834H291.641C283.356 35.4834 276.641 42.1991 276.641 50.4834V55.5357C276.641 63.82 283.356 70.5357 291.641 70.5357H293.997C302.282 70.5357 308.997 63.82 308.997 55.5358V50.4834C308.997 42.1991 302.282 35.4834 293.997 35.4834Z" fill="#F5F5F5"/>
<path d="M308.36 54.4311V52.238C308.36 45.1458 302.611 39.3965 295.519 39.3965C288.427 39.3965 282.677 45.1458 282.677 52.238V54.4311C282.677 61.5233 288.427 67.2726 295.519 67.2726C302.611 67.2726 308.36 61.5233 308.36 54.4311Z" fill="white"/>
<path d="M289.071 54.1753C289.071 52.9444 289.526 51.7638 290.334 50.8927C291.143 50.0216 292.24 49.5313 293.385 49.5293H294.362C295.507 49.5313 296.604 50.0216 297.413 50.8927C298.222 51.7638 298.676 52.9444 298.676 54.1753C298.676 55.4056 298.221 56.5854 297.412 57.4553C296.603 58.3252 295.506 58.814 294.362 58.814H293.419C292.85 58.8188 292.285 58.7025 291.758 58.4715C291.231 58.2406 290.751 57.8997 290.347 57.4685C289.943 57.0373 289.622 56.5242 289.403 55.959C289.184 55.3938 289.071 54.7876 289.071 54.1753Z" fill="#F5F5F5"/>
<path d="M341.259 101.707C341.259 93.4228 334.544 86.707 326.259 86.707H259.181H254.457C248.824 86.707 244.258 91.273 244.258 96.9054V99.6423C244.258 103.763 240.918 107.104 236.797 107.104C232.676 107.104 229.336 110.444 229.336 114.565V120.039C229.336 124.16 225.995 127.5 221.874 127.5C217.753 127.5 214.413 130.841 214.413 134.962V140.436C214.413 144.556 211.072 147.897 206.952 147.897C202.831 147.897 199.49 151.238 199.49 155.358V160.832C199.49 164.953 196.15 168.294 192.029 168.294C187.908 168.294 184.567 171.634 184.567 175.755V181.221C184.567 185.342 181.227 188.683 177.106 188.683C172.985 188.683 169.645 192.023 169.645 196.144V201.618C169.645 205.739 166.304 209.08 162.183 209.08C158.063 209.08 154.722 212.42 154.722 216.541V222.015C154.722 226.136 151.381 229.476 147.261 229.476C143.14 229.476 139.799 232.817 139.799 236.938V239.674C139.799 245.307 144.365 249.873 149.998 249.873H154.722H326.259C334.544 249.873 341.259 243.157 341.259 234.873V101.707Z" fill="#FAFAFA"/>
<path d="M220.121 242.404H141.182C139.492 242.404 138.123 243.774 138.123 245.463C138.123 247.153 139.492 248.523 141.182 248.523H220.121C221.81 248.523 223.18 247.153 223.18 245.463C223.18 243.774 221.81 242.404 220.121 242.404Z" fill="#EBEBEB"/>
<path d="M236.431 220.16H157.492C155.803 220.16 154.433 221.53 154.433 223.219C154.433 224.909 155.803 226.278 157.492 226.278H236.431C238.121 226.278 239.491 224.909 239.491 223.219C239.491 221.53 238.121 220.16 236.431 220.16Z" fill="#EBEBEB"/>
<path d="M252.742 197.917H173.803C172.114 197.917 170.744 199.287 170.744 200.976C170.744 202.666 172.114 204.035 173.803 204.035H252.742C254.432 204.035 255.802 202.666 255.802 200.976C255.802 199.287 254.432 197.917 252.742 197.917Z" fill="#EBEBEB"/>
<path d="M269.053 175.673H190.114C188.425 175.673 187.055 177.042 187.055 178.732C187.055 180.421 188.425 181.791 190.114 181.791H269.053C270.743 181.791 272.113 180.421 272.113 178.732C272.113 177.042 270.743 175.673 269.053 175.673Z" fill="#EBEBEB"/>
<path d="M285.364 153.438H206.425C204.735 153.438 203.366 154.807 203.366 156.497C203.366 158.186 204.735 159.556 206.425 159.556H285.364C287.054 159.556 288.423 158.186 288.423 156.497C288.423 154.807 287.054 153.438 285.364 153.438Z" fill="#EBEBEB"/>
<path d="M301.675 131.194H222.736C221.046 131.194 219.677 132.564 219.677 134.253C219.677 135.943 221.046 137.313 222.736 137.313H301.675C303.365 137.313 304.734 135.943 304.734 134.253C304.734 132.564 303.365 131.194 301.675 131.194Z" fill="#EBEBEB"/>
<path d="M317.986 108.95H239.047C237.357 108.95 235.988 110.32 235.988 112.009C235.988 113.699 237.357 115.068 239.047 115.068H317.986C319.676 115.068 321.045 113.699 321.045 112.009C321.045 110.32 319.676 108.95 317.986 108.95Z" fill="#EBEBEB"/>
<path d="M334.297 86.707H255.357C253.668 86.707 252.298 88.0766 252.298 89.7662C252.298 91.4557 253.668 92.8253 255.357 92.8253H334.297C335.986 92.8253 337.356 91.4557 337.356 89.7662C337.356 88.0766 335.986 86.707 334.297 86.707Z" fill="#EBEBEB"/>
<path d="M341.433 86.707C337.312 86.707 333.972 90.0476 333.972 94.1684V99.6423C333.972 103.763 330.631 107.104 326.51 107.104C322.39 107.104 319.049 110.444 319.049 114.565V120.039C319.049 124.16 315.708 127.5 311.588 127.5C307.467 127.5 304.126 130.841 304.126 134.962V140.436C304.126 144.556 300.786 147.897 296.665 147.897C292.544 147.897 289.204 151.238 289.204 155.358V160.832C289.204 164.953 285.863 168.294 281.742 168.294C277.621 168.294 274.281 171.634 274.281 175.755V181.221C274.281 185.342 270.94 188.683 266.819 188.683C262.699 188.683 259.358 192.023 259.358 196.144V201.618C259.358 205.739 256.018 209.08 251.897 209.08C247.776 209.08 244.435 212.42 244.435 216.541V222.015C244.435 226.136 241.095 229.476 236.974 229.476C232.853 229.476 229.513 232.817 229.513 236.938V239.674C229.513 245.307 234.079 249.873 239.711 249.873H244.435H333.894C342.179 249.873 348.894 243.157 348.894 234.873V107.104V94.1684C348.894 90.0476 345.554 86.707 341.433 86.707Z" fill="white"/>
<path d="M159.591 147.011C233.264 147.011 292.987 143.262 292.987 138.636C292.987 134.011 233.264 130.262 159.591 130.262C85.9184 130.262 26.1948 134.011 26.1948 138.636C26.1948 143.262 85.9184 147.011 159.591 147.011Z" fill="#F5F5F5"/>
<path d="M257.236 47.2744C257.849 47.121 258.162 47.7415 258.394 48.3289C259.821 51.9387 264.05 57.7803 264.411 62.127C264.985 69.0468 254.164 66.5655 253.172 59.6933C252.451 54.7068 252.315 50.1095 253.967 49.0027C255.649 47.8749 256.646 47.4221 257.236 47.2744Z" fill="#263238"/>
<path d="M234.09 71.7268C235.019 72.9261 234.867 74.6439 233.685 75.5948C232.876 76.2453 232.063 76.8656 231.232 77.4947C229.698 78.6562 228.116 79.7141 226.506 80.7055C224.89 81.7335 223.225 82.6694 221.518 83.5094C220.651 83.9311 219.791 84.3453 218.896 84.7079C218.456 84.9002 218.009 85.0852 217.555 85.2479L216.179 85.7658C215.002 86.1195 213.772 86.2151 212.56 86.0469C211.547 85.9196 210.545 85.7118 209.56 85.4255C207.726 84.8796 205.93 84.1922 204.187 83.3688C201.212 81.9723 198.33 80.3601 195.56 78.5436C194.905 78.1142 194.685 77.2612 195.035 76.5607C195.412 75.8063 196.318 75.487 197.089 75.8304C198.269 76.3568 199.464 76.8692 200.651 77.3319C202.302 77.9756 203.967 78.6562 205.632 79.2111C207.255 79.7831 208.909 80.2476 210.585 80.6019C211.355 80.7637 212.135 80.8651 212.918 80.9052C213.502 80.9539 214.089 80.8887 214.652 80.7129C216.221 80.0671 217.756 79.3261 219.247 78.4934C220.011 78.0643 220.768 77.6279 221.511 77.1544C222.254 76.6809 223.011 76.2222 223.747 75.7339C225.226 74.75 226.671 73.7068 228.102 72.6341C228.701 72.1847 229.3 71.7223 229.886 71.2566C231.181 70.2291 233.077 70.4205 234.09 71.7268Z" fill="#E58A7B"/>
<path d="M242.538 65.6472C241.254 64.5674 236.941 66.9591 233.972 69.0448C232.454 70.1113 231.803 71.9712 232.085 73.805C232.643 77.436 236.53 79.5448 239.627 77.5684C241.776 76.1967 243.695 74.6386 243.949 73.3339C244.588 70.0713 243.811 66.7421 242.538 65.6472Z" fill="#407BFF"/>
<path opacity="0.2" d="M242.538 65.6472C241.254 64.5674 236.941 66.9591 233.972 69.0448C232.454 70.1113 231.803 71.9712 232.085 73.805C232.643 77.436 236.53 79.5448 239.627 77.5684C241.776 76.1967 243.695 74.6386 243.949 73.3339C244.588 70.0713 243.811 66.7421 242.538 65.6472Z" fill="black"/>
<path d="M264.638 84.5089C265.348 90.9025 261.544 97.0834 255.248 98.4031C249.542 99.5989 243.812 96.345 242.026 90.7963C236.952 75.0342 236.303 69.7891 236.384 68.0538C236.411 67.4556 236.856 67.0493 237.378 66.7558C238.69 66.0174 240.038 65.3524 241.415 64.7634L241.704 64.6451C243.08 64.105 243.355 64.0236 245.185 63.4466C248.336 62.6402 251.274 61.9669 254.913 61.4121L255.601 61.3085C256.289 61.2197 256.915 61.1458 257.548 61.0792C257.975 61.0274 258.401 60.9978 258.807 60.9682L260.183 60.8868C262.405 60.7681 264.16 62.6201 264.109 64.844C263.902 73.914 264.108 79.7312 264.638 84.5089Z" fill="#407BFF"/>
<path opacity="0.2" d="M264.638 84.5089C265.348 90.9025 261.544 97.0834 255.248 98.4031C249.542 99.5989 243.812 96.345 242.026 90.7963C236.952 75.0342 236.303 69.7891 236.384 68.0538C236.411 67.4556 236.856 67.0493 237.378 66.7558C238.69 66.0174 240.038 65.3524 241.415 64.7634L241.704 64.6451C243.08 64.105 243.355 64.0236 245.185 63.4466C248.336 62.6402 251.274 61.9669 254.913 61.4121L255.601 61.3085C256.289 61.2197 256.915 61.1458 257.548 61.0792C257.975 61.0274 258.401 60.9978 258.807 60.9682L260.183 60.8868C262.405 60.7681 264.16 62.6201 264.109 64.844C263.902 73.914 264.108 79.7312 264.638 84.5089Z" fill="black"/>
<path d="M251.151 49.3478C251.144 49.3614 251.136 49.3744 251.129 49.3881C249.794 51.822 254.761 52.9401 257.704 50.4394C260.064 48.4271 259.507 43.7811 257.484 42.701C255.52 41.652 251.388 48.9273 251.151 49.3478Z" fill="#407BFF"/>
<path opacity="0.4" d="M251.151 49.3478C251.144 49.3614 251.136 49.3744 251.129 49.3881C249.794 51.822 254.761 52.9401 257.704 50.4394C260.064 48.4271 259.507 43.7811 257.484 42.701C255.52 41.652 251.388 48.9273 251.151 49.3478Z" fill="black"/>
<path d="M272.856 240.655C273.082 242.191 271.963 243.597 270.416 243.721C269.009 243.834 267.755 242.836 267.549 241.44L266.374 233.494C266.147 231.958 267.266 230.552 268.813 230.428C270.221 230.315 271.475 231.313 271.681 232.709L272.856 240.655Z" fill="#E58A7B"/>
<path d="M312.403 221.227C313.383 222.477 313.097 224.295 311.782 225.185C310.591 225.992 308.979 225.739 308.091 224.607L303.381 218.6C302.401 217.35 302.685 215.532 303.999 214.641C305.192 213.832 306.807 214.084 307.695 215.218L312.403 221.227Z" fill="#E58A7B"/>
<path d="M268.819 230.432C267.27 230.554 266.147 231.962 266.374 233.5L266.637 235.283C266.858 236.783 268.277 237.802 269.769 237.533C271.194 237.276 272.158 235.934 271.948 234.501L271.686 232.718C271.48 231.321 270.227 230.321 268.819 230.432Z" fill="#CF6F64"/>
<path d="M307.703 215.225C306.816 214.094 305.2 213.836 304.009 214.641C302.691 215.532 302.409 217.359 303.392 218.611C304.261 219.718 305.832 219.991 307.02 219.237C308.389 218.368 308.705 216.501 307.703 215.225Z" fill="#CF6F64"/>
<path d="M252.535 102.52C248.987 103.263 246.446 106.373 246.479 109.998C246.597 123.091 247.161 153.44 249.847 166.753C252.821 181.48 260.541 211.642 263.196 221.916C263.718 223.934 265.664 225.218 267.728 224.932C269.987 224.618 271.56 222.533 271.23 220.275C269.642 209.43 265.301 179.77 263.221 165.377C261.236 151.621 261.523 124.771 261.858 110.304C261.973 105.319 257.416 101.499 252.535 102.52Z" fill="#407BFF"/>
<path opacity="0.7" d="M252.535 102.52C248.987 103.263 246.446 106.373 246.479 109.998C246.597 123.091 247.161 153.44 249.847 166.753C252.821 181.48 260.541 211.642 263.196 221.916C263.718 223.934 265.664 225.218 267.728 224.932C269.987 224.618 271.56 222.533 271.23 220.275C269.642 209.43 265.301 179.77 263.221 165.377C261.236 151.621 261.523 124.771 261.858 110.304C261.973 105.319 257.416 101.499 252.535 102.52Z" fill="black"/>
<path opacity="0.5" d="M262.714 122.998C262.719 122.517 262.539 122.053 262.211 121.702C261.049 120.457 258.97 121.29 259.002 122.993C259.033 124.597 259.073 126.121 259.123 127.575C259.271 131.822 262.656 131.42 262.679 127.171C262.687 125.751 262.699 124.357 262.714 122.998Z" fill="black"/>
<path d="M262.784 100.295C257.135 101.48 253.712 107.244 255.371 112.773C259.202 125.54 265.68 147.429 269.53 162.071C274.406 180.613 290.434 200.74 296.434 207.813C297.748 209.362 299.98 209.67 301.705 208.598C303.717 207.349 304.322 204.694 303.089 202.672C298.49 195.133 288.183 177.165 283.73 160.769C273.735 124.021 275.652 111.735 271.229 103.473C269.652 100.527 266.054 99.6089 262.784 100.295Z" fill="#407BFF"/>
<path opacity="0.7" d="M262.784 100.295C257.135 101.48 253.712 107.244 255.371 112.773C259.202 125.54 265.68 147.429 269.53 162.071C274.406 180.613 290.434 200.74 296.434 207.813C297.748 209.362 299.98 209.67 301.705 208.598C303.717 207.349 304.322 204.694 303.089 202.672C298.49 195.133 288.183 177.165 283.73 160.769C273.735 124.021 275.652 111.735 271.229 103.473C269.652 100.527 266.054 99.6089 262.784 100.295Z" fill="black"/>
<path d="M238.842 36.0089C240.73 35.3605 242.869 35.7833 244.025 37.4104C246.102 40.3334 247.685 45.5283 247.773 47.9424C248.008 54.4392 236.676 50.3452 235.981 43.8814C235.783 42.0366 235.754 40.2094 236.022 38.5986C236.248 37.2393 237.538 36.4566 238.842 36.0089Z" fill="#263238"/>
<path d="M195.825 76.5875C195.859 75.9883 195.66 75.3992 195.27 74.9428L195.009 74.6366C193.868 73.3011 191.692 73.8424 191.31 75.5567C191.147 76.2871 191.376 77.0575 191.995 77.479C192.555 77.8611 193.309 78.2806 194.101 78.4481C195.088 78.6568 195.762 77.7038 195.819 76.6966L195.825 76.5875Z" fill="#E58A7B"/>
<path d="M189.121 70.4047C188.476 70.1911 187.765 70.3304 187.249 70.772C186.346 71.5429 186.34 72.9355 187.236 73.7144L187.895 74.288C189.106 75.3416 191.003 74.7175 191.352 73.1507C191.589 72.0892 190.983 71.0211 189.951 70.6793L189.121 70.4047Z" fill="#E58A7B"/>
<path d="M308.626 226.2L312.877 221.591C312.951 221.512 313.048 221.464 313.152 221.456C313.255 221.448 313.358 221.48 313.442 221.547L317.315 224.639C317.411 224.72 317.49 224.822 317.546 224.938C317.603 225.054 317.636 225.182 317.643 225.313C317.65 225.443 317.631 225.574 317.588 225.697C317.544 225.819 317.477 225.93 317.391 226.023C315.877 227.598 315.079 228.279 313.208 230.306C312.059 231.556 310.497 233.502 308.908 235.226C307.318 236.95 305.646 235.344 306.156 234.486C308.474 230.587 308.061 229.13 308.22 227.147C308.244 226.789 308.388 226.452 308.626 226.2Z" fill="#263238"/>
<path d="M266.917 244.258H272.958C273.064 244.258 273.167 244.298 273.249 244.371C273.33 244.444 273.386 244.545 273.405 244.657L274.354 249.792C274.376 249.918 274.371 250.048 274.34 250.172C274.309 250.296 274.254 250.411 274.177 250.509C274.1 250.607 274.004 250.686 273.895 250.74C273.787 250.794 273.669 250.821 273.55 250.82C271.437 250.783 270.419 250.65 267.763 250.65C266.133 250.65 262.762 250.827 260.505 250.827C258.248 250.827 258.008 248.43 258.936 248.216C263.064 247.239 264.681 245.9 266.037 244.613C266.282 244.387 266.594 244.261 266.917 244.258Z" fill="#263238"/>
<g style="mix-blend-mode:multiply" opacity="0.27">
<path d="M267.266 76.3347C267.271 75.1143 265.924 74.3811 264.897 75.0394C264.338 75.3975 264.069 76.0717 264.228 76.716L267.773 91.0486C267.046 86.9707 267.238 82.5428 267.266 76.3347Z" fill="#407BFF"/>
</g>
<path d="M254 37.6648C249.009 41.7911 251.993 52.295 256.819 47.9776C260.259 44.8851 262.667 36.7694 256.496 36.4735C255.778 36.4389 254.912 36.9105 254 37.6648Z" fill="#263238"/>
<path d="M248.403 54.5071C249.732 52.711 252.776 53.6602 253.277 55.8374C253.548 57.0161 253.918 58.1115 254.418 58.9815C255.017 60.0258 255.637 61.2252 254.955 62.2174C254.207 63.305 252.692 64.6059 249.624 65.2453C247.123 65.7693 246.017 65.4582 245.597 64.8854C244.599 63.5247 246.999 62.2682 247.913 60.8505C248.681 59.6607 248.551 58.2466 248.091 56.8462C247.832 56.0545 247.908 55.1769 248.403 54.5071Z" fill="#E58A7B"/>
<path d="M251.16 53.6567C251.123 52.8411 250.142 52.6894 249.657 53.3462L248.206 55.3111C247.965 55.6374 247.922 56.0651 248.067 56.444C248.305 57.0661 248.995 57.4064 249.496 56.9676C250.445 56.1355 251.256 54.7822 251.16 53.6567Z" fill="#CF6F64"/>
<path d="M252.222 39.488C252.91 45.1771 253.329 47.5667 251.21 51.0069C248.025 56.1856 241.379 55.8526 239.115 50.5038C237.051 45.6876 236.281 37.1872 240.987 33.895C242.021 33.1584 243.214 32.7188 244.452 32.618C245.689 32.5173 246.93 32.7587 248.056 33.3193C249.182 33.8799 250.156 34.741 250.885 35.8208C251.614 36.9005 252.074 38.163 252.222 39.488Z" fill="#E58A7B"/>
<path d="M243.452 29.0311C239.874 31.761 247.05 32.5674 247.057 36.5254C247.057 37.0064 247.273 37.795 247.669 38.6608C249.588 42.861 254.402 40.572 256.544 36.481C260.163 30.1926 251.611 22.7944 243.452 29.0311Z" fill="#263238"/>
<path d="M245.194 31.0663C243.631 29.8383 241.238 29.0217 239.363 29.6846C233.366 31.8055 239.911 37.5328 246.264 37.85C246.805 37.877 247.346 37.9155 247.886 37.9656C254.102 38.6479 248.7 33.8189 245.194 31.0663Z" fill="#263238"/>
<path d="M255.14 45.2945C255.227 46.3988 254.903 47.4952 254.239 48.3426C253.351 49.4597 252.175 48.8012 251.762 47.477C251.411 46.2785 251.452 44.2588 252.649 43.6226C252.914 43.491 253.204 43.4324 253.495 43.4519C253.786 43.4715 254.068 43.5686 254.315 43.7345C254.562 43.9004 254.767 44.1299 254.911 44.4023C255.055 44.6746 255.134 44.9813 255.14 45.2945Z" fill="#E58A7B"/>
<path d="M245.142 43.5702C245.224 44.0289 245.066 44.4432 244.791 44.5024C244.516 44.5615 244.22 44.236 244.137 43.7625C244.055 43.2891 244.213 42.8822 244.488 42.823C244.763 42.7638 245.059 43.1115 245.142 43.5702Z" fill="#263238"/>
<path d="M239.885 44.6686C239.967 45.1273 239.809 45.549 239.534 45.6082C239.259 45.6673 238.963 45.3418 238.88 44.8683C238.798 44.3949 238.956 43.988 239.231 43.9362C239.506 43.8844 239.802 44.2025 239.885 44.6686Z" fill="#263238"/>
<path d="M238.991 44.1916C239.179 44.1484 239.084 43.916 238.892 43.8989C238.656 43.8779 238.553 44.1406 238.784 44.1902C238.853 44.2048 238.923 44.2074 238.991 44.1916Z" fill="#263238"/>
<path d="M241.954 48.1636C241.852 47.6001 240.857 47.5612 240.641 48.0913C240.537 48.3459 240.641 48.6479 240.912 48.699C241.018 48.7191 241.126 48.7293 241.235 48.7293C241.379 48.7293 241.523 48.7112 241.664 48.6755C241.884 48.6195 241.994 48.3874 241.954 48.1636Z" fill="#DF5753"/>
<path d="M244.12 50.2348C244.09 50.2352 244.062 50.2243 244.039 50.2039C244.016 50.1836 244.001 50.1552 243.996 50.1238C243.993 50.1063 243.994 50.0883 243.997 50.0709C244.001 50.0536 244.008 50.0372 244.017 50.0227C244.027 50.0082 244.039 49.9959 244.053 49.9866C244.067 49.9773 244.083 49.9711 244.099 49.9684C244.631 49.8689 245.134 49.6363 245.566 49.2893C245.999 48.9423 246.35 48.4907 246.59 47.9709C246.596 47.9544 246.605 47.9394 246.617 47.9268C246.629 47.9141 246.643 47.9041 246.658 47.8972C246.674 47.8903 246.69 47.8868 246.707 47.8867C246.723 47.8867 246.74 47.8902 246.755 47.897C246.77 47.9038 246.784 47.9137 246.796 47.9264C246.808 47.939 246.817 47.9539 246.824 47.9704C246.83 47.9869 246.833 48.0046 246.833 48.0225C246.833 48.0403 246.83 48.058 246.824 48.0745C246.572 48.6393 246.197 49.1305 245.731 49.5065C245.273 49.8767 244.739 50.1245 244.175 50.2298C244.157 50.2332 244.138 50.2348 244.12 50.2348Z" fill="#263238"/>
<path d="M246.334 41.3402C246.276 41.3804 246.198 41.3869 246.133 41.358C246.108 41.347 246.085 41.3318 246.064 41.3129C245.833 41.0763 245.553 40.9021 245.247 40.8043C244.94 40.7066 244.617 40.6882 244.303 40.7506C244.234 40.7693 244.16 40.7575 244.099 40.718C244.038 40.6785 243.994 40.6144 243.976 40.5398C243.959 40.4652 243.97 40.3863 244.007 40.3204C244.043 40.2545 244.103 40.207 244.172 40.1884C244.569 40.1044 244.979 40.123 245.368 40.2426C245.756 40.3623 246.113 40.5795 246.408 40.8764C246.455 40.9276 246.482 40.9967 246.482 41.0688C246.482 41.1031 246.476 41.1368 246.464 41.1682C246.44 41.2365 246.394 41.299 246.334 41.3402Z" fill="#263238"/>
<path d="M237.1 42.4243C237.065 42.4327 237.029 42.4377 236.992 42.4367C236.964 42.4359 236.936 42.4263 236.913 42.4106C236.896 42.3995 236.88 42.3862 236.866 42.3712C236.842 42.3454 236.823 42.3147 236.81 42.2809C236.798 42.2472 236.791 42.211 236.792 42.1745C236.792 42.138 236.799 42.102 236.813 42.0685C236.959 41.6639 237.193 41.303 237.496 41.0159C237.799 40.7288 238.162 40.5241 238.553 40.4187C238.586 40.4113 238.62 40.4112 238.653 40.4185C238.687 40.4257 238.718 40.4402 238.746 40.461C238.773 40.4818 238.797 40.5085 238.815 40.5394C238.832 40.5703 238.844 40.6047 238.849 40.6407C238.856 40.6757 238.856 40.7119 238.85 40.7471C238.844 40.7822 238.831 40.8157 238.812 40.8454C238.794 40.8751 238.77 40.9004 238.742 40.9199C238.714 40.9394 238.682 40.9526 238.649 40.9588C238.34 41.0495 238.055 41.2164 237.816 41.4462C237.577 41.6761 237.391 41.9626 237.273 42.2831C237.251 42.3273 237.219 42.3643 237.179 42.3904C237.154 42.4062 237.128 42.4176 237.1 42.4243Z" fill="#263238"/>
<path d="M307.055 229.376C306.937 229.373 306.821 229.339 306.718 229.277C306.615 229.215 306.527 229.127 306.463 229.021C306.414 228.958 306.381 228.883 306.368 228.803C306.355 228.722 306.361 228.639 306.387 228.562C306.628 227.867 308.527 227.423 308.74 227.371C308.765 227.367 308.791 227.37 308.814 227.38C308.837 227.391 308.857 227.408 308.871 227.43C308.886 227.452 308.893 227.478 308.893 227.504C308.893 227.531 308.886 227.557 308.871 227.578C308.499 228.237 307.77 229.339 307.089 229.376H307.055ZM307.082 229.102C307.806 229.058 307.093 227.974 306.676 228.567C306.654 228.598 306.638 228.628 306.628 228.659C306.616 228.693 306.613 228.73 306.621 228.765C306.635 228.834 306.684 228.892 306.731 228.945C306.764 228.983 306.802 229.015 306.845 229.04C306.918 229.083 306.999 229.105 307.082 229.102Z" fill="#407BFF"/>
<path d="M308.178 227.61C307.49 227.61 306.63 227.425 306.375 227.026C306.319 226.935 306.293 226.826 306.301 226.717C306.31 226.608 306.353 226.506 306.423 226.427C306.484 226.344 306.56 226.276 306.646 226.228C306.733 226.179 306.828 226.151 306.926 226.146H306.981C307.751 226.146 308.811 227.263 308.852 227.307C308.869 227.324 308.881 227.345 308.887 227.368C308.893 227.392 308.893 227.417 308.886 227.44C308.88 227.463 308.869 227.484 308.853 227.501C308.838 227.517 308.818 227.53 308.797 227.536C308.594 227.589 308.386 227.614 308.178 227.61ZM307.021 226.429C306.994 226.422 306.967 226.419 306.939 226.419C306.878 226.421 306.817 226.439 306.762 226.469C306.708 226.5 306.66 226.544 306.623 226.597C306.527 226.737 306.554 226.819 306.589 226.871C306.635 226.948 306.726 227.017 306.845 227.078C307.476 227.398 307.763 226.633 307.08 226.445C307.06 226.439 307.041 226.434 307.021 226.429Z" fill="#407BFF"/>
<path d="M265.402 245.231C264.939 245.275 264.476 245.15 264.088 244.876C263.996 244.799 263.924 244.698 263.878 244.583C263.832 244.468 263.814 244.342 263.826 244.217C263.826 244.143 263.843 244.07 263.877 244.005C263.911 243.94 263.96 243.886 264.019 243.848C264.652 243.448 266.867 244.632 267.115 244.765C267.138 244.778 267.157 244.799 267.17 244.824C267.182 244.849 267.187 244.877 267.184 244.906C267.18 244.933 267.17 244.959 267.152 244.981C267.135 245.002 267.113 245.017 267.087 245.024C266.533 245.149 265.968 245.218 265.402 245.231ZM264.384 244.033C264.303 244.027 264.222 244.045 264.15 244.084C264.126 244.098 264.107 244.118 264.095 244.143C264.07 244.193 264.076 244.253 264.08 244.309C264.084 244.364 264.096 244.418 264.116 244.47C264.146 244.547 264.193 244.615 264.253 244.669C264.265 244.68 264.277 244.69 264.29 244.7C264.929 245.204 265.187 244.163 264.384 244.033Z" fill="#407BFF"/>
<path d="M267.192 244.888C267.182 244.887 267.172 244.886 267.162 244.886C267.14 244.886 267.119 244.881 267.1 244.872C266.593 244.625 265.77 243.903 265.398 243.285C265.172 242.909 265.241 242.336 265.677 242.289H265.781C266.978 242.289 267.287 244.642 267.301 244.745C267.304 244.77 267.301 244.795 267.293 244.818C267.29 244.826 267.287 244.834 267.283 244.841C267.267 244.869 267.238 244.888 267.206 244.888C267.201 244.889 267.197 244.888 267.192 244.888ZM265.787 242.555C265.791 242.553 265.79 242.548 265.786 242.548H265.726C265.505 242.548 265.492 242.659 265.492 242.689C265.455 242.947 265.838 243.464 266.301 243.911C266.548 244.149 266.888 243.919 266.764 243.599C266.561 243.078 266.252 242.574 265.79 242.563C265.785 242.563 265.784 242.557 265.787 242.555Z" fill="#407BFF"/>
<path d="M244.25 43.0921C244.437 43.0491 244.342 42.8166 244.151 42.7982C243.915 42.7756 243.81 43.0386 244.041 43.0898C244.11 43.105 244.18 43.108 244.25 43.0921Z" fill="#263238"/>
<path d="M249.058 71.1645C238.114 73.7883 240.791 67.1489 241.672 65.0713C241.75 64.8872 241.896 64.7447 242.081 64.669C243.457 64.1289 243.733 64.0475 245.563 63.4705C248.756 62.5435 252.007 61.8636 255.291 61.436L255.979 61.3324C256.667 61.2362 257.293 61.1623 257.926 61.1031C258.353 61.0513 258.779 61.0217 259.185 60.9921C259.973 60.9412 260.69 61.4885 260.626 62.2758C260.438 64.5791 258.699 68.8638 249.058 71.1645Z" fill="#E58A7B"/>
<path d="M267.319 97.5328C267.452 97.5667 267.536 97.6911 267.617 97.803L268.838 99.4992C268.941 99.6397 268.796 99.8395 268.549 99.8913L246.079 104.596C245.886 104.641 245.707 104.597 245.673 104.441L245.238 102.905C245.148 102.584 245.092 102.151 245.418 102.081L267.118 97.5387C267.183 97.518 267.252 97.5159 267.319 97.5328Z" fill="#26395A"/>
<path d="M266.816 100.881L267.118 100.82C267.306 100.782 267.62 100.764 267.573 100.578L266.9 98.2491C266.844 98.0566 266.758 97.8254 266.561 97.8628L266.264 97.9236C266.078 97.9619 265.76 97.9824 265.811 98.1661L266.568 100.792C266.589 100.866 266.706 100.911 266.816 100.881Z" fill="#407BFF"/>
<path d="M252.482 111.331C252.241 110.806 251.808 110.393 251.271 110.179L250.854 110.012C249.425 109.441 247.916 110.636 248.145 112.158C248.251 112.865 248.729 113.47 249.429 113.615C250.076 113.748 250.917 113.843 251.711 113.692C252.718 113.5 252.937 112.325 252.511 111.394L252.482 111.331Z" fill="#E58A7B"/>
<path d="M243.724 109.692C243.186 109.845 242.756 110.249 242.569 110.776C242.184 111.859 242.945 113.009 244.092 113.078L245.414 113.157C246.653 113.232 247.647 112.146 247.462 110.918C247.287 109.754 246.129 109.008 244.997 109.33L243.724 109.692Z" fill="#E58A7B"/>
<path d="M247.903 104.834L248.208 104.773C248.394 104.735 248.713 104.711 248.653 104.531L247.978 102.196C247.923 102.008 247.841 101.779 247.648 101.816L247.343 101.878C247.157 101.915 246.832 101.941 246.898 102.119L247.655 104.746C247.676 104.82 247.786 104.864 247.903 104.834Z" fill="#407BFF"/>
<path d="M257.221 102.852C257.312 102.884 257.41 102.84 257.504 102.821L257.658 102.789C257.846 102.751 258.159 102.732 258.112 102.547L257.439 100.218C257.384 100.025 257.298 99.7942 257.101 99.8315L256.804 99.8924C256.617 99.9306 256.3 99.9511 256.351 100.135L257.067 102.619C257.094 102.713 257.129 102.82 257.221 102.852Z" fill="#407BFF"/>
<path d="M254.211 58.2807C254.699 58.0809 255.311 59.9305 255.16 60.1672C254.883 60.5929 250.832 61.8552 248.987 61.8526C248.319 61.8517 248.05 61.1912 248.165 60.533C248.245 60.0695 248.534 59.7283 249.003 59.6983C249.799 59.6474 251.379 59.5184 254.211 58.2807Z" fill="#407BFF"/>
<path d="M253.587 58.2207C253.835 57.6067 254.543 56.6227 255.162 57.185C255.782 57.7472 256.043 58.9605 255.637 59.1603C255.231 59.36 253.16 59.2491 253.587 58.2207Z" fill="#407BFF"/>
<path d="M255.013 58.6098C255.44 58.1215 256.389 57.4483 256.822 58.2029C257.256 58.9575 257.098 60.193 256.657 60.23C256.217 60.267 254.291 59.4162 255.013 58.6098Z" fill="#407BFF"/>
<path d="M255.356 58.2903C255.31 58.2605 255.28 58.211 255.277 58.156C255.259 57.7916 255.333 57.4281 255.49 57.1035C255.659 56.753 255.92 56.4628 256.239 56.2677C256.445 56.1244 256.649 55.9942 256.843 55.8698C257.331 55.5577 258.249 55.8718 258.166 56.4453C258.038 57.0834 256.426 57.6013 255.892 58.1386C255.779 58.2527 255.491 58.3775 255.356 58.2903Z" fill="#407BFF"/>
<path d="M255.227 58.1045C255.168 58.1053 255.111 58.0777 255.078 58.0282C254.882 57.7337 254.762 57.3882 254.731 57.0267C254.697 56.6329 254.769 56.2368 254.94 55.8863C255.049 55.6174 255.166 55.3636 255.277 55.1229C255.519 54.5942 256.429 54.3875 256.653 54.9246C256.865 55.5254 255.757 56.9214 255.595 57.6864C255.561 57.8453 255.39 58.1022 255.227 58.1045Z" fill="#407BFF"/>
<path d="M304.283 206.701C304.262 206.72 304.23 206.723 304.207 206.708C304.195 206.7 304.185 206.69 304.178 206.676C304.019 206.44 288.292 182.307 282.526 161.104C278.764 147.503 275.872 133.641 273.871 119.615C272.687 111.756 271.966 106.993 269.629 103.091C269.604 103.049 269.567 103.01 269.567 102.962C269.567 102.937 269.576 102.913 269.592 102.895C269.608 102.88 269.629 102.872 269.65 102.872C269.693 102.872 269.72 102.914 269.742 102.951C272.11 106.891 272.831 111.67 274.016 119.556C276.026 133.562 278.922 147.404 282.684 160.986C288.443 182.159 304.157 206.262 304.315 206.506C304.328 206.524 304.335 206.546 304.335 206.569C304.335 206.571 304.335 206.573 304.335 206.575C304.333 206.615 304.319 206.657 304.295 206.689C304.291 206.693 304.287 206.697 304.283 206.701Z" fill="#407BFF"/>
<path opacity="0.4" d="M304.283 206.701C304.262 206.72 304.23 206.723 304.207 206.708C304.195 206.7 304.185 206.69 304.178 206.676C304.019 206.44 288.292 182.307 282.526 161.104C278.764 147.503 275.872 133.641 273.871 119.615C272.687 111.756 271.966 106.993 269.629 103.091C269.604 103.049 269.567 103.01 269.567 102.962C269.567 102.937 269.576 102.913 269.592 102.895C269.608 102.88 269.629 102.872 269.65 102.872C269.693 102.872 269.72 102.914 269.742 102.951C272.11 106.891 272.831 111.67 274.016 119.556C276.026 133.562 278.922 147.404 282.684 160.986C288.443 182.159 304.157 206.262 304.315 206.506C304.328 206.524 304.335 206.546 304.335 206.569C304.335 206.571 304.335 206.573 304.335 206.575C304.333 206.615 304.319 206.657 304.295 206.689C304.291 206.693 304.287 206.697 304.283 206.701Z" fill="black"/>
<path d="M274.547 233.327C274.61 234.365 273.864 235.277 272.834 235.42L265.69 236.416C264.819 236.537 264.001 235.968 263.814 235.108C263.617 234.206 264.184 233.314 265.084 233.109L272.117 231.507C273.315 231.234 274.472 232.101 274.547 233.327Z" fill="#407BFF"/>
<path d="M309.137 213.766C309.603 214.694 309.284 215.826 308.401 216.374L303.363 219.503C302.679 219.928 301.796 219.845 301.203 219.3C300.37 218.533 300.447 217.196 301.363 216.53L306.159 213.041C307.162 212.311 308.581 212.656 309.137 213.766Z" fill="#407BFF"/>
<path d="M266.671 69.911C268.199 69.5993 269.687 70.6056 269.887 72.152C270.024 73.2154 270.137 74.2695 270.247 75.3427C270.454 77.3476 270.529 79.3302 270.584 81.3351C270.639 83.3558 270.598 85.3781 270.461 87.3942C270.385 88.4078 270.302 89.4213 270.172 90.4422C270.117 90.9453 270.055 91.4558 269.965 91.9663L269.711 93.5347C269.429 94.8131 268.912 96.0179 268.19 97.0784C267.598 97.9705 266.945 98.8138 266.236 99.6011C264.909 101.068 263.483 102.428 261.971 103.67C259.446 105.76 256.794 107.666 254.034 109.374C253.306 109.824 252.355 109.581 251.915 108.847C251.524 108.194 251.661 107.356 252.236 106.857C253.279 105.952 254.323 105.029 255.366 104.092C256.742 102.856 258.049 101.606 259.308 100.304C260.552 99.0507 261.726 97.7192 262.824 96.3164C263.328 95.6673 263.788 94.9799 264.2 94.2597C264.525 93.7349 264.758 93.1507 264.888 92.5359C265.112 90.74 265.242 88.932 265.28 87.1205C265.28 86.1957 265.28 85.2709 265.28 84.3462C265.28 83.4214 265.245 82.4819 265.204 81.5497C265.122 79.6854 264.963 77.8506 264.778 75.9567C264.681 74.9766 264.571 74.0024 264.45 73.0476C264.264 71.582 265.224 70.2063 266.671 69.911Z" fill="#E58A7B"/>
<path d="M269.527 62.3447C271.217 63.8174 271.703 66.9602 271.81 69.3639C271.896 71.282 270.604 72.92 268.794 73.5607C265.489 74.7305 262.056 72.167 262.332 68.6719C262.475 66.8757 262.638 65.165 262.805 64.098C263.383 60.3472 266.631 59.8219 269.527 62.3447Z" fill="#407BFF"/>
<path opacity="0.2" d="M269.527 62.3447C271.217 63.8174 271.703 66.9602 271.81 69.3639C271.896 71.282 270.604 72.92 268.794 73.5607C265.489 74.7305 262.056 72.167 262.332 68.6719C262.475 66.8757 262.638 65.165 262.805 64.098C263.383 60.3472 266.631 59.8219 269.527 62.3447Z" fill="black"/>
<path d="M120.678 108.048C120.294 106.254 119.355 104.653 118.016 103.507C116.676 102.361 115.015 101.737 113.303 101.737H58.2628C56.2557 101.737 54.3307 102.595 52.9114 104.121C51.4922 105.647 50.6948 107.717 50.6948 109.875V241.429C50.6948 243.587 51.4922 245.657 52.9114 247.183C54.3307 248.709 56.2557 249.567 58.2628 249.567H233.015C235.022 249.567 236.947 248.709 238.366 247.183C239.785 245.657 240.583 243.587 240.583 241.429V130.923C240.583 128.765 239.785 126.695 238.366 125.169C236.947 123.642 235.022 122.785 233.015 122.785H137.899C133.901 122.786 130.022 121.329 126.894 118.652C123.766 115.975 121.575 112.237 120.678 108.048Z" fill="#407BFF"/>
<path opacity="0.6" d="M120.678 108.048C120.294 106.254 119.355 104.653 118.016 103.507C116.676 102.361 115.015 101.737 113.303 101.737H58.2628C56.2557 101.737 54.3307 102.595 52.9114 104.121C51.4922 105.647 50.6948 107.717 50.6948 109.875V241.429C50.6948 243.587 51.4922 245.657 52.9114 247.183C54.3307 248.709 56.2557 249.567 58.2628 249.567H233.015C235.022 249.567 236.947 248.709 238.366 247.183C239.785 245.657 240.583 243.587 240.583 241.429V130.923C240.583 128.765 239.785 126.695 238.366 125.169C236.947 123.642 235.022 122.785 233.015 122.785H137.899C133.901 122.786 130.022 121.329 126.894 118.652C123.766 115.975 121.575 112.237 120.678 108.048Z" fill="black"/>
<path opacity="0.22" d="M121.406 72.7157C115.757 69.5072 109.064 74.7765 110.858 81.0208C111.484 83.1948 112.887 85.0128 114.759 86.0753C116.63 87.1379 118.818 87.3581 120.84 86.6877C126.96 84.655 127.777 76.3338 122.17 73.1495L121.406 72.7157Z" fill="#407BFF"/>
<path d="M105.953 67.2375C102.258 65.1375 97.8453 64.7036 93.8119 66.0436L43.3881 82.7963C42.3861 83.1273 41.4546 83.6675 40.647 84.386C39.8393 85.1045 39.1713 85.9871 38.6812 86.9835C38.1911 87.9798 37.8885 89.0703 37.7907 90.1925C37.6928 91.3147 37.8017 92.4467 38.1111 93.5236L70.5159 206.33C70.8252 207.407 71.3288 208.408 71.9979 209.276C72.667 210.144 73.4886 210.861 74.4156 211.388C75.3427 211.914 76.3571 212.239 77.4008 212.343C78.4446 212.448 79.4973 212.33 80.4988 211.997L153.145 187.865C154.146 187.533 155.077 186.992 155.884 186.273C156.691 185.554 157.358 184.672 157.847 183.675C158.337 182.679 158.639 181.589 158.736 180.467C158.834 179.345 158.724 178.214 158.415 177.137L132.584 87.2885C131.501 83.5218 128.987 80.3286 125.58 78.392L105.953 67.2375Z" fill="#407BFF"/>
<path opacity="0.8" d="M105.953 67.2375C102.258 65.1375 97.8453 64.7036 93.8119 66.0436L43.3881 82.7963C42.3861 83.1273 41.4546 83.6675 40.647 84.386C39.8393 85.1045 39.1713 85.9871 38.6812 86.9835C38.1911 87.9798 37.8885 89.0703 37.7907 90.1925C37.6928 91.3147 37.8017 92.4467 38.1111 93.5236L70.5159 206.33C70.8252 207.407 71.3288 208.408 71.9979 209.276C72.667 210.144 73.4886 210.861 74.4156 211.388C75.3427 211.914 76.3571 212.239 77.4008 212.343C78.4446 212.448 79.4973 212.33 80.4988 211.997L153.145 187.865C154.146 187.533 155.077 186.992 155.884 186.273C156.691 185.554 157.358 184.672 157.847 183.675C158.337 182.679 158.639 181.589 158.736 180.467C158.834 179.345 158.724 178.214 158.415 177.137L132.584 87.2885C131.501 83.5218 128.987 80.3286 125.58 78.392L105.953 67.2375Z" fill="white"/>
<g opacity="0.28">
<path d="M134.52 193.049L87.2962 208.733C86.413 209.025 85.4584 208.929 84.641 208.466C83.8236 208.002 83.21 207.21 82.9342 206.262C82.6654 205.312 82.7568 204.287 83.1886 203.41C83.6205 202.532 84.3576 201.874 85.239 201.579L132.463 185.888C133.347 185.596 134.303 185.693 135.12 186.158C135.938 186.623 136.551 187.416 136.825 188.366C137.094 189.316 137.003 190.341 136.571 191.219C136.139 192.096 135.402 192.754 134.52 193.049Z" fill="#407BFF"/>
</g>
<g opacity="0.28">
<path d="M81.0398 92.6668L56.0654 100.96C55.1823 101.25 54.2285 101.153 53.4116 100.69C52.5947 100.227 51.9808 99.4361 51.7035 98.4891C51.4344 97.5385 51.5257 96.512 51.9574 95.6334C52.3891 94.7548 53.1263 94.0953 54.0083 93.7987L78.9827 85.5054C79.8659 85.2117 80.8213 85.3069 81.6392 85.7702C82.4571 86.2335 83.0705 87.027 83.3446 87.9764C83.6137 88.927 83.5224 89.9535 83.0907 90.8321C82.659 91.7107 81.9218 92.3701 81.0398 92.6668Z" fill="#407BFF"/>
</g>
<g opacity="0.28">
<path d="M101.799 102.26L60.519 115.968C59.6377 116.253 58.6876 116.152 57.8748 115.688C57.062 115.224 56.4522 114.434 56.1777 113.49C55.9067 112.541 55.9963 111.516 56.427 110.638C56.8578 109.76 57.5944 109.102 58.4757 108.807L99.7557 95.0983C100.639 94.8066 101.593 94.9028 102.411 95.3658C103.228 95.8289 103.842 96.6211 104.118 97.5692C104.384 98.5218 104.29 99.5491 103.856 100.428C103.422 101.306 102.682 101.964 101.799 102.26Z" fill="#407BFF"/>
</g>
<g opacity="0.28">
<path d="M125.226 110.885L64.9849 130.859C64.1027 131.151 63.149 131.055 62.3327 130.591C61.5164 130.128 60.9041 129.336 60.6299 128.389C60.3605 127.439 60.4508 126.413 60.8812 125.535C61.3115 124.656 62.0471 123.996 62.9278 123.698L123.169 103.723C124.051 103.434 125.004 103.531 125.82 103.994C126.636 104.457 127.248 105.248 127.524 106.194C127.795 107.144 127.706 108.17 127.275 109.049C126.845 109.928 126.108 110.588 125.226 110.885Z" fill="#407BFF"/>
</g>
<g opacity="0.28">
<path d="M132.032 126.375L97.0125 138.013C96.1294 138.302 95.1757 138.204 94.3598 137.739C93.5438 137.275 92.9319 136.482 92.6575 135.534C92.3883 134.586 92.4788 133.561 92.9093 132.684C93.3397 131.807 94.0752 131.148 94.9554 130.851L129.975 119.214C130.859 118.927 131.812 119.026 132.629 119.49C133.446 119.954 134.059 120.745 134.337 121.692C134.605 122.642 134.514 123.668 134.082 124.545C133.65 125.422 132.913 126.08 132.032 126.375Z" fill="#407BFF"/>
</g>
<g opacity="0.28">
<path d="M78.6087 144.883L69.4514 147.923C68.5682 148.215 67.6136 148.119 66.7962 147.656C65.9788 147.193 65.3652 146.401 65.0895 145.452C64.8185 144.502 64.9089 143.474 65.3409 142.595C65.7729 141.716 66.5112 141.057 67.3943 140.762L76.5516 137.721C77.4347 137.432 78.3885 137.529 79.2054 137.992C80.0223 138.454 80.6362 139.245 80.9135 140.192C81.1807 141.143 81.0886 142.169 80.6571 143.047C80.2256 143.925 79.4896 144.585 78.6087 144.883Z" fill="#407BFF"/>
</g>
<g opacity="0.28">
<path d="M134.152 141.874L73.9112 161.886C73.0281 162.175 72.0744 162.077 71.2584 161.612C70.4425 161.148 69.8305 160.355 69.5562 159.407C69.2851 158.459 69.3748 157.433 69.8055 156.555C70.2362 155.678 70.9728 155.019 71.8541 154.724L132.095 134.712C132.978 134.423 133.93 134.52 134.746 134.983C135.562 135.446 136.175 136.237 136.45 137.183C136.722 138.133 136.632 139.16 136.202 140.039C135.771 140.917 135.034 141.577 134.152 141.874Z" fill="#407BFF"/>
</g>
<g opacity="0.28">
<path d="M115.364 165.787L78.3707 178.076C77.4884 178.365 76.5355 178.268 75.7198 177.805C74.904 177.342 74.2914 176.551 74.0156 175.605C73.7463 174.655 73.8366 173.629 74.2669 172.751C74.6973 171.873 75.4328 171.213 76.3135 170.914L113.307 158.626C114.191 158.337 115.146 158.435 115.963 158.899C116.78 159.363 117.393 160.156 117.669 161.104C117.94 162.054 117.849 163.08 117.417 163.958C116.985 164.836 116.247 165.494 115.364 165.787Z" fill="#407BFF"/>
</g>
<g opacity="0.28">
<path d="M143.296 157.373L133.424 160.65C132.54 160.939 131.585 160.841 130.768 160.377C129.951 159.913 129.338 159.12 129.062 158.172C128.793 157.222 128.884 156.197 129.316 155.319C129.748 154.442 130.485 153.784 131.366 153.489L141.239 150.211C142.122 149.92 143.075 150.016 143.892 150.479C144.708 150.943 145.32 151.735 145.594 152.682C145.866 153.632 145.776 154.658 145.346 155.537C144.915 156.416 144.178 157.076 143.296 157.373Z" fill="#407BFF"/>
</g>
<g opacity="0.28">
<path d="M143.072 172.876L82.8442 192.851C81.9602 193.143 81.0048 193.045 80.1872 192.581C79.3697 192.116 78.7566 191.322 78.4823 190.373C78.2116 189.423 78.3022 188.397 78.7342 187.519C79.1663 186.641 79.9046 185.983 80.7871 185.69L141.022 165.678C141.906 165.391 142.859 165.49 143.676 165.954C144.493 166.418 145.106 167.209 145.383 168.156C145.522 168.629 145.571 169.127 145.53 169.621C145.488 170.115 145.356 170.595 145.141 171.034C144.927 171.473 144.633 171.861 144.278 172.178C143.923 172.494 143.513 172.731 143.072 172.876Z" fill="#407BFF"/>
</g>
<path d="M142.629 17.4273L160.641 60.588C161.109 61.7147 161.142 62.9946 160.735 64.148C160.328 65.3014 159.512 66.2345 158.467 66.7433L82.0576 103.623C81.0101 104.128 79.8191 104.165 78.746 103.727C77.6728 103.289 76.8052 102.41 76.3335 101.285L58.3147 58.1245C57.8431 56.9972 57.8072 55.7147 58.2149 54.559C58.6226 53.4033 59.4406 52.4691 60.4888 51.9618L136.898 15.0821C137.948 14.5795 139.14 14.544 140.214 14.9835C141.287 15.4229 142.156 16.3015 142.629 17.4273Z" fill="#407BFF"/>
<path opacity="0.3" d="M142.629 17.4273L160.641 60.588C161.109 61.7147 161.142 62.9946 160.735 64.148C160.328 65.3014 159.512 66.2345 158.467 66.7433L82.0576 103.623C81.0101 104.128 79.8191 104.165 78.746 103.727C77.6728 103.289 76.8052 102.41 76.3335 101.285L58.3147 58.1245C57.8431 56.9972 57.8072 55.7147 58.2149 54.559C58.6226 53.4033 59.4406 52.4691 60.4888 51.9618L136.898 15.0821C137.948 14.5795 139.14 14.544 140.214 14.9835C141.287 15.4229 142.156 16.3015 142.629 17.4273Z" fill="black"/>
<path d="M136.79 15.6176L135.006 16.4762C134.824 16.5638 134.739 16.7858 134.817 16.9722C134.895 17.1585 135.106 17.2385 135.288 17.151L137.072 16.2924C137.254 16.2048 137.338 15.9828 137.26 15.7964C137.182 15.6101 136.972 15.5301 136.79 15.6176Z" fill="#407BFF"/>
<path d="M129.903 18.928L122.945 22.277C122.763 22.3645 122.678 22.5866 122.756 22.7729C122.834 22.9593 123.045 23.0393 123.227 22.9517L130.186 19.6028C130.368 19.5152 130.452 19.2931 130.374 19.1068C130.296 18.9204 130.085 18.8404 129.903 18.928Z" fill="#407BFF"/>
<path d="M60.1731 71.5015L58.3528 67.1518C58.2785 66.9743 58.0777 66.898 57.9043 66.9816C57.7309 67.0651 57.6506 67.2767 57.7249 67.4543L59.5452 71.804C59.6195 71.9815 59.8203 72.0577 59.9937 71.9742C60.1671 71.8907 60.2474 71.679 60.1731 71.5015Z" fill="#407BFF"/>
<path opacity="0.6" d="M136.93 15.0818C138.509 14.3226 139.454 16.2912 138.702 17.8737L120.397 56.43C118.569 60.2768 115.574 63.3376 111.909 65.1065C108.244 66.8755 104.127 67.2466 100.239 66.1585L61.5521 55.3131C59.8168 54.8266 58.903 52.7562 60.5205 51.9615L136.93 15.0818Z" fill="#407BFF"/>
<path d="M175.868 77.4038C172.831 74.5189 168.725 73.0358 164.545 73.3132L111.811 76.8137C110.764 76.8807 109.739 77.1691 108.795 77.6625C107.851 78.1559 107.007 78.8445 106.311 79.6891C105.615 80.5336 105.081 81.5174 104.739 82.5842C104.397 83.651 104.254 84.7798 104.319 85.906L111.082 203.743C111.145 204.871 111.414 205.973 111.874 206.988C112.334 208.003 112.976 208.91 113.763 209.658C114.55 210.406 115.466 210.979 116.459 211.346C117.452 211.712 118.503 211.864 119.551 211.793L195.437 206.755C196.484 206.687 197.507 206.397 198.45 205.904C199.392 205.41 200.234 204.72 200.928 203.876C201.622 203.031 202.154 202.048 202.494 200.981C202.834 199.915 202.975 198.787 202.909 197.662L197.537 103.592C197.32 99.7825 195.658 96.1988 192.891 93.5709L175.868 77.4038Z" fill="#407BFF"/>
<path opacity="0.8" d="M175.868 77.4038C172.831 74.5189 168.725 73.0358 164.545 73.3132L111.811 76.8137C110.764 76.8807 109.739 77.1691 108.795 77.6625C107.851 78.1559 107.007 78.8445 106.311 79.6891C105.615 80.5336 105.081 81.5174 104.739 82.5842C104.397 83.651 104.254 84.7798 104.319 85.906L111.082 203.743C111.145 204.871 111.414 205.973 111.874 206.988C112.334 208.003 112.976 208.91 113.763 209.658C114.55 210.406 115.466 210.979 116.459 211.346C117.452 211.712 118.503 211.864 119.551 211.793L195.437 206.755C196.484 206.687 197.507 206.397 198.45 205.904C199.392 205.41 200.234 204.72 200.928 203.876C201.622 203.031 202.154 202.048 202.494 200.981C202.834 199.915 202.975 198.787 202.909 197.662L197.537 103.592C197.32 99.7825 195.658 96.1988 192.891 93.5709L175.868 77.4038Z" fill="white"/>
<g opacity="0.22">
<path d="M176.302 206.751L126.965 210.028C126.044 210.085 125.139 209.747 124.448 209.089C123.757 208.43 123.336 207.505 123.278 206.514C123.225 205.523 123.538 204.55 124.148 203.806C124.759 203.062 125.618 202.608 126.539 202.541L175.875 199.271C176.797 199.212 177.703 199.548 178.395 200.205C179.087 200.862 179.51 201.787 179.57 202.778C179.625 203.77 179.311 204.745 178.699 205.49C178.086 206.235 177.224 206.688 176.302 206.751Z" fill="#407BFF"/>
</g>
<g opacity="0.22">
<path d="M146.548 95.1523L120.452 96.8686C119.531 96.9254 118.626 96.589 117.934 95.9323C117.242 95.2757 116.82 94.3519 116.758 93.3619C116.705 92.3701 117.019 91.396 117.631 90.6518C118.243 89.9077 119.104 89.4539 120.026 89.3891L146.122 87.658C147.043 87.5992 147.948 87.9352 148.639 88.5925C149.33 89.2497 149.751 90.1746 149.809 91.1647C149.868 92.1582 149.557 93.1362 148.946 93.8838C148.334 94.6314 147.472 95.0876 146.548 95.1523Z" fill="#407BFF"/>
</g>
<g opacity="0.22">
<path d="M164.502 110.112L121.385 112.967C120.463 113.028 119.556 112.693 118.863 112.035C118.17 111.378 117.749 110.452 117.69 109.461C117.636 108.468 117.949 107.493 118.561 106.748C119.174 106.004 120.036 105.551 120.958 105.488L164.068 102.632C164.99 102.571 165.897 102.906 166.59 103.564C167.283 104.221 167.704 105.147 167.763 106.139C167.818 107.13 167.505 108.104 166.894 108.848C166.283 109.593 165.423 110.047 164.502 110.112Z" fill="#407BFF"/>
</g>
<g opacity="0.22">
<path d="M185.24 124.867L122.316 129.04C121.391 129.1 120.482 128.765 119.787 128.106C119.092 127.448 118.668 126.52 118.608 125.526C118.553 124.535 118.866 123.562 119.477 122.819C120.088 122.075 120.948 121.623 121.869 121.56L184.8 117.38C185.722 117.323 186.627 117.661 187.318 118.32C188.009 118.978 188.429 119.904 188.488 120.894C188.543 121.883 188.232 122.855 187.624 123.599C187.016 124.343 186.159 124.799 185.24 124.867Z" fill="#407BFF"/>
</g>
<g opacity="0.22">
<path d="M188.625 141.052L152.044 143.479C151.122 143.537 150.216 143.202 149.524 142.545C148.832 141.887 148.409 140.963 148.349 139.972C148.293 138.98 148.604 138.005 149.216 137.26C149.827 136.515 150.688 136.062 151.61 135.999L188.191 133.572C189.114 133.512 190.02 133.847 190.713 134.504C191.406 135.162 191.828 136.088 191.886 137.079C191.941 138.07 191.628 139.044 191.017 139.789C190.406 140.533 189.546 140.987 188.625 141.052Z" fill="#407BFF"/>
</g>
<g opacity="0.22">
<path d="M132.813 144.909L123.243 145.545C122.322 145.603 121.417 145.267 120.726 144.61C120.035 143.953 119.614 143.028 119.555 142.038C119.501 141.047 119.813 140.073 120.424 139.328C121.035 138.584 121.895 138.13 122.817 138.065L132.387 137.429C133.309 137.372 134.215 137.71 134.907 138.368C135.599 139.026 136.021 139.952 136.081 140.943C136.134 141.934 135.82 142.907 135.208 143.65C134.595 144.393 133.735 144.846 132.813 144.909Z" fill="#407BFF"/>
</g>
<g opacity="0.22">
<path d="M187.106 157.237L124.175 161.41C123.253 161.468 122.347 161.133 121.655 160.476C120.963 159.819 120.541 158.894 120.48 157.903C120.428 156.911 120.741 155.937 121.354 155.193C121.966 154.449 122.826 153.995 123.748 153.93L186.673 149.758C187.596 149.699 188.503 150.036 189.195 150.694C189.887 151.353 190.309 152.28 190.367 153.272C190.422 154.262 190.11 155.235 189.498 155.978C188.887 156.722 188.027 157.174 187.106 157.237Z" fill="#407BFF"/>
</g>
<g opacity="0.22">
<path d="M163.752 175.18L125.107 177.747C124.185 177.804 123.279 177.466 122.587 176.808C121.895 176.15 121.473 175.224 121.412 174.233C121.36 173.242 121.674 172.269 122.286 171.526C122.898 170.783 123.759 170.33 124.68 170.268L163.325 167.7C164.247 167.644 165.152 167.981 165.843 168.64C166.534 169.298 166.955 170.224 167.013 171.215C167.07 172.205 166.758 173.18 166.146 173.923C165.535 174.667 164.673 175.119 163.752 175.18Z" fill="#407BFF"/>
</g>
<g opacity="0.22">
<path d="M192.925 173.43L182.605 174.111C181.684 174.169 180.779 173.833 180.088 173.176C179.397 172.519 178.976 171.594 178.918 170.604C178.861 169.612 179.173 168.637 179.784 167.892C180.396 167.147 181.257 166.694 182.179 166.631L192.499 165.95C193.421 165.89 194.328 166.225 195.02 166.882C195.713 167.54 196.135 168.466 196.193 169.457C196.246 170.449 195.932 171.423 195.32 172.167C194.708 172.911 193.847 173.365 192.925 173.43Z" fill="#407BFF"/>
</g>
<g opacity="0.22">
<path d="M188.964 189.614L126.04 193.787C125.118 193.845 124.212 193.51 123.52 192.853C122.828 192.196 122.405 191.271 122.345 190.28C122.29 189.289 122.603 188.315 123.214 187.57C123.825 186.826 124.685 186.372 125.606 186.307L188.537 182.135C189.458 182.076 190.364 182.412 191.055 183.069C191.746 183.726 192.167 184.651 192.225 185.641C192.282 186.633 191.97 187.608 191.359 188.353C190.747 189.098 189.886 189.551 188.964 189.614Z" fill="#407BFF"/>
</g>
<path opacity="0.22" d="M190.277 85.1865C185.628 80.7714 177.974 84.3215 178.342 90.7222C178.406 91.8473 178.675 92.9478 179.135 93.9609C179.595 94.974 180.235 95.8798 181.021 96.6266C181.806 97.3734 182.72 97.9465 183.711 98.3132C184.703 98.68 185.751 98.8331 186.798 98.764C193.142 98.3431 195.949 90.5731 191.339 86.1946L190.277 85.1865Z" fill="#407BFF"/>
<path opacity="0.5" d="M147.516 120.851C147.505 119.996 147.336 119.152 147.017 118.368C146.698 117.585 146.236 116.878 145.659 116.29C145.082 115.702 144.4 115.244 143.656 114.943C142.911 114.643 142.118 114.506 141.324 114.54H86.2148C82.0386 114.54 77.9588 118.188 77.1745 122.678L55.4268 242.491C54.615 246.982 57.3394 250.629 61.5156 250.629H236.268C240.444 250.629 244.489 246.989 245.308 242.491L263.244 143.726C264.056 139.228 261.331 135.588 257.155 135.588H162.067C153.811 135.588 147.798 129.477 147.516 120.851Z" fill="#407BFF"/>
</svg>
