<svg width="343" height="200" viewBox="0 0 343 200" fill="none" xmlns="http://www.w3.org/2000/svg">
<path d="M343 175.757H0V175.891H343V175.757Z" fill="#E6E6E6"/>
<path d="M85.6266 183.879H62.9062V184.013H85.6266V183.879Z" fill="#E6E6E6"/>
<path d="M55.7171 183.879H42.5527V184.013H55.7171V183.879Z" fill="#E6E6E6"/>
<path d="M144.437 185.854H131.273V185.989H144.437V185.854Z" fill="#E6E6E6"/>
<path d="M213.079 188.85H183.45V188.984H213.079V188.85Z" fill="#E6E6E6"/>
<path d="M177.345 188.85H173.002V188.984H177.345V188.85Z" fill="#E6E6E6"/>
<path d="M310.998 185.854H246.733V185.989H310.998V185.854Z" fill="#E6E6E6"/>
<path d="M162.582 151.814H30.1221C29.0844 151.813 28.0899 151.489 27.3568 150.915C26.6237 150.34 26.2119 149.561 26.2119 148.749V3.03844C26.2209 2.23106 26.6367 1.45908 27.3688 0.890175C28.1009 0.321268 29.0903 0.00138307 30.1221 0H162.582C163.621 0 164.617 0.322948 165.352 0.897799C166.086 1.47265 166.499 2.25232 166.499 3.06528V148.749C166.499 149.562 166.086 150.342 165.352 150.917C164.617 151.492 163.621 151.814 162.582 151.814ZM30.1221 0.107366C29.1299 0.108788 28.179 0.418223 27.478 0.967751C26.7771 1.51728 26.3834 2.262 26.3834 3.03844V148.749C26.3834 149.526 26.7771 150.27 27.478 150.82C28.179 151.369 29.1299 151.679 30.1221 151.68H162.582C163.575 151.679 164.526 151.37 165.228 150.82C165.93 150.271 166.326 149.526 166.327 148.749V3.03844C166.326 2.2615 165.93 1.5168 165.228 0.967423C164.526 0.418048 163.575 0.108785 162.582 0.107366H30.1221Z" fill="#E6E6E6"/>
<path d="M310.971 151.814H178.504C177.466 151.813 176.47 151.49 175.736 150.915C175.002 150.341 174.589 149.562 174.587 148.749V3.03844C174.598 2.23057 175.015 1.4586 175.748 0.889839C176.481 0.32108 177.472 0.00136799 178.504 0H310.971C312.001 0.00279391 312.989 0.323303 313.719 0.892059C314.45 1.46082 314.865 2.23199 314.874 3.03844V148.749C314.874 149.56 314.463 150.338 313.731 150.913C313 151.487 312.007 151.812 310.971 151.814ZM178.504 0.107366C177.511 0.108785 176.559 0.418048 175.857 0.967423C175.155 1.5168 174.76 2.2615 174.758 3.03844V148.749C174.76 149.526 175.155 150.271 175.857 150.82C176.559 151.37 177.511 151.679 178.504 151.68H310.971C311.963 151.679 312.915 151.37 313.617 150.82C314.319 150.271 314.714 149.526 314.716 148.749V3.03844C314.714 2.2615 314.319 1.5168 313.617 0.967423C312.915 0.418048 311.963 0.108785 310.971 0.107366H178.504Z" fill="#E6E6E6"/>
<path d="M183.436 129.901H168.351V176.729H183.436V129.901Z" fill="#E0E0E0"/>
<path d="M180.569 176.729H183.437V170.352H177.564L180.569 176.729Z" fill="#FAFAFA"/>
<path d="M117.334 129.901H102.249V176.729H117.334V129.901Z" fill="#E0E0E0"/>
<path d="M183.436 129.901H114.836V172.815H183.436V129.901Z" fill="#FAFAFA"/>
<path d="M180.946 132.011V143.365H117.306V132.011H180.926M181.193 131.802H117.059V143.569H181.214V131.802H181.193Z" fill="#E0E0E0"/>
<path d="M117.697 176.729H114.836V170.352H120.702L117.697 176.729Z" fill="#FAFAFA"/>
<path d="M147.62 137.685C147.62 137.92 147.709 138.149 147.876 138.345C148.042 138.54 148.279 138.692 148.556 138.781C148.833 138.871 149.138 138.895 149.432 138.849C149.726 138.803 149.996 138.69 150.208 138.524C150.42 138.358 150.565 138.147 150.623 137.917C150.682 137.687 150.652 137.448 150.537 137.231C150.422 137.015 150.228 136.829 149.978 136.699C149.729 136.569 149.436 136.499 149.136 136.499C148.734 136.499 148.348 136.624 148.064 136.847C147.78 137.069 147.62 137.371 147.62 137.685Z" fill="#E6E6E6"/>
<path d="M180.946 145.679V157.032H117.306V145.679H180.926M181.193 145.475H117.059V157.242H181.214V145.48L181.193 145.475Z" fill="#E0E0E0"/>
<path d="M147.62 151.385C147.62 151.619 147.709 151.849 147.876 152.044C148.042 152.239 148.279 152.391 148.556 152.481C148.833 152.57 149.138 152.594 149.432 152.548C149.726 152.502 149.996 152.389 150.208 152.224C150.42 152.058 150.565 151.846 150.623 151.616C150.682 151.386 150.652 151.147 150.537 150.931C150.422 150.714 150.228 150.529 149.978 150.398C149.729 150.268 149.436 150.198 149.136 150.198C148.734 150.198 148.348 150.323 148.064 150.546C147.78 150.768 147.62 151.07 147.62 151.385Z" fill="#E6E6E6"/>
<path d="M180.946 159.352V170.711H117.306V159.352H180.926M181.193 159.143H117.059V170.915H181.214V159.143H181.193Z" fill="#E0E0E0"/>
<path d="M147.62 165.032C147.621 165.266 147.712 165.495 147.879 165.689C148.046 165.884 148.284 166.035 148.561 166.124C148.838 166.213 149.143 166.236 149.436 166.189C149.73 166.143 149.999 166.029 150.211 165.863C150.422 165.697 150.566 165.486 150.624 165.256C150.682 165.026 150.651 164.787 150.536 164.571C150.421 164.355 150.227 164.17 149.978 164.039C149.729 163.909 149.436 163.84 149.136 163.84C148.937 163.84 148.739 163.871 148.554 163.931C148.37 163.991 148.203 164.078 148.062 164.189C147.921 164.3 147.809 164.431 147.734 164.576C147.658 164.72 147.619 164.875 147.62 165.032Z" fill="#E6E6E6"/>
<path d="M108.12 102.706H93.0352V176.734H108.12V102.706Z" fill="#E0E0E0"/>
<path d="M105.253 176.729H108.121V170.352H102.255L105.253 176.729Z" fill="#FAFAFA"/>
<path d="M51.7448 102.706H36.6597V176.734H51.7448V102.706Z" fill="#E0E0E0"/>
<path d="M108.121 102.706H49.2412V172.821H108.121V102.706Z" fill="#FAFAFA"/>
<path d="M105.582 104.681V120.555H51.7795V104.681H105.582ZM105.898 104.439H51.4502V120.786H105.884V104.445L105.898 104.439Z" fill="#E0E0E0"/>
<path d="M105.582 122.493V164.596H79.9532V122.493H105.582ZM105.898 122.246H79.6445V164.843H105.898V122.246Z" fill="#E0E0E0"/>
<path d="M77.4084 122.493V164.596H51.7795V122.493H77.4084ZM77.7171 122.246H51.4502V164.843H77.7034V122.246H77.7171Z" fill="#E0E0E0"/>
<path d="M52.1087 176.729H49.2412V170.352H55.1134L52.1087 176.729Z" fill="#FAFAFA"/>
<path d="M77.1611 112.626C77.1598 112.862 77.2479 113.093 77.4145 113.289C77.581 113.486 77.8183 113.64 78.0965 113.731C78.3747 113.822 78.6811 113.846 78.9769 113.801C79.2728 113.755 79.5448 113.642 79.7585 113.476C79.9722 113.309 80.1179 113.097 80.1772 112.866C80.2365 112.634 80.2068 112.394 80.0917 112.176C79.9766 111.958 79.7815 111.772 79.5309 111.641C79.2803 111.509 78.9856 111.439 78.6841 111.439C78.2813 111.439 77.895 111.564 77.6096 111.787C77.3242 112.009 77.163 112.311 77.1611 112.626Z" fill="#E6E6E6"/>
<path d="M82.5943 142.543C82.5943 142.779 82.6837 143.01 82.8514 143.206C83.019 143.402 83.2573 143.555 83.536 143.645C83.8146 143.735 84.1212 143.758 84.4168 143.712C84.7124 143.665 84.9838 143.551 85.1965 143.384C85.4092 143.217 85.5537 143.004 85.6117 142.773C85.6696 142.541 85.6385 142.301 85.5222 142.084C85.4059 141.866 85.2096 141.68 84.9583 141.55C84.7069 141.42 84.4118 141.351 84.1103 141.352C83.9106 141.352 83.7129 141.382 83.5286 141.442C83.3442 141.502 83.1767 141.59 83.0359 141.701C82.895 141.812 82.7835 141.943 82.7077 142.088C82.6319 142.232 82.5934 142.387 82.5943 142.543Z" fill="#E6E6E6"/>
<path d="M71.7349 142.543C71.7362 142.778 71.8263 143.007 71.9937 143.201C72.1611 143.395 72.3984 143.547 72.6755 143.636C72.9526 143.725 73.2573 143.747 73.5509 143.701C73.8445 143.655 74.114 143.541 74.3254 143.375C74.5367 143.209 74.6804 142.997 74.7384 142.767C74.7963 142.537 74.7659 142.299 74.6509 142.083C74.536 141.866 74.3417 141.681 74.0925 141.551C73.8433 141.421 73.5505 141.352 73.2509 141.352C73.0513 141.352 72.8536 141.382 72.6692 141.442C72.4848 141.502 72.3174 141.59 72.1765 141.701C72.0356 141.812 71.9241 141.943 71.8483 142.088C71.7725 142.232 71.734 142.387 71.7349 142.543Z" fill="#E6E6E6"/>
<path d="M70.0201 82.0645H63.6608C64.2469 84.4785 64.6159 86.9216 64.7653 89.376C64.7653 92.0602 59.9221 102.705 66.8233 102.705C73.7245 102.705 68.8813 92.087 68.8813 89.376C69.042 86.921 69.4225 84.4778 70.0201 82.0645Z" fill="#E0E0E0"/>
<path d="M45.8247 92.9512V96.1721C45.8319 97.8988 46.7117 99.5532 48.2719 100.774C49.8322 101.995 51.9462 102.684 54.1527 102.689H58.2687C60.4753 102.684 62.5893 101.995 64.1496 100.774C65.7098 99.5532 66.5896 97.8988 66.5968 96.1721V92.9512H45.8247Z" fill="#F5F5F5"/>
<path d="M134.229 123.073C134.229 126.831 139.601 129.902 146.166 129.902H152.093C158.658 129.902 164.029 126.831 164.029 123.073H134.229Z" fill="#E0E0E0"/>
<path d="M291.282 117.565C287.688 119.862 282.721 124.066 278.18 129.982C275.147 133.922 273.323 138.034 272.52 143.499C272.52 137.325 272.568 130.696 272.596 124.436C273.508 122.826 275.593 119.111 277.089 116.18C282.076 106.394 283.949 103.983 288.428 95.5443C294.417 84.2709 300.55 70.9254 298.794 71.9937C295.213 74.1678 281.493 94.272 280.011 97.1494C275.972 104.828 273.475 112.95 272.609 121.226C272.609 115.321 272.664 109.953 272.692 105.787C272.788 92.1998 273.083 87.814 273.227 86.4612C273.782 85.774 274.434 84.9741 274.818 84.5447C278.042 80.8943 279.284 77.7914 282.316 72.348C286.624 64.6445 290.329 50.9608 289.245 51.648C284.731 54.5254 281.177 60.6989 276.499 68.5741C271.82 76.4493 273.158 80.9748 272.232 87.6959C272.04 89.0164 271.889 93.9982 271.779 100.896C270.572 93.5419 268.294 88.6997 264.144 84.2977C259.04 78.8812 254.101 75.2254 250.479 73.3143C246.857 71.4032 256.735 84.7057 261.455 90.4927C265.66 95.6677 269.536 100.225 271.745 104.719C271.628 114.075 271.573 125.918 271.573 136.928C270.49 131.914 268.72 126.508 266.36 122.327C263.52 117.302 259.157 109.593 255.679 106.979C254.849 106.351 259.315 121.344 262.182 125.327C265.05 129.311 267.156 133.074 268.96 135.334C269.378 135.871 270.778 137.894 271.573 139.065C271.573 152.523 271.669 164.398 271.82 168.44H272.561C272.513 167.398 272.5 160.549 272.52 151.487C274.311 146.57 278.399 140.954 281.774 135.833C285.451 130.288 294.877 115.283 291.282 117.565Z" fill="#E0E0E0"/>
<path d="M282.934 176.729H261.434L259.809 160.237H284.559L282.934 176.729Z" fill="#F0F0F0"/>
<path d="M286.158 162.159H258.203L257.408 156.592H286.961L286.158 162.159Z" fill="#F5F5F5"/>
<path d="M85.2423 11.0049H46.792V44.0465H85.2423V11.0049Z" fill="#E0E0E0"/>
<path d="M89.4064 11.0049H49.687V44.0465H89.4064V11.0049Z" fill="#F5F5F5"/>
<path d="M86.0791 41.4428V13.6084L53.0139 13.6084V41.4428H86.0791Z" fill="white"/>
<path d="M78.0601 34.6902V20.3516H61.0267V34.6902H78.0601Z" fill="#F5F5F5"/>
<path d="M281.294 14.8535H245.574V45.5492H281.294V14.8535Z" fill="#E0E0E0"/>
<path d="M285.164 14.8535H248.271V45.5492H285.164V14.8535Z" fill="#F5F5F5"/>
<path d="M282.076 43.1289V17.2754H251.364V43.1289H282.076Z" fill="white"/>
<path d="M266.717 37.7011C272.009 37.7011 276.3 34.3435 276.3 30.2016C276.3 26.0598 272.009 22.7021 266.717 22.7021C261.424 22.7021 257.133 26.0598 257.133 30.2016C257.133 34.3435 261.424 37.7011 266.717 37.7011Z" fill="#F5F5F5"/>
<path d="M125.188 30.7061H96.6641V55.2175H125.188V30.7061Z" fill="#E0E0E0"/>
<path d="M128.275 30.7061H98.8115V55.2175H128.275V30.7061Z" fill="#F5F5F5"/>
<path d="M125.806 53.285V32.6387H101.281V53.285H125.806Z" fill="white"/>
<path d="M113.547 37.7393L106.838 46.8331H120.256L113.547 37.7393Z" fill="#F5F5F5"/>
<path d="M171.5 200C244.958 200 304.508 197.28 304.508 193.924C304.508 190.567 244.958 187.847 171.5 187.847C98.0412 187.847 38.4912 190.567 38.4912 193.924C38.4912 197.28 98.0412 200 171.5 200Z" fill="#F5F5F5"/>
<path d="M239.586 58.2088L232.78 56.0615C232.78 56.0615 223.801 68.8756 221.228 69.5251C217.73 70.4055 210.485 72.8534 206.191 73.2829C205.608 73.8197 204.654 75.4893 204.744 76.0959C210.513 77.6044 223.19 75.602 225.907 74.0237C232.088 70.4431 239.586 58.2088 239.586 58.2088Z" fill="#E58A7B"/>
<path d="M241.678 55.2939C242.947 58.9605 236.073 66.3364 236.073 66.3364L227.066 62.3854C227.066 62.3854 228.753 59.3523 230.811 56.2656C234.111 51.2785 240.23 51.1121 241.678 55.2939Z" fill="#407BFF"/>
<path opacity="0.2" d="M241.678 55.2939C242.947 58.9605 236.073 66.3364 236.073 66.3364L227.066 62.3854C227.066 62.3854 228.753 59.3523 230.811 56.2656C234.111 51.2785 240.23 51.1121 241.678 55.2939Z" fill="black"/>
<path opacity="0.2" d="M230.64 63.9636L234.187 65.5204L234.811 57.001C232.746 58.241 231.292 61.9774 230.64 63.9636Z" fill="black"/>
<path d="M235.751 52.5342C235.751 52.5342 228.74 64.7416 232.828 87.4709H260.453C260.892 84.1533 259.438 67.9626 264.7 52.3302C261.669 51.8668 258.603 51.5601 255.521 51.4122C251.612 51.235 247.693 51.235 243.784 51.4122C241.074 51.6276 238.388 52.0026 235.751 52.5342Z" fill="#407BFF"/>
<path opacity="0.2" d="M235.751 52.5342C235.751 52.5342 228.74 64.7416 232.828 87.4709H260.453C260.892 84.1533 259.438 67.9626 264.7 52.3302C261.669 51.8668 258.603 51.5601 255.521 51.4122C251.612 51.235 247.693 51.235 243.784 51.4122C241.074 51.6276 238.388 52.0026 235.751 52.5342Z" fill="black"/>
<g style="mix-blend-mode:multiply">
<path d="M229.343 194.407C229.302 194.986 239.777 195.453 252.736 195.453C265.695 195.453 276.245 194.986 276.286 194.407C276.328 193.827 265.859 193.365 252.894 193.365C239.928 193.365 229.391 193.832 229.343 194.407Z" fill="#E8ECF1"/>
</g>
<path d="M247.783 179.173L242.884 180.657L247.104 189.189L252.004 187.705L247.783 179.173Z" fill="#E58A7B"/>
<path d="M269.632 190.279H264.467L262.573 180.922H267.739L269.632 190.279Z" fill="#E58A7B"/>
<path d="M264.11 189.812H269.913C270.014 189.812 270.111 189.84 270.188 189.891C270.265 189.942 270.316 190.013 270.332 190.091L271.08 193.682C271.095 193.772 271.086 193.864 271.053 193.951C271.019 194.038 270.962 194.118 270.885 194.187C270.808 194.255 270.714 194.309 270.607 194.346C270.501 194.383 270.386 194.402 270.27 194.401C268.246 194.375 267.272 194.278 264.72 194.278C263.149 194.278 259.918 194.407 257.737 194.407C255.555 194.407 255.411 192.732 256.31 192.576C260.344 191.894 261.908 190.966 263.252 190.064C263.489 189.901 263.794 189.811 264.11 189.812Z" fill="#263238"/>
<path d="M246.96 188.426L252.448 187.17C252.546 187.149 252.65 187.154 252.744 187.185C252.838 187.216 252.915 187.272 252.963 187.342L255.021 190.563C255.068 190.645 255.093 190.734 255.092 190.824C255.091 190.913 255.066 191.002 255.017 191.083C254.968 191.165 254.897 191.237 254.808 191.294C254.72 191.352 254.617 191.394 254.506 191.417C252.51 191.846 251.172 192.109 248.675 192.678C246.953 193.07 245.197 193.709 243.496 194.133C242.316 194.428 239.544 194.439 238.111 194.439C235.991 194.439 235.518 192.689 236.43 192.608C238.728 192.41 239.037 192.501 240.306 192.002C242.382 191.291 244.264 190.274 245.849 189.006C246.147 188.74 246.531 188.54 246.96 188.426Z" fill="#263238"/>
<path d="M207.055 73.2612L201.375 71.3984L199.036 76.3265C201.364 76.604 203.733 76.604 206.061 76.3265L207.055 73.2612Z" fill="#E58A7B"/>
<path d="M197.149 71.2695L196.999 74.5442L199.036 76.3157L201.375 71.3876L197.149 71.2695Z" fill="#E58A7B"/>
<path d="M248.455 179.898L243.541 181.383L245.717 185.795L250.632 184.31L248.455 179.898Z" fill="#CF6F64"/>
<path d="M267.739 180.922H262.573L263.554 185.748H268.72L267.739 180.922Z" fill="#CF6F64"/>
<path opacity="0.2" d="M231.95 81.3245C232.053 82.2962 232.17 83.2893 232.321 84.3093L252.859 79.0913C256.067 78.3474 258.854 76.7701 260.762 74.6196C260.845 73.1862 260.947 71.6778 261.105 70.1049C261.174 69.3426 261.256 68.5588 261.345 67.7643C261.434 66.9698 261.558 66.0894 261.688 65.2412L231.95 81.3245Z" fill="black"/>
<path d="M238.659 63.7162L237.973 63.6518C238.378 60.9677 240.937 58.8526 243.633 58.9063V59.4431C241.273 59.4055 239.023 61.3113 238.659 63.7162Z" fill="white"/>
<path d="M242.316 68.6708H242.199V68.134C244.559 68.2038 246.775 66.2766 247.138 63.877L247.824 63.9414C247.461 66.5664 244.984 68.6708 242.316 68.6708Z" fill="white"/>
<path d="M255.137 41.0674C254.17 44.0253 253.031 49.4419 255.521 51.412C255.521 51.412 253.779 54.4129 246.761 54.4129C240.347 54.4129 243.784 51.412 243.784 51.412C248.051 50.6283 248.126 48.1911 247.564 45.8827L255.137 41.0674Z" fill="#E58A7B"/>
<path d="M252.05 43.0322L247.57 45.8828C247.709 46.4132 247.789 46.952 247.81 47.4933C249.121 48.5132 251.748 45.9311 252.016 44.6105C252.152 44.0906 252.163 43.5555 252.05 43.0322Z" fill="#CF6F64"/>
<path d="M239.867 41.0299C240.178 41.4527 240.598 41.8206 241.1 42.1106C241.601 42.4007 242.174 42.6066 242.782 42.7155C244.429 43.0001 245.252 41.8137 244.799 40.6219C244.394 39.5483 243.043 38.1042 241.369 38.3511C241.01 38.4089 240.675 38.5331 240.39 38.7133C240.106 38.8935 239.88 39.1244 239.733 39.3867C239.586 39.649 239.521 39.9351 239.545 40.221C239.568 40.5069 239.678 40.7843 239.867 41.0299Z" fill="#CF6F64"/>
<path d="M242.59 31.5657C240.025 32.4837 239.119 40.4609 242.343 41.6419C245.568 42.8229 247.447 29.821 242.59 31.5657Z" fill="#263238"/>
<path d="M255.919 36.617C255.301 40.6217 255.233 42.9784 252.489 45.0291C251.639 45.7096 250.564 46.193 249.385 46.4259C248.206 46.6588 246.967 46.6321 245.806 46.3489C244.645 46.0656 243.607 45.5368 242.805 44.8207C242.004 44.1047 241.471 43.2293 241.266 42.2912C240.436 38.6945 241.581 32.7518 246.713 31.1575C247.791 30.7853 248.977 30.6456 250.147 30.7528C251.317 30.8601 252.43 31.2103 253.369 31.7672C254.308 32.3242 255.04 33.0675 255.488 33.9203C255.936 34.773 256.085 35.7041 255.919 36.617Z" fill="#E58A7B"/>
<path d="M247.488 33.6379C251.289 32.881 254.081 32.3656 253.079 34.8404C251.755 38.1472 250.164 41.3467 252.297 41.4916C253.6 41.5829 259.363 39.6718 258.629 37.7339C257.991 36.0482 260.687 35.5866 261.167 34.733C262.944 31.6409 257.861 32.0489 258.766 30.17C259.672 28.2911 254.65 25.2634 251.906 26.7719C247.44 29.2091 239.778 29.1715 243.804 25.1614C246.692 22.3001 241.541 22.8852 241.541 22.8852C241.541 22.8852 244.655 24.3293 239.414 26.5625C233.871 28.946 238.954 35.3504 247.488 33.6379Z" fill="#263238"/>
<path d="M257.936 41.0299C257.186 41.8795 256.058 42.4803 254.773 42.7155C253.079 43.0001 252.427 41.8137 253.065 40.6219C253.635 39.5483 255.199 38.1042 256.818 38.3511C258.437 38.5981 258.807 39.9777 257.936 41.0299Z" fill="#E58A7B"/>
<path d="M232.829 87.4707C232.829 87.4707 228.191 119.949 227.828 132.274C227.457 145.094 243.544 185.093 243.544 185.093L251.776 182.408C251.776 182.408 242.172 145.861 243.544 133.273C244.998 119.546 251.008 87.4922 251.008 87.4922L232.829 87.4707Z" fill="#407BFF"/>
<path opacity="0.2" d="M244.353 96.3874C240.655 102.389 243.146 114.258 245.149 121.291C245.91 116.325 246.816 110.935 247.673 105.948C247.591 98.2824 246.829 92.3612 244.353 96.3874Z" fill="black"/>
<path d="M251.412 180.282C251.453 180.282 252.386 182.333 252.386 182.333L242.892 185.457L241.396 183.278L251.412 180.282Z" fill="#407BFF"/>
<path d="M242.631 87.4707C242.631 87.4707 246.178 118.36 248.524 129.928C251.103 142.603 261.215 184.813 261.215 184.813H270.675C270.675 184.813 265.009 143.628 263.939 131.077C262.772 117.463 260.454 87.4707 260.454 87.4707H242.631Z" fill="#407BFF"/>
<path d="M270.819 182.886C270.86 182.886 271.135 184.953 271.135 184.953H260.735L259.994 182.58L270.819 182.886Z" fill="#407BFF"/>
<path opacity="0.2" d="M267.197 180.439C267.175 180.439 267.154 180.433 267.138 180.422C267.122 180.411 267.111 180.396 267.108 180.38C267.053 180.004 261.942 142.802 260.982 131.528C259.939 119.299 257.84 92.1736 257.819 91.8999C257.818 91.891 257.82 91.882 257.823 91.8736C257.827 91.8651 257.833 91.8574 257.841 91.8508C257.848 91.8442 257.858 91.839 257.868 91.8354C257.879 91.8319 257.89 91.83 257.901 91.8301C257.924 91.83 257.946 91.8366 257.962 91.8486C257.979 91.8605 257.989 91.8769 257.991 91.8945C257.991 92.1683 260.11 119.273 261.153 131.523C262.114 142.796 267.224 179.972 267.272 180.374C267.274 180.383 267.274 180.392 267.271 180.401C267.268 180.41 267.263 180.418 267.256 180.425C267.249 180.432 267.24 180.438 267.23 180.442C267.219 180.446 267.208 180.449 267.197 180.449V180.439Z" fill="black"/>
<path d="M248.071 37.7341C248.071 38.0615 247.811 38.3246 247.536 38.3246C247.262 38.3246 247.063 38.0615 247.09 37.7341C247.118 37.4066 247.351 37.1436 247.625 37.1436C247.9 37.1436 248.099 37.412 248.071 37.7341Z" fill="#263238"/>
<path d="M243.365 37.7341C243.365 38.0615 243.098 38.3246 242.83 38.3246C242.563 38.3246 242.357 38.0615 242.377 37.7341C242.398 37.4066 242.645 37.1436 242.919 37.1436C243.194 37.1436 243.393 37.412 243.365 37.7341Z" fill="#263238"/>
<path d="M244.847 37.9004C244.274 38.9003 243.536 39.8371 242.652 40.6865C243.338 41.2233 244.621 40.9764 244.621 40.9764L244.847 37.9004Z" fill="#DF5753"/>
<path d="M244.97 42.3449C244.954 42.3449 244.939 42.3424 244.924 42.3374C244.909 42.3325 244.896 42.3253 244.885 42.3163C244.874 42.3072 244.866 42.2965 244.861 42.2848C244.855 42.2731 244.853 42.2607 244.854 42.2482C244.855 42.2221 244.87 42.1975 244.894 42.1796C244.919 42.1616 244.951 42.1516 244.984 42.1516C245.509 42.1544 246.028 42.0653 246.502 41.8906C246.977 41.716 247.396 41.4603 247.728 41.1424C247.752 41.1261 247.782 41.1172 247.814 41.1172C247.845 41.1172 247.876 41.1261 247.9 41.1424C247.922 41.1604 247.934 41.1844 247.934 41.2095C247.934 41.2345 247.922 41.2586 247.9 41.2766C247.544 41.6145 247.097 41.8858 246.59 42.0707C246.083 42.2555 245.53 42.3492 244.97 42.3449Z" fill="#263238"/>
<path d="M248.908 36.7466C248.876 36.7597 248.839 36.7666 248.802 36.7666C248.765 36.7666 248.729 36.7597 248.696 36.7466C248.439 36.6167 248.147 36.536 247.843 36.5108C247.539 36.4856 247.232 36.5167 246.946 36.6016C246.919 36.6125 246.888 36.6189 246.857 36.6205C246.826 36.6221 246.795 36.6188 246.766 36.6107C246.736 36.6027 246.709 36.5902 246.686 36.5739C246.663 36.5576 246.644 36.5378 246.631 36.5157C246.605 36.4679 246.605 36.4143 246.629 36.3662C246.653 36.318 246.701 36.2792 246.761 36.258C247.12 36.1434 247.509 36.0982 247.894 36.1262C248.28 36.1543 248.651 36.2547 248.977 36.4191C249.003 36.4331 249.026 36.451 249.043 36.4719C249.061 36.4927 249.072 36.516 249.078 36.5405C249.084 36.565 249.083 36.5901 249.077 36.6144C249.07 36.6387 249.057 36.6617 249.039 36.6821C249.004 36.7129 248.959 36.7353 248.908 36.7466Z" fill="#263238"/>
<path d="M241.547 35.6725C241.511 35.6655 241.478 35.6506 241.451 35.6295C241.429 35.612 241.411 35.5911 241.398 35.5681C241.386 35.545 241.379 35.5203 241.379 35.4953C241.379 35.4703 241.386 35.4456 241.398 35.4225C241.411 35.3995 241.429 35.3786 241.451 35.3611C241.714 35.1303 242.042 34.9502 242.408 34.8347C242.775 34.7193 243.17 34.6716 243.564 34.6954C243.596 34.6992 243.626 34.7081 243.653 34.7214C243.68 34.7347 243.703 34.7522 243.721 34.7729C243.739 34.7935 243.752 34.8168 243.758 34.8414C243.764 34.8659 243.763 34.8911 243.756 34.9155C243.742 34.9652 243.704 35.009 243.651 35.0387C243.598 35.0683 243.533 35.0818 243.468 35.0766C243.157 35.0612 242.845 35.1016 242.556 35.1946C242.267 35.2876 242.009 35.4308 241.801 35.6134C241.77 35.6406 241.73 35.6605 241.685 35.6709C241.64 35.6813 241.593 35.6818 241.547 35.6725Z" fill="#263238"/>
<path d="M267.355 57.613L260.221 56.126C260.221 56.126 253.223 69.6057 250.747 70.4807C247.385 71.6832 238.872 75.849 235.25 77.8191C235.051 78.4902 235.209 80.267 235.662 80.7556C241.836 79.8752 253.656 76.316 256.125 74.5069C261.757 70.3787 267.355 57.613 267.355 57.613Z" fill="#E58A7B"/>
<path d="M262.374 190.52C262.026 190.542 261.679 190.468 261.393 190.311C261.305 190.248 261.239 190.169 261.201 190.08C261.164 189.992 261.157 189.897 261.181 189.806C261.185 189.749 261.209 189.694 261.25 189.647C261.291 189.6 261.348 189.562 261.414 189.538C261.99 189.307 263.602 190.107 263.787 190.198C263.808 190.208 263.823 190.223 263.832 190.24C263.841 190.257 263.842 190.277 263.835 190.295C263.83 190.313 263.818 190.331 263.801 190.345C263.784 190.359 263.763 190.369 263.739 190.375C263.292 190.461 262.835 190.51 262.374 190.52ZM261.688 189.683C261.636 189.674 261.582 189.674 261.53 189.683C261.504 189.693 261.482 189.709 261.468 189.729C261.453 189.749 261.446 189.772 261.448 189.795C261.43 189.858 261.433 189.923 261.457 189.984C261.481 190.046 261.525 190.101 261.585 190.144C261.853 190.332 262.525 190.354 263.41 190.22C262.883 189.948 262.29 189.765 261.668 189.683H261.688Z" fill="#407BFF"/>
<path d="M263.705 190.375C263.688 190.379 263.668 190.379 263.65 190.375C263.136 190.149 262.169 189.263 262.313 188.812C262.334 188.741 262.386 188.677 262.459 188.631C262.533 188.586 262.624 188.561 262.718 188.56C262.81 188.55 262.903 188.557 262.992 188.578C263.081 188.599 263.163 188.635 263.232 188.684C263.801 189.065 263.836 190.235 263.836 190.294C263.839 190.312 263.835 190.33 263.824 190.345C263.812 190.361 263.795 190.373 263.774 190.38C263.751 190.384 263.727 190.382 263.705 190.375ZM262.786 188.737H262.738C262.58 188.737 262.56 188.807 262.553 188.834C262.471 189.097 263.081 189.768 263.589 190.085C263.586 189.631 263.407 189.189 263.074 188.818C262.995 188.763 262.892 188.735 262.786 188.737Z" fill="#407BFF"/>
<path d="M244.161 189.849C243.741 189.963 243.284 189.963 242.864 189.849C242.769 189.809 242.688 189.75 242.629 189.679C242.571 189.607 242.536 189.526 242.528 189.441C242.52 189.388 242.528 189.334 242.553 189.284C242.579 189.234 242.619 189.19 242.672 189.156C243.221 188.77 245.464 189.156 245.718 189.232C245.742 189.236 245.764 189.248 245.778 189.263C245.793 189.279 245.801 189.298 245.8 189.317C245.801 189.338 245.795 189.358 245.781 189.375C245.768 189.392 245.748 189.406 245.725 189.414C245.22 189.593 244.697 189.738 244.161 189.849ZM243.043 189.21C242.964 189.222 242.891 189.25 242.83 189.291C242.808 189.303 242.791 189.321 242.782 189.341C242.772 189.361 242.77 189.382 242.775 189.403C242.78 189.46 242.802 189.514 242.84 189.562C242.879 189.61 242.932 189.649 242.995 189.677C243.358 189.827 244.202 189.709 245.293 189.35C244.558 189.205 243.797 189.157 243.043 189.21Z" fill="#407BFF"/>
<path d="M245.704 189.415H245.649C244.963 189.318 243.591 188.701 243.55 188.239C243.55 188.131 243.612 187.981 243.941 187.895C244.053 187.864 244.171 187.851 244.289 187.857C244.406 187.862 244.522 187.886 244.627 187.928C245.368 188.212 245.759 189.243 245.78 189.291C245.785 189.307 245.784 189.324 245.778 189.34C245.772 189.356 245.761 189.371 245.746 189.382C245.735 189.395 245.721 189.406 245.704 189.415ZM244.079 188.056H244.01C243.797 188.115 243.797 188.185 243.797 188.207C243.797 188.486 244.792 188.996 245.485 189.168C245.325 188.736 244.987 188.359 244.524 188.094C244.387 188.039 244.228 188.026 244.079 188.056Z" fill="#407BFF"/>
<path d="M235.833 77.502L228.678 80.0787L227.848 81.6892L230.489 83.0796C230.489 83.0796 235.428 82.6609 236.835 80.1754L235.833 77.502Z" fill="#E58A7B"/>
<path d="M236.135 80.8467C235.975 79.7709 235.521 78.7346 234.804 77.8082L235.936 77.1426C236.788 78.2099 237.331 79.41 237.528 80.6588L236.135 80.8467Z" fill="#263238"/>
<path d="M237.356 78.2645C237.507 78.4506 237.582 78.6688 237.569 78.8892C237.556 79.1096 237.457 79.3215 237.285 79.4962C237.112 79.6709 236.876 79.7999 236.607 79.8656C236.337 79.9312 236.049 79.9304 235.78 79.8632C235.512 79.7961 235.276 79.6658 235.106 79.4901C234.935 79.3144 234.838 79.1019 234.827 78.8815C234.816 78.661 234.893 78.4433 235.046 78.258C235.199 78.0727 235.421 77.9287 235.682 77.8458C235.975 77.7288 236.316 77.7072 236.629 77.7857C236.943 77.8641 237.204 78.0361 237.356 78.2645Z" fill="#263238"/>
<path d="M223.842 82.162L224.795 82.9135L231.216 80.7662L228.678 80.0791L223.842 82.162Z" fill="#E58A7B"/>
<path opacity="0.2" d="M251.412 180.282C251.453 180.282 252.386 182.333 252.386 182.333L242.892 185.457L241.396 183.278L251.412 180.282Z" fill="black"/>
<path opacity="0.2" d="M270.819 182.886C270.86 182.886 271.135 184.953 271.135 184.953H260.735L259.994 182.58L270.819 182.886Z" fill="black"/>
<path d="M269.214 56.066C271.1 60.8277 263.726 67.3394 263.726 67.3394L253.539 64.0862C254.746 61.334 256.138 58.6336 257.709 55.9963C260.838 50.7192 267.307 51.2614 269.214 56.066Z" fill="#407BFF"/>
<path opacity="0.2" d="M269.214 56.066C271.1 60.8277 263.726 67.3394 263.726 67.3394L253.539 64.0862C254.746 61.334 256.138 58.6336 257.709 55.9963C260.838 50.7192 267.307 51.2614 269.214 56.066Z" fill="black"/>
<path d="M167.988 8.3584H163.604V8.91133H167.988V8.3584Z" fill="#407BFF"/>
<path d="M224.732 30.2427L224.202 39.4561L224.908 39.4809L225.438 30.2676L224.732 30.2427Z" fill="#407BFF"/>
<path d="M223.368 10.8389H142.42L134.888 142.748H215.836L223.368 10.8389Z" fill="#407BFF"/>
<path opacity="0.56" d="M220.953 12.6533H140.005L132.473 144.562H213.421L220.953 12.6533Z" fill="#FAFAFA"/>
<path opacity="0.07" d="M218.539 14.4619H137.591L130.052 146.371H211L218.539 14.4619Z" fill="#407BFF"/>
<path d="M209.326 71.9941H140.232L139.656 82.0865H208.75L209.326 71.9941Z" fill="white"/>
<path d="M178.229 64.6289H140.65L140.396 69.1436H177.976L178.229 64.6289Z" fill="#407BFF"/>
<path d="M207.769 99.2324H138.675L138.099 109.325H207.193L207.769 99.2324Z" fill="white"/>
<path opacity="0.47" d="M195.099 122.955H148.636L147.943 135.05H194.406L195.099 122.955Z" fill="#407BFF"/>
<path d="M191.991 136.928H145.528C145.508 136.932 145.486 136.932 145.466 136.928C145.459 136.913 145.459 136.896 145.466 136.88L146.152 124.78C146.152 124.772 146.154 124.764 146.158 124.756C146.163 124.748 146.169 124.742 146.176 124.736C146.184 124.731 146.193 124.726 146.203 124.724C146.213 124.721 146.224 124.72 146.234 124.721H192.697C192.706 124.718 192.715 124.716 192.725 124.716C192.734 124.716 192.743 124.718 192.752 124.721C192.757 124.727 192.759 124.735 192.759 124.742C192.759 124.75 192.757 124.757 192.752 124.764L192.08 136.891C192.071 136.903 192.059 136.914 192.043 136.92C192.027 136.927 192.009 136.93 191.991 136.928ZM145.61 136.799H191.908L192.594 124.828H146.296L145.61 136.799Z" fill="white"/>
<path d="M170.114 91.8672H139.093L138.839 96.3873H169.853L170.114 91.8672Z" fill="#407BFF"/>
<path d="M194.213 39.3927C194.036 42.3299 192.701 45.1521 190.392 47.472C188.683 49.2242 186.484 50.6468 183.963 51.6304C181.442 52.614 178.666 53.1325 175.849 53.1462C173.573 53.1598 171.317 52.8085 169.221 52.1141C167.124 51.4196 165.232 50.3966 163.66 49.1081C162.088 47.8196 160.87 46.2929 160.08 44.6221C159.291 42.9512 158.947 41.1716 159.07 39.3927C159.311 35.7015 161.345 32.2219 164.756 29.6654C168.167 27.1088 172.697 25.6686 177.42 25.6392C179.698 25.6226 181.956 25.9717 184.055 26.665C186.154 27.3583 188.049 28.381 189.623 29.67C191.197 30.959 192.416 32.4868 193.206 34.1591C193.995 35.8314 194.338 37.6126 194.213 39.3927Z" fill="white"/>
<path d="M195.867 28.5158C195.822 29.2968 195.467 30.0474 194.852 30.6631C194.396 31.1285 193.811 31.5063 193.14 31.7678C192.47 32.0292 191.732 32.1673 190.982 32.1716C190.257 32.175 189.541 32.0394 188.897 31.7764C188.254 31.5134 187.703 31.1312 187.292 30.6631C186.747 30.0305 186.478 29.2776 186.523 28.5158C186.59 27.5358 187.131 26.6125 188.038 25.9341C188.944 25.2558 190.147 24.8736 191.401 24.8654C192.006 24.8611 192.606 24.9537 193.163 25.1377C193.721 25.3216 194.224 25.593 194.642 25.935C195.061 26.277 195.385 26.6824 195.596 27.1262C195.806 27.5701 195.899 28.043 195.867 28.5158Z" fill="#407BFF"/>
<path d="M147.675 77.0402C147.642 77.4728 147.401 77.8795 147 78.1784C146.599 78.4773 146.068 78.646 145.514 78.6507C145.247 78.6532 144.981 78.6127 144.735 78.5318C144.488 78.451 144.266 78.3313 144.08 78.1804C143.895 78.0294 143.752 77.8504 143.658 77.6543C143.565 77.4582 143.524 77.2492 143.538 77.0402C143.568 76.6067 143.808 76.1985 144.21 75.8992C144.612 75.5998 145.145 75.4319 145.699 75.4297C145.966 75.428 146.231 75.469 146.477 75.5502C146.723 75.6313 146.946 75.751 147.131 75.9018C147.316 76.0525 147.459 76.2313 147.553 76.427C147.646 76.6228 147.688 76.8315 147.675 77.0402Z" fill="#263238"/>
<path d="M156.922 77.0403C156.891 77.4733 156.65 77.8808 156.249 78.1799C155.848 78.479 155.316 78.6474 154.762 78.6508C154.495 78.6525 154.23 78.6115 153.985 78.5303C153.739 78.4491 153.517 78.3293 153.332 78.1785C153.148 78.0276 153.005 77.8488 152.912 77.6531C152.819 77.4573 152.779 77.2488 152.793 77.0403C152.822 76.6077 153.062 76.2003 153.462 75.9011C153.862 75.6018 154.393 75.4333 154.947 75.4298C155.214 75.4273 155.479 75.4678 155.726 75.5487C155.973 75.6295 156.195 75.7492 156.38 75.9001C156.566 76.051 156.709 76.2301 156.803 76.4262C156.896 76.6223 156.937 76.8313 156.922 77.0403Z" fill="#263238"/>
<path d="M166.177 77.0403C166.145 77.4733 165.904 77.8808 165.503 78.1799C165.102 78.479 164.57 78.6474 164.016 78.6508C163.749 78.6525 163.484 78.6115 163.238 78.5303C162.992 78.4492 162.769 78.3295 162.584 78.1787C162.399 78.028 162.256 77.8492 162.162 77.6535C162.068 77.4577 162.027 77.249 162.04 77.0403C162.071 76.6072 162.312 76.1998 162.713 75.9007C163.115 75.6016 163.647 75.4332 164.201 75.4298C164.468 75.4273 164.733 75.4678 164.98 75.5487C165.227 75.6295 165.449 75.7492 165.635 75.9001C165.82 76.051 165.963 76.2301 166.057 76.4262C166.15 76.6223 166.191 76.8313 166.177 77.0403Z" fill="#263238"/>
<path d="M146.118 104.278C146.085 104.711 145.844 105.118 145.443 105.417C145.042 105.716 144.511 105.884 143.957 105.889C143.69 105.891 143.425 105.85 143.179 105.769C142.933 105.687 142.711 105.568 142.526 105.417C142.341 105.266 142.197 105.087 142.103 104.892C142.01 104.696 141.968 104.487 141.981 104.278C142.013 103.845 142.254 103.438 142.655 103.139C143.056 102.84 143.588 102.671 144.142 102.668C144.409 102.666 144.674 102.707 144.92 102.788C145.166 102.87 145.389 102.989 145.574 103.14C145.759 103.291 145.902 103.47 145.996 103.665C146.089 103.861 146.131 104.07 146.118 104.278Z" fill="#263238"/>
<path d="M155.365 104.279C155.334 104.711 155.094 105.117 154.694 105.416C154.294 105.715 153.764 105.884 153.211 105.889C152.944 105.891 152.679 105.851 152.432 105.77C152.186 105.689 151.963 105.57 151.778 105.419C151.592 105.268 151.449 105.089 151.356 104.893C151.262 104.696 151.222 104.487 151.236 104.279C151.267 103.845 151.508 103.438 151.909 103.139C152.31 102.84 152.842 102.671 153.397 102.668C153.663 102.666 153.928 102.707 154.174 102.788C154.419 102.87 154.641 102.989 154.826 103.14C155.01 103.291 155.153 103.47 155.246 103.666C155.339 103.861 155.379 104.07 155.365 104.279Z" fill="#263238"/>
<path d="M164.64 104.279C164.609 104.712 164.368 105.119 163.967 105.418C163.565 105.717 163.033 105.886 162.479 105.889C162.212 105.89 161.948 105.848 161.702 105.767C161.457 105.686 161.235 105.566 161.05 105.415C160.865 105.265 160.722 105.086 160.628 104.891C160.534 104.695 160.491 104.487 160.503 104.279C160.536 103.846 160.778 103.439 161.179 103.14C161.58 102.842 162.111 102.673 162.664 102.668C162.932 102.666 163.197 102.706 163.444 102.787C163.69 102.868 163.913 102.987 164.098 103.138C164.283 103.289 164.427 103.468 164.52 103.665C164.613 103.861 164.654 104.07 164.64 104.279Z" fill="#263238"/>
<path d="M173.873 104.278C173.841 104.711 173.599 105.118 173.198 105.417C172.797 105.716 172.266 105.884 171.713 105.889C171.446 105.89 171.182 105.848 170.936 105.767C170.69 105.686 170.468 105.566 170.283 105.415C170.099 105.265 169.955 105.086 169.861 104.891C169.767 104.695 169.725 104.487 169.737 104.278C169.77 103.846 170.011 103.439 170.412 103.14C170.813 102.841 171.344 102.673 171.898 102.668C172.165 102.666 172.43 102.707 172.676 102.788C172.922 102.87 173.144 102.989 173.329 103.14C173.514 103.291 173.658 103.47 173.751 103.665C173.845 103.861 173.887 104.07 173.873 104.278Z" fill="#263238"/>
<path d="M183.162 104.278C183.129 104.711 182.888 105.118 182.486 105.417C182.085 105.716 181.555 105.884 181.001 105.889C180.733 105.891 180.468 105.851 180.222 105.77C179.975 105.689 179.752 105.57 179.567 105.419C179.382 105.268 179.238 105.089 179.145 104.893C179.052 104.696 179.011 104.487 179.025 104.278C179.057 103.845 179.297 103.438 179.699 103.139C180.1 102.84 180.632 102.671 181.186 102.668C181.453 102.666 181.718 102.707 181.964 102.788C182.21 102.87 182.433 102.989 182.617 103.14C182.802 103.291 182.946 103.47 183.04 103.665C183.133 103.861 183.175 104.07 183.162 104.278Z" fill="#263238"/>
<path d="M181.758 38.6764C184.629 36.4791 184.782 32.9572 182.098 30.8099C179.415 28.6626 174.912 28.7032 172.041 30.9004C169.169 33.0977 169.017 36.6196 171.7 38.7669C174.384 40.9142 178.887 40.8737 181.758 38.6764Z" fill="#407BFF"/>
<path d="M190.392 47.4714C188.683 49.2236 186.483 50.6462 183.962 51.6298C181.441 52.6134 178.666 53.132 175.849 53.1456C173.117 53.1638 170.422 52.6556 168.001 51.6661C165.579 50.6765 163.506 49.236 161.964 47.4714C165.298 44.8731 170.574 43.1768 176.418 43.1768C182.263 43.1768 187.353 44.8731 190.392 47.4714Z" fill="#407BFF"/>
<path opacity="0.1" d="M181.758 38.6764C184.629 36.4791 184.782 32.9572 182.098 30.8099C179.415 28.6626 174.912 28.7032 172.041 30.9004C169.169 33.0977 169.017 36.6196 171.7 38.7669C174.384 40.9142 178.887 40.8737 181.758 38.6764Z" fill="white"/>
<path opacity="0.1" d="M190.392 47.4714C188.683 49.2236 186.483 50.6462 183.962 51.6298C181.441 52.6134 178.666 53.132 175.849 53.1456C173.117 53.1638 170.422 52.6556 168.001 51.6661C165.579 50.6765 163.506 49.236 161.964 47.4714C165.298 44.8731 170.574 43.1768 176.418 43.1768C182.263 43.1768 187.353 44.8731 190.392 47.4714Z" fill="white"/>
<path d="M89.4611 84.518C88.8094 85.6346 88.1233 86.864 87.5265 88.0557C86.9297 89.2475 86.3192 90.4768 85.7909 91.7008C84.7124 94.1129 83.891 96.5907 83.3351 99.109L83.1842 99.8981C83.1698 100.033 83.186 100.17 83.2322 100.301C83.3941 100.746 83.6491 101.166 83.9868 101.546C84.8677 102.529 85.8897 103.43 87.0326 104.23C88.2376 105.107 89.5017 105.933 90.8193 106.705C92.1364 107.5 93.5222 108.273 94.8873 109.003L93.6045 110.887C90.3448 109.775 87.2507 108.388 84.3778 106.748C82.8451 105.873 81.4618 104.849 80.2618 103.699C79.5505 103.014 78.9958 102.239 78.6223 101.407C78.4051 100.887 78.2939 100.343 78.293 99.7961C78.293 99.6673 78.293 99.4794 78.293 99.3881V99.1251L78.3616 98.5882C78.7548 95.7914 79.5064 93.0325 80.6048 90.3533C81.1399 89.0327 81.7092 87.7175 82.3609 86.4345C83.0126 85.1515 83.6849 83.8953 84.515 82.5908L89.4611 84.518Z" fill="#E58A7B"/>
<path d="M93.9205 108.67L98.7705 106.748L97.5151 110.914C97.5151 110.914 94.188 111.644 92.6445 110.377L93.9205 108.67Z" fill="#E58A7B"/>
<path d="M103.208 107.43L101.919 110.876L97.5146 110.914L98.77 106.748L103.208 107.43Z" fill="#E58A7B"/>
<path d="M110.055 64.4189C110.315 65.1629 110.676 65.8828 111.132 66.5663C110.999 66.6846 110.827 66.7725 110.635 66.8207C110.443 66.8689 110.238 66.8756 110.042 66.84L110.055 64.4189Z" fill="#DF5753"/>
<path d="M109.911 64.4515C110.195 64.4515 110.425 64.1751 110.425 63.8342C110.425 63.4932 110.195 63.2168 109.911 63.2168C109.627 63.2168 109.396 63.4932 109.396 63.8342C109.396 64.1751 109.627 64.4515 109.911 64.4515Z" fill="#263238"/>
<path d="M109.76 63.2387L110.802 63.0078C110.802 63.0078 110.295 63.6413 109.76 63.2387Z" fill="#263238"/>
<path d="M96.6573 68.3594C97.2815 70.8556 97.9058 75.4347 95.6694 77.1043C95.6694 77.1043 96.5475 79.6381 102.481 79.6381C109.005 79.6381 105.596 77.1043 105.596 77.1043C102.036 76.4386 102.125 74.3718 102.749 72.4285L96.6573 68.3594Z" fill="#E58A7B"/>
<path d="M94.922 62.6695C95.2513 66.8406 95.2788 68.6121 97.9679 70.7541C102.022 73.975 108.498 72.7511 109.767 68.6068C110.913 64.849 110.186 58.6647 104.965 57.0059C103.819 56.6365 102.572 56.502 101.341 56.615C100.11 56.7281 98.9363 57.085 97.9308 57.652C96.9254 58.219 96.1213 58.9774 95.5948 59.8554C95.0684 60.7333 94.8368 61.7019 94.922 62.6695Z" fill="#E58A7B"/>
<path d="M95.45 57.9775C92.7746 58.7397 89.2074 58.1707 90.6068 64.6287C92.0886 71.4679 89.811 73.7172 89.811 73.7172C89.811 73.7172 99.957 75.4082 110.316 73.6152C110.316 73.6152 107.153 69.2884 108.038 66.0996C109.17 62.0734 108.278 60.5864 108.278 60.5864C108.278 60.5864 99.2092 56.9038 95.45 57.9775Z" fill="#263238"/>
<path d="M106.769 64.8432C106.772 65.6363 107.062 66.4126 107.606 67.0818C108.333 67.9515 109.191 67.6186 109.403 66.6953C109.595 65.8847 109.451 64.4514 108.525 63.8931C107.599 63.3348 106.783 63.8823 106.769 64.8432Z" fill="#E58A7B"/>
<path d="M93.1245 58.6808C92.3562 56.9898 96.0195 54.3861 103.771 55.4598C111.523 56.5335 111.859 61.585 111.859 61.585L110.295 60.1248L110.364 61.6601L102.399 62.8573L93.1245 58.6808Z" fill="#263238"/>
<path d="M93.7833 77.3895C93.7375 77.1444 93.8159 76.895 94.0017 76.6944C94.1875 76.4939 94.466 76.358 94.778 76.3159C97.1927 76.0045 102.681 75.371 105.438 75.6717C107.496 75.8971 108.031 76.8312 108.121 77.5989C108.135 77.7333 108.112 77.8685 108.053 77.9954C107.995 78.1223 107.903 78.2379 107.782 78.3345C107.662 78.4312 107.517 78.5065 107.356 78.5556C107.196 78.6046 107.024 78.6262 106.852 78.6188L94.9289 78.2001C94.6478 78.189 94.3803 78.1023 94.1715 77.9546C93.9627 77.8068 93.8256 77.6072 93.7833 77.3895Z" fill="#407BFF"/>
<path opacity="0.6" d="M93.7833 77.3895C93.7375 77.1444 93.8159 76.895 94.0017 76.6944C94.1875 76.4939 94.466 76.358 94.778 76.3159C97.1927 76.0045 102.681 75.371 105.438 75.6717C107.496 75.8971 108.031 76.8312 108.121 77.5989C108.135 77.7333 108.112 77.8685 108.053 77.9954C107.995 78.1223 107.903 78.2379 107.782 78.3345C107.662 78.4312 107.517 78.5065 107.356 78.5556C107.196 78.6046 107.024 78.6262 106.852 78.6188L94.9289 78.2001C94.6478 78.189 94.3803 78.1023 94.1715 77.9546C93.9627 77.8068 93.8256 77.6072 93.7833 77.3895Z" fill="black"/>
<path d="M100.677 171.173L105.102 173.578L112.504 165.724L108.079 163.324L100.677 171.173Z" fill="#E58A7B"/>
<path d="M90.3599 171.017L95.0315 173.1L101.583 164.795L96.9112 162.712L90.3599 171.017Z" fill="#E58A7B"/>
<path d="M112.497 165.724L108.683 169.772L104.258 167.372L108.072 163.324L112.497 165.724Z" fill="#CF6F64"/>
<path d="M96.9044 162.712L101.583 164.8L98.2078 169.079L93.5293 166.99L96.9044 162.712Z" fill="#CF6F64"/>
<path d="M104.409 103.607C104.409 103.607 121.683 120.641 118.438 136.934C115.824 150.091 100.664 167.908 100.664 167.908L93.536 165.138C98.5599 157.261 102.847 149.108 106.364 140.745C107.449 138.149 107.765 135.393 107.29 132.687C106.815 129.981 105.56 127.395 103.62 125.123C94.8668 115.122 80.845 121.076 90.2775 103.607H104.409Z" fill="#407BFF"/>
<path opacity="0.6" d="M104.409 103.607C104.409 103.607 121.683 120.641 118.438 136.934C115.824 150.091 100.664 167.908 100.664 167.908L93.536 165.138C98.5599 157.261 102.847 149.108 106.364 140.745C107.449 138.149 107.765 135.393 107.29 132.687C106.815 129.981 105.56 127.395 103.62 125.123C94.8668 115.122 80.845 121.076 90.2775 103.607H104.409Z" fill="black"/>
<path opacity="0.4" d="M112.881 114.548L110.371 112.594C110.371 112.749 115.234 136.246 116.599 142.849C117.405 140.92 118.022 138.946 118.445 136.944C120.05 128.951 116.696 120.786 112.881 114.548Z" fill="black"/>
<path d="M112.12 103.607C112.12 103.607 132.919 125.016 133.509 137.852C133.996 148.588 110.871 169.39 110.871 169.39L104.148 165.987C104.148 165.987 117.683 151.213 121.093 139.145C119.775 127.185 91.9238 103.607 91.9238 103.607H112.12Z" fill="#407BFF"/>
<path opacity="0.6" d="M112.12 103.607C112.12 103.607 132.919 125.016 133.509 137.852C133.996 148.588 110.871 169.39 110.871 169.39L104.148 165.987C104.148 165.987 117.683 151.213 121.093 139.145C119.775 127.185 91.9238 103.607 91.9238 103.607H112.12Z" fill="black"/>
<path d="M86.3878 78.0602C84.1652 78.4735 82.0317 84.7974 82.0317 84.7974L90.7234 89.3389C90.7234 89.3389 93.6183 84.3357 92.603 82.1454C91.5534 79.8639 89.1799 77.5395 86.3878 78.0602Z" fill="#407BFF"/>
<path opacity="0.2" d="M88.089 82.1348L87.4854 87.648L90.7164 89.3443C91.6086 87.7726 92.2691 86.1265 92.6852 84.4377L88.089 82.1348Z" fill="black"/>
<path d="M114.693 78.1839C114.693 78.1839 117.258 78.8872 112.12 103.603H90.2641C90.6345 96.6239 90.6414 92.3293 86.3882 78.0604C89.4485 77.5669 92.5505 77.2476 95.6698 77.1049C98.9743 76.9195 102.292 76.9195 105.596 77.1049C109.863 77.4109 114.693 78.1839 114.693 78.1839Z" fill="#407BFF"/>
<path d="M116.915 82.1343C117.409 83.208 117.93 84.3622 118.479 85.4734C119.028 86.5846 119.549 87.7281 120.105 88.8554L121.786 92.2267L122.211 93.0695L122.431 93.4882L122.534 93.6976C122.534 93.7352 122.534 93.7352 122.534 93.7298C122.408 93.5915 122.244 93.4776 122.053 93.397C121.782 93.272 121.476 93.2002 121.162 93.1876C120.9 93.1812 120.64 93.2197 120.4 93.3003C120.085 93.4131 120.085 93.4614 120.091 93.456C120.148 93.4202 120.199 93.3787 120.242 93.3325C120.622 92.9424 120.951 92.5233 121.223 92.0817C121.546 91.5878 121.854 91.0618 122.163 90.5303C122.767 89.4566 123.322 88.3454 123.878 87.2234C124.434 86.1015 124.962 84.9688 125.476 83.8253L127.041 80.4004L129.682 80.9372C129.16 83.3851 128.488 85.7686 127.679 88.1951C127.288 89.403 126.828 90.6001 126.307 91.808C126.046 92.4146 125.758 93.0158 125.428 93.6332C125.085 94.3032 124.663 94.9466 124.166 95.555C123.984 95.7598 123.782 95.9536 123.563 96.1348C123.212 96.4309 122.787 96.6667 122.314 96.8273C121.894 96.9683 121.44 97.0343 120.983 97.0205C120.472 97.0056 119.974 96.8893 119.536 96.6823C119.019 96.4299 118.59 96.0814 118.287 95.6677C118.184 95.5282 118.095 95.3886 118.033 95.2866L117.903 95.0826L117.642 94.6639L117.121 93.8318C116.435 92.7152 115.749 91.5878 115.152 90.4551C114.555 89.3224 113.924 88.1736 113.334 87.0195C112.744 85.8653 112.216 84.7111 111.715 83.4657L116.915 82.1343Z" fill="#E58A7B"/>
<path d="M114.693 78.1833C117.32 78.6718 120.277 84.7487 120.277 84.7487L112.463 89.9505C112.463 89.9505 107.407 83.3261 108.429 81.1412C109.493 78.8651 111.263 77.5445 114.693 78.1833Z" fill="#407BFF"/>
<path d="M128.282 78.4785L131.026 76.6855L132.933 79.01L131.527 80.9479C131.527 80.9479 129.29 82.5584 127.315 81.7371C127.001 81.1855 126.926 80.569 127.1 79.981C127.275 79.3929 127.69 78.8655 128.282 78.4785Z" fill="#E58A7B"/>
<path d="M135.979 76.6909L135.773 77.2761L131.431 77.8451L131.005 76.6855L135.979 76.6909Z" fill="#E58A7B"/>
<path d="M111.406 169.664L103.572 165.702L104.979 163.791L113.78 168.027L111.406 169.664Z" fill="#407BFF"/>
<path d="M98.098 172.82C97.4106 172.755 96.7502 172.571 96.1635 172.284C96.1392 172.277 96.1183 172.265 96.1034 172.248C96.0886 172.232 96.0806 172.212 96.0806 172.192C96.0806 172.172 96.0886 172.153 96.1034 172.136C96.1183 172.12 96.1392 172.108 96.1635 172.101C96.3761 172.047 98.2215 171.602 98.7565 171.945C98.8167 171.984 98.8624 172.035 98.8889 172.093C98.9155 172.151 98.9219 172.213 98.9075 172.273C98.8979 172.369 98.857 172.463 98.7886 172.543C98.7201 172.624 98.6265 172.69 98.5164 172.735C98.388 172.789 98.2443 172.819 98.098 172.82ZM96.5545 172.23C97.412 172.573 98.098 172.697 98.4273 172.568C98.499 172.537 98.5593 172.492 98.6025 172.438C98.6458 172.383 98.6704 172.321 98.6742 172.257C98.6742 172.171 98.6742 172.133 98.6125 172.112C98.3244 171.929 97.2954 172.069 96.5408 172.23H96.5545Z" fill="#263238"/>
<path d="M96.2117 172.321C96.1755 172.321 96.141 172.31 96.1157 172.289C96.1054 172.274 96.1001 172.258 96.1001 172.241C96.1001 172.224 96.1054 172.208 96.1157 172.193C96.1157 172.144 96.5616 170.979 97.2613 170.716C97.3506 170.684 97.4477 170.668 97.546 170.668C97.6442 170.668 97.7413 170.684 97.8307 170.716C97.927 170.74 98.0104 170.789 98.0676 170.854C98.1247 170.919 98.1524 170.997 98.1462 171.076C98.0982 171.559 96.8428 172.225 96.2666 172.338L96.2117 172.321ZM97.5425 170.856C97.4758 170.858 97.4103 170.87 97.3505 170.894C96.9251 171.055 96.5753 171.683 96.4038 172.064C97.0075 171.865 97.8375 171.339 97.865 171.044C97.865 170.996 97.8649 170.936 97.7072 170.883C97.6558 170.861 97.6002 170.847 97.5425 170.84V170.856Z" fill="#263238"/>
<path d="M107.887 175.14C107.112 175.14 106.035 174.361 105.445 173.883C105.43 173.867 105.422 173.847 105.422 173.827C105.422 173.807 105.43 173.787 105.445 173.771C105.459 173.753 105.478 173.739 105.501 173.73C105.524 173.72 105.55 173.716 105.575 173.717C105.85 173.717 108.23 173.996 108.566 174.522C108.602 174.569 108.621 174.623 108.621 174.678C108.621 174.733 108.602 174.786 108.566 174.834C108.516 174.915 108.44 174.986 108.345 175.039C108.25 175.091 108.14 175.124 108.024 175.134L107.887 175.14ZM105.898 173.959C106.762 174.613 107.524 174.978 107.956 174.936C108.032 174.928 108.104 174.906 108.166 174.871C108.228 174.836 108.278 174.79 108.313 174.737C108.328 174.719 108.336 174.697 108.336 174.675C108.336 174.653 108.328 174.632 108.313 174.613C108.134 174.324 106.865 174.077 105.898 173.959Z" fill="#263238"/>
<path d="M105.973 173.932C105.819 173.936 105.665 173.927 105.513 173.905C105.492 173.903 105.472 173.896 105.455 173.886C105.439 173.876 105.426 173.862 105.417 173.846C105.407 173.831 105.402 173.813 105.402 173.795C105.402 173.778 105.407 173.76 105.417 173.744C105.459 173.707 106.385 172.832 107.263 172.773C107.511 172.758 107.758 172.819 107.949 172.945C108.216 173.127 108.203 173.288 108.134 173.39C107.963 173.755 106.776 173.932 105.973 173.932ZM105.795 173.734C106.563 173.766 107.791 173.567 107.949 173.304C107.949 173.304 108.004 173.218 107.825 173.1C107.754 173.052 107.671 173.016 107.582 172.993C107.492 172.971 107.397 172.964 107.304 172.971C106.712 173.101 106.186 173.368 105.795 173.739V173.734Z" fill="#263238"/>
<path d="M96.3968 171.742L90.5795 170.454C90.4792 170.43 90.3713 170.436 90.2763 170.471C90.1814 170.505 90.1061 170.566 90.065 170.642L88.1031 174.093C88.057 174.182 88.0354 174.277 88.0396 174.372C88.0438 174.468 88.0738 174.561 88.1276 174.647C88.1814 174.733 88.2577 174.809 88.3516 174.87C88.4455 174.93 88.5549 174.975 88.6724 175.001C90.7304 175.419 91.7183 175.537 94.2771 176.112C95.8549 176.455 98.1049 177.094 100.28 177.577C102.454 178.061 103.181 176.402 102.338 176.047C98.5234 174.469 98.2216 173.363 97.1788 172.182C96.9921 171.968 96.7153 171.813 96.3968 171.742Z" fill="#407BFF"/>
<path d="M105.603 173.256L100.636 170.572C100.552 170.524 100.448 170.501 100.344 170.509C100.241 170.517 100.144 170.555 100.073 170.615L96.7807 173.385C96.7004 173.456 96.6406 173.54 96.6051 173.631C96.5696 173.723 96.5593 173.818 96.5749 173.913C96.5905 174.007 96.6316 174.098 96.6954 174.179C96.7593 174.26 96.8445 174.33 96.9453 174.383C98.6946 175.301 99.6002 175.671 101.788 176.858C103.16 177.588 105.815 179.209 107.668 180.218C109.52 181.228 110.899 179.843 110.24 179.295C107.29 176.831 106.645 175.285 106.158 173.884C106.074 173.63 105.877 173.407 105.603 173.256Z" fill="#407BFF"/>
<path d="M101.576 168.263L92.6235 164.779L93.5496 162.879L103.112 166.551L101.576 168.263Z" fill="#407BFF"/>
<path d="M89.9347 102.599L89.1801 104.145C89.1046 104.263 89.283 104.386 89.5368 104.386H112.23C112.429 104.386 112.593 104.311 112.607 104.214L112.799 102.679C112.799 102.577 112.641 102.486 112.429 102.486H90.2914C90.2247 102.481 90.1576 102.489 90.0955 102.508C90.0334 102.528 89.9783 102.559 89.9347 102.599Z" fill="#407BFF"/>
<path opacity="0.4" d="M89.9347 102.599L89.1801 104.145C89.1046 104.263 89.283 104.386 89.5368 104.386H112.23C112.429 104.386 112.593 104.311 112.607 104.214L112.799 102.679C112.799 102.577 112.641 102.486 112.429 102.486H90.2914C90.2247 102.481 90.1576 102.489 90.0955 102.508C90.0334 102.528 89.9783 102.559 89.9347 102.599Z" fill="white"/>
<path d="M93.5085 104.537H92.9117C92.7951 104.537 92.7059 104.489 92.7128 104.43L92.994 102.438C92.994 102.384 93.1038 102.336 93.2204 102.336H93.8172C93.9339 102.336 94.023 102.384 94.0162 102.438L93.7349 104.43C93.7281 104.489 93.6252 104.537 93.5085 104.537Z" fill="#407BFF"/>
<path d="M107.503 104.537H106.913C106.797 104.537 106.707 104.489 106.714 104.43L106.989 102.438C106.989 102.384 107.105 102.336 107.222 102.336H107.812C107.928 102.336 108.024 102.384 108.011 102.438L107.736 104.43C107.702 104.489 107.627 104.537 107.503 104.537Z" fill="#407BFF"/>
<g style="mix-blend-mode:multiply">
<path d="M92.9873 195.448C103.137 195.448 111.365 194.982 111.365 194.407C111.365 193.832 103.137 193.365 92.9873 193.365C82.8375 193.365 74.6094 193.832 74.6094 194.407C74.6094 194.982 82.8375 195.448 92.9873 195.448Z" fill="#F5F5F5"/>
</g>
<path d="M104.183 192.935C100.931 192.195 97.3228 191.244 95.1414 190.251C95.0796 190.219 95.011 190.203 94.9493 190.176V178.656H101.528C102.027 178.633 102.497 178.461 102.84 178.176C103.183 177.891 103.374 177.515 103.374 177.123C103.374 176.732 103.183 176.355 102.84 176.07C102.497 175.785 102.027 175.614 101.528 175.59H94.9836V123.078H91.0322V175.59H84.4946C84.2277 175.578 83.9603 175.609 83.709 175.68C83.4576 175.751 83.2276 175.862 83.033 176.006C82.8384 176.149 82.6833 176.323 82.5773 176.515C82.4714 176.707 82.4167 176.914 82.4167 177.123C82.4167 177.332 82.4714 177.539 82.5773 177.732C82.6833 177.924 82.8384 178.097 83.033 178.24C83.2276 178.384 83.4576 178.495 83.709 178.566C83.9603 178.638 84.2277 178.668 84.4946 178.656H91.0322V190.16C90.9705 190.16 90.9087 190.203 90.847 190.235C88.6312 191.244 85.0503 192.195 81.7986 192.919C81.579 192.971 81.3904 193.083 81.267 193.234C81.1435 193.386 81.0935 193.567 81.1258 193.745C81.1581 193.922 81.2707 194.085 81.4432 194.204C81.6157 194.322 81.8367 194.388 82.0662 194.39H103.915C104.135 194.378 104.342 194.308 104.503 194.191C104.664 194.074 104.769 193.918 104.801 193.747C104.832 193.577 104.788 193.404 104.675 193.256C104.563 193.108 104.389 192.995 104.183 192.935Z" fill="#E0E0E0"/>
<path d="M105.191 117.731H80.7971C78.8346 117.731 77.2437 118.976 77.2437 120.512V126.186C77.2437 127.722 78.8346 128.967 80.7971 128.967H105.191C107.154 128.967 108.745 127.722 108.745 126.186V120.512C108.745 118.976 107.154 117.731 105.191 117.731Z" fill="#407BFF"/>
<path d="M80.5708 128.973V129.95C80.5708 130.755 81.689 131.41 83.061 131.41H102.955C104.327 131.41 105.445 130.755 105.445 129.95V128.973H80.5708Z" fill="#407BFF"/>
<path opacity="0.3" d="M80.5708 128.973V129.95C80.5708 130.755 81.689 131.41 83.061 131.41H102.955C104.327 131.41 105.445 130.755 105.445 129.95V128.973H80.5708Z" fill="white"/>
</svg>
